<svg id="Layer_1" data-name="Layer 1" xmlns="http://www.w3.org/2000/svg" xmlns:xlink="http://www.w3.org/1999/xlink" viewBox="0 0 232.38 32"><defs><style>.cls-1{fill:none;}.cls-2{clip-path:url(#clip-path);}.cls-3{opacity:0.5;}.cls-4{clip-path:url(#clip-path-3);}.cls-5{fill:#474747;}.cls-6{clip-path:url(#clip-path-4);}.cls-7{clip-path:url(#clip-path-5);}.cls-8{clip-path:url(#clip-path-6);}.cls-9{clip-path:url(#clip-path-7);}.cls-10{clip-path:url(#clip-path-8);}.cls-11{clip-path:url(#clip-path-9);}.cls-12{clip-path:url(#clip-path-10);}.cls-13{clip-path:url(#clip-path-11);}.cls-14{clip-path:url(#clip-path-12);}</style><clipPath id="clip-path" transform="translate(-0.83)"><rect class="cls-1" x="0.83" width="232.37" height="32"/></clipPath><clipPath id="clip-path-3" transform="translate(-0.83)"><rect class="cls-1" x="211.21" y="8" width="21.99" height="16.97"/></clipPath><clipPath id="clip-path-4" transform="translate(-0.83)"><rect class="cls-1" x="158.84" y="14" width="4" height="4"/></clipPath><clipPath id="clip-path-5" transform="translate(-0.83)"><rect class="cls-1" x="178.84" y="14" width="4" height="4"/></clipPath><clipPath id="clip-path-6" transform="translate(-0.83)"><rect class="cls-1" x="138.84" y="14" width="4" height="4"/></clipPath><clipPath id="clip-path-7" transform="translate(-0.83)"><rect class="cls-1" x="198.84" y="14" width="4" height="4"/></clipPath><clipPath id="clip-path-8" transform="translate(-0.83)"><rect class="cls-1" x="36.84" width="34" height="32"/></clipPath><clipPath id="clip-path-9" transform="translate(-0.83)"><rect class="cls-1" x="0.83" y="12" width="28" height="8"/></clipPath><clipPath id="clip-path-10" transform="translate(-0.83)"><rect class="cls-1" x="98.84" y="14" width="4" height="4"/></clipPath><clipPath id="clip-path-11" transform="translate(-0.83)"><rect class="cls-1" x="118.84" y="14" width="4" height="4"/></clipPath><clipPath id="clip-path-12" transform="translate(-0.83)"><rect class="cls-1" x="78.84" y="14" width="4" height="4"/></clipPath></defs><title>Q2</title><g class="cls-2"><g class="cls-2"><g id="그룹_1154" data-name="그룹 1154"><g id="그룹_1126" data-name="그룹 1126" class="cls-3"><g id="그룹_1125" data-name="그룹 1125"><g class="cls-4"><g id="그룹_1124" data-name="그룹 1124"><path id="패스_583" data-name="패스 583" class="cls-5" d="M211.21,13.66,216.66,8l10.89,11.31L222.1,25Z" transform="translate(-0.83)"/><path id="패스_584" data-name="패스 584" class="cls-5" d="M216.87,19.31,227.76,8l5.45,5.66L222.32,25Z" transform="translate(-0.83)"/></g></g></g></g><g id="그룹_1129" data-name="그룹 1129" class="cls-3"><g id="그룹_1128" data-name="그룹 1128"><g class="cls-6"><g id="그룹_1127" data-name="그룹 1127"><path id="패스_585" data-name="패스 585" class="cls-5" d="M160.83,14a2,2,0,1,1-2,2,2,2,0,0,1,2-2" transform="translate(-0.83)"/></g></g></g></g><g id="그룹_1132" data-name="그룹 1132" class="cls-3"><g id="그룹_1131" data-name="그룹 1131"><g class="cls-7"><g id="그룹_1130" data-name="그룹 1130"><path id="패스_586" data-name="패스 586" class="cls-5" d="M180.83,14a2,2,0,1,1-2,2,2,2,0,0,1,2-2" transform="translate(-0.83)"/></g></g></g></g><g id="그룹_1135" data-name="그룹 1135" class="cls-3"><g id="그룹_1134" data-name="그룹 1134"><g class="cls-8"><g id="그룹_1133" data-name="그룹 1133"><path id="패스_587" data-name="패스 587" class="cls-5" d="M140.83,14a2,2,0,1,1-2,2,2,2,0,0,1,2-2" transform="translate(-0.83)"/></g></g></g></g><g id="그룹_1138" data-name="그룹 1138" class="cls-3"><g id="그룹_1137" data-name="그룹 1137"><g class="cls-9"><g id="그룹_1136" data-name="그룹 1136"><path id="패스_588" data-name="패스 588" class="cls-5" d="M200.83,14a2,2,0,1,1-2,2,2,2,0,0,1,2-2" transform="translate(-0.83)"/></g></g></g></g><g id="그룹_1141" data-name="그룹 1141" class="cls-3"><g id="그룹_1140" data-name="그룹 1140"><g class="cls-10"><g id="그룹_1139" data-name="그룹 1139"><rect id="사각형_486" data-name="사각형 486" class="cls-5" x="46.01" y="14" width="24" height="4"/><path id="패스_589" data-name="패스 589" class="cls-5" d="M50.83,0l8,16-8,16h-4l8-16-8-16Z" transform="translate(-0.83)"/><path id="패스_590" data-name="패스 590" class="cls-5" d="M40.83,8l4,8-4,8h-4l4-8-4-8Z" transform="translate(-0.83)"/></g></g></g></g><g id="그룹_1144" data-name="그룹 1144" class="cls-3"><g id="그룹_1143" data-name="그룹 1143"><g class="cls-11"><g id="그룹_1142" data-name="그룹 1142"><path id="패스_591" data-name="패스 591" class="cls-5" d="M28.83,16a2,2,0,0,1-2,2H8.29a4,4,0,1,1,0-4H26.83a2,2,0,0,1,2,2h0" transform="translate(-0.83)"/></g></g></g></g><g id="그룹_1147" data-name="그룹 1147" class="cls-3"><g id="그룹_1146" data-name="그룹 1146"><g class="cls-12"><g id="그룹_1145" data-name="그룹 1145"><path id="패스_592" data-name="패스 592" class="cls-5" d="M100.83,14a2,2,0,1,1-2,2,2,2,0,0,1,2-2" transform="translate(-0.83)"/></g></g></g></g><g id="그룹_1150" data-name="그룹 1150" class="cls-3"><g id="그룹_1149" data-name="그룹 1149"><g class="cls-13"><g id="그룹_1148" data-name="그룹 1148"><path id="패스_593" data-name="패스 593" class="cls-5" d="M120.83,14a2,2,0,1,1-2,2,2,2,0,0,1,2-2" transform="translate(-0.83)"/></g></g></g></g><g id="그룹_1153" data-name="그룹 1153" class="cls-3"><g id="그룹_1152" data-name="그룹 1152"><g class="cls-14"><g id="그룹_1151" data-name="그룹 1151"><path id="패스_594" data-name="패스 594" class="cls-5" d="M80.83,14a2,2,0,1,1-2,2,2,2,0,0,1,2-2" transform="translate(-0.83)"/></g></g></g></g></g></g></g></svg>