<svg id="Layer_1" data-name="Layer 1" xmlns="http://www.w3.org/2000/svg" xmlns:xlink="http://www.w3.org/1999/xlink" viewBox="0 0 232.37 32"><defs><style>.cls-1{fill:none;}.cls-2{clip-path:url(#clip-path);}.cls-3{opacity:0.5;}.cls-4{clip-path:url(#clip-path-3);}.cls-5{fill:#474747;}.cls-6{clip-path:url(#clip-path-4);}.cls-7{clip-path:url(#clip-path-5);}.cls-8{clip-path:url(#clip-path-6);}.cls-9{clip-path:url(#clip-path-7);}.cls-10{clip-path:url(#clip-path-8);}.cls-11{clip-path:url(#clip-path-9);}.cls-12{clip-path:url(#clip-path-10);}.cls-13{clip-path:url(#clip-path-11);}</style><clipPath id="clip-path" transform="translate(-0.5 1.75)"><rect class="cls-1" x="0.5" y="-1.75" width="232.37" height="32"/></clipPath><clipPath id="clip-path-3" transform="translate(-0.5 1.75)"><rect class="cls-1" x="210.87" y="6.25" width="21.99" height="16.97"/></clipPath><clipPath id="clip-path-4" transform="translate(-0.5 1.75)"><rect class="cls-1" x="158.5" y="12.25" width="4" height="4"/></clipPath><clipPath id="clip-path-5" transform="translate(-0.5 1.75)"><rect class="cls-1" x="178.5" y="12.25" width="4" height="4"/></clipPath><clipPath id="clip-path-6" transform="translate(-0.5 1.75)"><rect class="cls-1" x="138.5" y="12.25" width="4" height="4"/></clipPath><clipPath id="clip-path-7" transform="translate(-0.5 1.75)"><rect class="cls-1" x="198.5" y="12.25" width="4" height="4"/></clipPath><clipPath id="clip-path-8" transform="translate(-0.5 1.75)"><rect class="cls-1" x="56.5" y="-1.75" width="34" height="32"/></clipPath><clipPath id="clip-path-9" transform="translate(-0.5 1.75)"><rect class="cls-1" x="0.5" y="10.25" width="48" height="8"/></clipPath><clipPath id="clip-path-10" transform="translate(-0.5 1.75)"><rect class="cls-1" x="98.5" y="12.25" width="4" height="4"/></clipPath><clipPath id="clip-path-11" transform="translate(-0.5 1.75)"><rect class="cls-1" x="118.5" y="12.25" width="4" height="4"/></clipPath></defs><title>Q3</title><g id="그룹_1188" data-name="그룹 1188"><g class="cls-2"><g id="그룹_1187" data-name="그룹 1187"><g id="그룹_1186" data-name="그룹 1186"><g class="cls-2"><g id="그룹_1185" data-name="그룹 1185"><g id="그룹_1160" data-name="그룹 1160" class="cls-3"><g id="그룹_1159" data-name="그룹 1159"><g class="cls-4"><g id="그룹_1158" data-name="그룹 1158"><path id="패스_595" data-name="패스 595" class="cls-5" d="M210.87,11.91l5.45-5.66,10.89,11.31-5.45,5.66Z" transform="translate(-0.5 1.75)"/><path id="패스_596" data-name="패스 596" class="cls-5" d="M216.53,17.56,227.42,6.25l5.45,5.66L222,23.22Z" transform="translate(-0.5 1.75)"/></g></g></g></g><g id="그룹_1163" data-name="그룹 1163" class="cls-3"><g id="그룹_1162" data-name="그룹 1162"><g class="cls-6"><g id="그룹_1161" data-name="그룹 1161"><path id="패스_597" data-name="패스 597" class="cls-5" d="M160.5,12.25a2,2,0,1,1-2,2,2,2,0,0,1,2-2" transform="translate(-0.5 1.75)"/></g></g></g></g><g id="그룹_1166" data-name="그룹 1166" class="cls-3"><g id="그룹_1165" data-name="그룹 1165"><g class="cls-7"><g id="그룹_1164" data-name="그룹 1164"><path id="패스_598" data-name="패스 598" class="cls-5" d="M180.5,12.25a2,2,0,1,1-2,2,2,2,0,0,1,2-2" transform="translate(-0.5 1.75)"/></g></g></g></g><g id="그룹_1169" data-name="그룹 1169" class="cls-3"><g id="그룹_1168" data-name="그룹 1168"><g class="cls-8"><g id="그룹_1167" data-name="그룹 1167"><path id="패스_599" data-name="패스 599" class="cls-5" d="M140.5,12.25a2,2,0,1,1-2,2,2,2,0,0,1,2-2" transform="translate(-0.5 1.75)"/></g></g></g></g><g id="그룹_1172" data-name="그룹 1172" class="cls-3"><g id="그룹_1171" data-name="그룹 1171"><g class="cls-9"><g id="그룹_1170" data-name="그룹 1170"><path id="패스_600" data-name="패스 600" class="cls-5" d="M200.5,12.25a2,2,0,1,1-2,2,2,2,0,0,1,2-2" transform="translate(-0.5 1.75)"/></g></g></g></g><g id="그룹_1175" data-name="그룹 1175" class="cls-3"><g id="그룹_1174" data-name="그룹 1174"><g class="cls-10"><g id="그룹_1173" data-name="그룹 1173"><rect id="사각형_499" data-name="사각형 499" class="cls-5" x="66" y="14" width="24" height="4"/><path id="패스_601" data-name="패스 601" class="cls-5" d="M70.5-1.75l8,16-8,16h-4l8-16-8-16Z" transform="translate(-0.5 1.75)"/><path id="패스_602" data-name="패스 602" class="cls-5" d="M60.5,6.25l4,8-4,8h-4l4-8-4-8Z" transform="translate(-0.5 1.75)"/></g></g></g></g><g id="그룹_1178" data-name="그룹 1178" class="cls-3"><g id="그룹_1177" data-name="그룹 1177"><g class="cls-11"><g id="그룹_1176" data-name="그룹 1176"><path id="패스_603" data-name="패스 603" class="cls-5" d="M48.5,14.25a2,2,0,0,1-2,2H8a4,4,0,1,1,0-4H46.5a2,2,0,0,1,2,2" transform="translate(-0.5 1.75)"/></g></g></g></g><g id="그룹_1181" data-name="그룹 1181" class="cls-3"><g id="그룹_1180" data-name="그룹 1180"><g class="cls-12"><g id="그룹_1179" data-name="그룹 1179"><path id="패스_604" data-name="패스 604" class="cls-5" d="M100.5,12.25a2,2,0,1,1-2,2,2,2,0,0,1,2-2" transform="translate(-0.5 1.75)"/></g></g></g></g><g id="그룹_1184" data-name="그룹 1184" class="cls-3"><g id="그룹_1183" data-name="그룹 1183"><g class="cls-13"><g id="그룹_1182" data-name="그룹 1182"><path id="패스_605" data-name="패스 605" class="cls-5" d="M120.5,12.25a2,2,0,1,1-2,2,2,2,0,0,1,2-2" transform="translate(-0.5 1.75)"/></g></g></g></g></g></g></g></g></g></g></svg>