<svg id="Layer_1" data-name="Layer 1" xmlns="http://www.w3.org/2000/svg" xmlns:xlink="http://www.w3.org/1999/xlink" viewBox="0 0 232.37 32"><defs><style>.cls-1{fill:none;}.cls-2{clip-path:url(#clip-path);}.cls-3{opacity:0.5;}.cls-4{clip-path:url(#clip-path-3);}.cls-5{fill:#474747;}.cls-6{clip-path:url(#clip-path-4);}.cls-7{clip-path:url(#clip-path-5);}.cls-8{clip-path:url(#clip-path-6);}.cls-9{clip-path:url(#clip-path-7);}.cls-10{clip-path:url(#clip-path-8);}.cls-11{clip-path:url(#clip-path-9);}.cls-12{clip-path:url(#clip-path-10);}</style><clipPath id="clip-path" transform="translate(-0.5)"><rect class="cls-1" x="0.5" width="232.37" height="32"/></clipPath><clipPath id="clip-path-3" transform="translate(-0.5)"><rect class="cls-1" x="210.87" y="8" width="21.99" height="16.97"/></clipPath><clipPath id="clip-path-4" transform="translate(-0.5)"><rect class="cls-1" x="158.5" y="14" width="4" height="4"/></clipPath><clipPath id="clip-path-5" transform="translate(-0.5)"><rect class="cls-1" x="178.5" y="14" width="4" height="4"/></clipPath><clipPath id="clip-path-6" transform="translate(-0.5)"><rect class="cls-1" x="138.5" y="14" width="4" height="4"/></clipPath><clipPath id="clip-path-7" transform="translate(-0.5)"><rect class="cls-1" x="198.5" y="14" width="4" height="4"/></clipPath><clipPath id="clip-path-8" transform="translate(-0.5)"><rect class="cls-1" x="76.5" width="34" height="32"/></clipPath><clipPath id="clip-path-9" transform="translate(-0.5)"><rect class="cls-1" x="0.5" y="12" width="68" height="8"/></clipPath><clipPath id="clip-path-10" transform="translate(-0.5)"><rect class="cls-1" x="118.5" y="14" width="4" height="4"/></clipPath></defs><title>Q04</title><g id="그룹_1216" data-name="그룹 1216"><g class="cls-2"><g id="그룹_1215" data-name="그룹 1215"><g id="그룹_1214" data-name="그룹 1214"><g class="cls-2"><g id="그룹_1213" data-name="그룹 1213"><g id="그룹_1191" data-name="그룹 1191" class="cls-3"><g id="그룹_1190" data-name="그룹 1190"><g class="cls-4"><g id="그룹_1189" data-name="그룹 1189"><path id="패스_606" data-name="패스 606" class="cls-5" d="M210.87,13.66,216.32,8l10.89,11.31L221.76,25Z" transform="translate(-0.5)"/><path id="패스_607" data-name="패스 607" class="cls-5" d="M216.53,19.31,227.42,8l5.45,5.66L222,25Z" transform="translate(-0.5)"/></g></g></g></g><g id="그룹_1194" data-name="그룹 1194" class="cls-3"><g id="그룹_1193" data-name="그룹 1193"><g class="cls-6"><g id="그룹_1192" data-name="그룹 1192"><path id="패스_608" data-name="패스 608" class="cls-5" d="M160.5,14a2,2,0,1,1-2,2,2,2,0,0,1,2-2" transform="translate(-0.5)"/></g></g></g></g><g id="그룹_1197" data-name="그룹 1197" class="cls-3"><g id="그룹_1196" data-name="그룹 1196"><g class="cls-7"><g id="그룹_1195" data-name="그룹 1195"><path id="패스_609" data-name="패스 609" class="cls-5" d="M180.5,14a2,2,0,1,1-2,2,2,2,0,0,1,2-2" transform="translate(-0.5)"/></g></g></g></g><g id="그룹_1200" data-name="그룹 1200" class="cls-3"><g id="그룹_1199" data-name="그룹 1199"><g class="cls-8"><g id="그룹_1198" data-name="그룹 1198"><path id="패스_610" data-name="패스 610" class="cls-5" d="M140.5,14a2,2,0,1,1-2,2,2,2,0,0,1,2-2" transform="translate(-0.5)"/></g></g></g></g><g id="그룹_1203" data-name="그룹 1203" class="cls-3"><g id="그룹_1202" data-name="그룹 1202"><g class="cls-9"><g id="그룹_1201" data-name="그룹 1201"><path id="패스_611" data-name="패스 611" class="cls-5" d="M200.5,14a2,2,0,1,1-2,2,2,2,0,0,1,2-2" transform="translate(-0.5)"/></g></g></g></g><g id="그룹_1206" data-name="그룹 1206" class="cls-3"><g id="그룹_1205" data-name="그룹 1205"><g class="cls-10"><g id="그룹_1204" data-name="그룹 1204"><rect id="사각형_511" data-name="사각형 511" class="cls-5" x="86" y="14" width="24" height="4"/><path id="패스_612" data-name="패스 612" class="cls-5" d="M90.5,0l8,16-8,16h-4l8-16-8-16Z" transform="translate(-0.5)"/><path id="패스_613" data-name="패스 613" class="cls-5" d="M80.5,8l4,8-4,8h-4l4-8-4-8Z" transform="translate(-0.5)"/></g></g></g></g><g id="그룹_1209" data-name="그룹 1209" class="cls-3"><g id="그룹_1208" data-name="그룹 1208"><g class="cls-11"><g id="그룹_1207" data-name="그룹 1207"><path id="패스_614" data-name="패스 614" class="cls-5" d="M68.5,16a2,2,0,0,1-2,2H8a4,4,0,1,1,0-4H66.5a2,2,0,0,1,2,2" transform="translate(-0.5)"/></g></g></g></g><g id="그룹_1212" data-name="그룹 1212" class="cls-3"><g id="그룹_1211" data-name="그룹 1211"><g class="cls-12"><g id="그룹_1210" data-name="그룹 1210"><path id="패스_615" data-name="패스 615" class="cls-5" d="M120.5,14a2,2,0,1,1-2,2,2,2,0,0,1,2-2" transform="translate(-0.5)"/></g></g></g></g></g></g></g></g></g></g></svg>