<svg id="Layer_1" data-name="Layer 1" xmlns="http://www.w3.org/2000/svg" xmlns:xlink="http://www.w3.org/1999/xlink" viewBox="0 0 232.37 32"><defs><style>.cls-1{fill:none;}.cls-2{clip-path:url(#clip-path);}.cls-3{opacity:0.5;}.cls-4{clip-path:url(#clip-path-3);}.cls-5{fill:#474747;}.cls-6{clip-path:url(#clip-path-4);}.cls-7{clip-path:url(#clip-path-5);}.cls-8{clip-path:url(#clip-path-6);}.cls-9{clip-path:url(#clip-path-7);}.cls-10{clip-path:url(#clip-path-8);}.cls-11{clip-path:url(#clip-path-9);}</style><clipPath id="clip-path" transform="translate(-3.32)"><rect class="cls-1" x="3.32" width="232.37" height="32"/></clipPath><clipPath id="clip-path-3" transform="translate(-3.32)"><rect class="cls-1" x="99.32" width="34" height="32"/></clipPath><clipPath id="clip-path-4" transform="translate(-3.32)"><rect class="cls-1" x="213.68" y="8" width="21.99" height="16.97"/></clipPath><clipPath id="clip-path-5" transform="translate(-3.32)"><rect class="cls-1" x="3.32" y="12" width="88" height="8"/></clipPath><clipPath id="clip-path-6" transform="translate(-3.32)"><rect class="cls-1" x="161.32" y="14" width="4" height="4"/></clipPath><clipPath id="clip-path-7" transform="translate(-3.32)"><rect class="cls-1" x="181.32" y="14" width="4" height="4"/></clipPath><clipPath id="clip-path-8" transform="translate(-3.32)"><rect class="cls-1" x="141.32" y="14" width="4" height="4"/></clipPath><clipPath id="clip-path-9" transform="translate(-3.32)"><rect class="cls-1" x="201.32" y="14" width="4" height="4"/></clipPath></defs><title>Q05</title><g id="그룹_1241" data-name="그룹 1241"><g class="cls-2"><g id="그룹_1240" data-name="그룹 1240"><g id="그룹_1239" data-name="그룹 1239"><g class="cls-2"><g id="그룹_1238" data-name="그룹 1238"><g id="그룹_1219" data-name="그룹 1219" class="cls-3"><g id="그룹_1218" data-name="그룹 1218"><g class="cls-4"><g id="그룹_1217" data-name="그룹 1217"><rect id="사각형_517" data-name="사각형 517" class="cls-5" x="106" y="14" width="24" height="4"/><path id="패스_616" data-name="패스 616" class="cls-5" d="M113.32,0l8,16-8,16h-4l8-16-8-16Z" transform="translate(-3.32)"/><path id="패스_617" data-name="패스 617" class="cls-5" d="M103.32,8l4,8-4,8h-4l4-8-4-8Z" transform="translate(-3.32)"/></g></g></g></g><g id="그룹_1222" data-name="그룹 1222" class="cls-3"><g id="그룹_1221" data-name="그룹 1221"><g class="cls-6"><g id="그룹_1220" data-name="그룹 1220"><path id="패스_618" data-name="패스 618" class="cls-5" d="M213.68,13.66,219.14,8,230,19.31,224.58,25Z" transform="translate(-3.32)"/><path id="패스_619" data-name="패스 619" class="cls-5" d="M219.35,19.31,230.24,8l5.44,5.66L224.79,25Z" transform="translate(-3.32)"/></g></g></g></g><g id="그룹_1225" data-name="그룹 1225" class="cls-3"><g id="그룹_1224" data-name="그룹 1224"><g class="cls-7"><g id="그룹_1223" data-name="그룹 1223"><path id="패스_620" data-name="패스 620" class="cls-5" d="M91.32,16a2,2,0,0,1-2,2H10.78a4,4,0,1,1,0-4H89.32a2,2,0,0,1,2,2" transform="translate(-3.32)"/></g></g></g></g><g id="그룹_1228" data-name="그룹 1228" class="cls-3"><g id="그룹_1227" data-name="그룹 1227"><g class="cls-8"><g id="그룹_1226" data-name="그룹 1226"><path id="패스_621" data-name="패스 621" class="cls-5" d="M163.32,14a2,2,0,1,1-2,2,2,2,0,0,1,2-2" transform="translate(-3.32)"/></g></g></g></g><g id="그룹_1231" data-name="그룹 1231" class="cls-3"><g id="그룹_1230" data-name="그룹 1230"><g class="cls-9"><g id="그룹_1229" data-name="그룹 1229"><path id="패스_622" data-name="패스 622" class="cls-5" d="M183.32,14a2,2,0,1,1-2,2,2,2,0,0,1,2-2" transform="translate(-3.32)"/></g></g></g></g><g id="그룹_1234" data-name="그룹 1234" class="cls-3"><g id="그룹_1233" data-name="그룹 1233"><g class="cls-10"><g id="그룹_1232" data-name="그룹 1232"><path id="패스_623" data-name="패스 623" class="cls-5" d="M143.32,14a2,2,0,1,1-2,2,2,2,0,0,1,2-2" transform="translate(-3.32)"/></g></g></g></g><g id="그룹_1237" data-name="그룹 1237" class="cls-3"><g id="그룹_1236" data-name="그룹 1236"><g class="cls-11"><g id="그룹_1235" data-name="그룹 1235"><path id="패스_624" data-name="패스 624" class="cls-5" d="M203.32,14a2,2,0,1,1-2,2,2,2,0,0,1,2-2" transform="translate(-3.32)"/></g></g></g></g></g></g></g></g></g></g></svg>