<svg id="Layer_1" data-name="Layer 1" xmlns="http://www.w3.org/2000/svg" xmlns:xlink="http://www.w3.org/1999/xlink" viewBox="0 0 232.38 32"><defs><style>.cls-1{fill:none;}.cls-2{clip-path:url(#clip-path);}.cls-3{opacity:0.5;}.cls-4{clip-path:url(#clip-path-3);}.cls-5{fill:#474747;}.cls-6{clip-path:url(#clip-path-4);}.cls-7{clip-path:url(#clip-path-5);}.cls-8{clip-path:url(#clip-path-6);}.cls-9{clip-path:url(#clip-path-7);}.cls-10{clip-path:url(#clip-path-8);}</style><clipPath id="clip-path" transform="translate(4.64)"><rect class="cls-1" x="-4.63" width="232.37" height="32"/></clipPath><clipPath id="clip-path-3" transform="translate(4.64)"><rect class="cls-1" x="111.36" width="34" height="32"/></clipPath><clipPath id="clip-path-4" transform="translate(4.64)"><rect class="cls-1" x="205.74" y="8" width="21.99" height="16.97"/></clipPath><clipPath id="clip-path-5" transform="translate(4.64)"><rect class="cls-1" x="-4.63" y="12" width="108" height="8"/></clipPath><clipPath id="clip-path-6" transform="translate(4.64)"><rect class="cls-1" x="153.36" y="14" width="4" height="4"/></clipPath><clipPath id="clip-path-7" transform="translate(4.64)"><rect class="cls-1" x="173.36" y="14" width="4" height="4"/></clipPath><clipPath id="clip-path-8" transform="translate(4.64)"><rect class="cls-1" x="193.36" y="14" width="4" height="4"/></clipPath></defs><title>Q06</title><g id="그룹_1263" data-name="그룹 1263"><g class="cls-2"><g id="그룹_1262" data-name="그룹 1262"><g id="그룹_1261" data-name="그룹 1261"><g class="cls-2"><g id="그룹_1260" data-name="그룹 1260"><g id="그룹_1244" data-name="그룹 1244" class="cls-3"><g id="그룹_1243" data-name="그룹 1243"><g class="cls-4"><g id="그룹_1242" data-name="그룹 1242"><rect id="사각형_527" data-name="사각형 527" class="cls-5" x="126" y="14" width="24" height="4"/><path id="패스_625" data-name="패스 625" class="cls-5" d="M125.37,0l8,16-8,16h-4l8-16-8-16Z" transform="translate(4.64)"/><path id="패스_626" data-name="패스 626" class="cls-5" d="M115.37,8l4,8-4,8h-4l4-8-4-8Z" transform="translate(4.64)"/></g></g></g></g><g id="그룹_1247" data-name="그룹 1247" class="cls-3"><g id="그룹_1246" data-name="그룹 1246"><g class="cls-6"><g id="그룹_1245" data-name="그룹 1245"><path id="패스_627" data-name="패스 627" class="cls-5" d="M205.74,13.66,211.18,8l10.89,11.31L216.62,25Z" transform="translate(4.64)"/><path id="패스_628" data-name="패스 628" class="cls-5" d="M211.4,19.31,222.29,8l5.45,5.66L216.85,25Z" transform="translate(4.64)"/></g></g></g></g><g id="그룹_1250" data-name="그룹 1250" class="cls-3"><g id="그룹_1249" data-name="그룹 1249"><g class="cls-7"><g id="그룹_1248" data-name="그룹 1248"><path id="패스_629" data-name="패스 629" class="cls-5" d="M103.37,16a2,2,0,0,1-2,2H2.83a4,4,0,0,1-5.46,1.46A4,4,0,0,1-4.1,14a4,4,0,0,1,5.46-1.46A4,4,0,0,1,2.82,14h98.54a2,2,0,0,1,2,2" transform="translate(4.64)"/></g></g></g></g><g id="그룹_1253" data-name="그룹 1253" class="cls-3"><g id="그룹_1252" data-name="그룹 1252"><g class="cls-8"><g id="그룹_1251" data-name="그룹 1251"><path id="패스_630" data-name="패스 630" class="cls-5" d="M155.37,14a2,2,0,1,1-2,2,2,2,0,0,1,2-2" transform="translate(4.64)"/></g></g></g></g><g id="그룹_1256" data-name="그룹 1256" class="cls-3"><g id="그룹_1255" data-name="그룹 1255"><g class="cls-9"><g id="그룹_1254" data-name="그룹 1254"><path id="패스_631" data-name="패스 631" class="cls-5" d="M175.37,14a2,2,0,1,1-2,2,2,2,0,0,1,2-2" transform="translate(4.64)"/></g></g></g></g><g id="그룹_1259" data-name="그룹 1259" class="cls-3"><g id="그룹_1258" data-name="그룹 1258"><g class="cls-10"><g id="그룹_1257" data-name="그룹 1257"><path id="패스_632" data-name="패스 632" class="cls-5" d="M195.37,14a2,2,0,1,1-2,2,2,2,0,0,1,2-2" transform="translate(4.64)"/></g></g></g></g></g></g></g></g></g></g></svg>