<svg id="Layer_1" data-name="Layer 1" xmlns="http://www.w3.org/2000/svg" xmlns:xlink="http://www.w3.org/1999/xlink" viewBox="0 0 232.35 32"><defs><style>.cls-1{fill:none;}.cls-2{clip-path:url(#clip-path);}.cls-3{opacity:0.5;}.cls-4{clip-path:url(#clip-path-3);}.cls-5{fill:#474747;}.cls-6{clip-path:url(#clip-path-4);}.cls-7{clip-path:url(#clip-path-5);}.cls-8{clip-path:url(#clip-path-6);}.cls-9{clip-path:url(#clip-path-7);}</style><clipPath id="clip-path" transform="translate(1.98)"><rect class="cls-1" x="-2" width="232.37" height="32"/></clipPath><clipPath id="clip-path-3" transform="translate(1.98)"><rect class="cls-1" x="134" width="34" height="32"/></clipPath><clipPath id="clip-path-4" transform="translate(1.98)"><rect class="cls-1" x="208.37" y="8" width="21.99" height="16.97"/></clipPath><clipPath id="clip-path-5" transform="translate(1.98)"><rect class="cls-1" x="-2" y="12" width="128" height="8"/></clipPath><clipPath id="clip-path-6" transform="translate(1.98)"><rect class="cls-1" x="176" y="14" width="4" height="4"/></clipPath><clipPath id="clip-path-7" transform="translate(1.98)"><rect class="cls-1" x="196" y="14" width="4" height="4"/></clipPath></defs><title>Q07</title><g id="그룹_1282" data-name="그룹 1282"><g class="cls-2"><g id="그룹_1281" data-name="그룹 1281"><g id="그룹_1280" data-name="그룹 1280"><g class="cls-2"><g id="그룹_1279" data-name="그룹 1279"><g id="그룹_1266" data-name="그룹 1266" class="cls-3"><g id="그룹_1265" data-name="그룹 1265"><g class="cls-4"><g id="그룹_1264" data-name="그룹 1264"><rect id="사각형_536" data-name="사각형 536" class="cls-5" x="145.98" y="14" width="24" height="4"/><path id="패스_633" data-name="패스 633" class="cls-5" d="M148,0l8,16-8,16h-4l8-16L144,0Z" transform="translate(1.98)"/><path id="패스_634" data-name="패스 634" class="cls-5" d="M138,8l4,8-4,8h-4l4-8-4-8Z" transform="translate(1.98)"/></g></g></g></g><g id="그룹_1269" data-name="그룹 1269" class="cls-3"><g id="그룹_1268" data-name="그룹 1268"><g class="cls-6"><g id="그룹_1267" data-name="그룹 1267"><path id="패스_635" data-name="패스 635" class="cls-5" d="M208.37,13.66,213.82,8l10.89,11.31L219.26,25Z" transform="translate(1.98)"/><path id="패스_636" data-name="패스 636" class="cls-5" d="M214,19.31,224.92,8l5.45,5.66L219.48,25Z" transform="translate(1.98)"/></g></g></g></g><g id="그룹_1272" data-name="그룹 1272" class="cls-3"><g id="그룹_1271" data-name="그룹 1271"><g class="cls-7"><g id="그룹_1270" data-name="그룹 1270"><path id="패스_637" data-name="패스 637" class="cls-5" d="M126,16a2,2,0,0,1-2,2H5.46a4,4,0,1,1,0-4H124a2,2,0,0,1,2,2" transform="translate(1.98)"/></g></g></g></g><g id="그룹_1275" data-name="그룹 1275" class="cls-3"><g id="그룹_1274" data-name="그룹 1274"><g class="cls-8"><g id="그룹_1273" data-name="그룹 1273"><path id="패스_638" data-name="패스 638" class="cls-5" d="M178,14a2,2,0,1,1-2,2,2,2,0,0,1,2-2" transform="translate(1.98)"/></g></g></g></g><g id="그룹_1278" data-name="그룹 1278" class="cls-3"><g id="그룹_1277" data-name="그룹 1277"><g class="cls-9"><g id="그룹_1276" data-name="그룹 1276"><path id="패스_639" data-name="패스 639" class="cls-5" d="M198,14a2,2,0,1,1-2,2,2,2,0,0,1,2-2" transform="translate(1.98)"/></g></g></g></g></g></g></g><path id="패스_640" data-name="패스 640" class="cls-5" d="M5.29,14Z" transform="translate(1.98)"/></g></g></g></svg>