<svg id="Layer_1" data-name="Layer 1" xmlns="http://www.w3.org/2000/svg" xmlns:xlink="http://www.w3.org/1999/xlink" viewBox="0 0 232.35 32"><defs><style>.cls-1{fill:none;}.cls-2{clip-path:url(#clip-path);}.cls-3{opacity:0.5;}.cls-4{clip-path:url(#clip-path-3);}.cls-5{fill:#474747;}.cls-6{clip-path:url(#clip-path-4);}.cls-7{clip-path:url(#clip-path-5);}.cls-8{clip-path:url(#clip-path-6);}</style><clipPath id="clip-path" transform="translate(1.98)"><rect class="cls-1" x="-2" width="232.37" height="32"/></clipPath><clipPath id="clip-path-3" transform="translate(1.98)"><rect class="cls-1" x="154" width="34" height="32"/></clipPath><clipPath id="clip-path-4" transform="translate(1.98)"><rect class="cls-1" x="208.38" y="8" width="21.99" height="16.97"/></clipPath><clipPath id="clip-path-5" transform="translate(1.98)"><rect class="cls-1" x="-2" y="12" width="148" height="8"/></clipPath><clipPath id="clip-path-6" transform="translate(1.98)"><rect class="cls-1" x="196" y="14" width="4" height="4"/></clipPath></defs><title>Q08</title><g id="그룹_1298" data-name="그룹 1298"><g class="cls-2"><g id="그룹_1297" data-name="그룹 1297"><g id="그룹_1296" data-name="그룹 1296"><g class="cls-2"><g id="그룹_1295" data-name="그룹 1295"><g id="그룹_1285" data-name="그룹 1285" class="cls-3"><g id="그룹_1284" data-name="그룹 1284"><g class="cls-4"><g id="그룹_1283" data-name="그룹 1283"><rect id="사각형_544" data-name="사각형 544" class="cls-5" x="165.98" y="14" width="24" height="4"/><path id="패스_641" data-name="패스 641" class="cls-5" d="M168,0l8,16-8,16h-4l8-16L164,0Z" transform="translate(1.98)"/><path id="패스_642" data-name="패스 642" class="cls-5" d="M158,8l4,8-4,8h-4l4-8-4-8Z" transform="translate(1.98)"/></g></g></g></g><g id="그룹_1288" data-name="그룹 1288" class="cls-3"><g id="그룹_1287" data-name="그룹 1287"><g class="cls-6"><g id="그룹_1286" data-name="그룹 1286"><path id="패스_643" data-name="패스 643" class="cls-5" d="M208.38,13.66,213.82,8l10.89,11.31L219.26,25Z" transform="translate(1.98)"/><path id="패스_644" data-name="패스 644" class="cls-5" d="M214,19.31,224.92,8l5.45,5.66L219.48,25Z" transform="translate(1.98)"/></g></g></g></g><g id="그룹_1291" data-name="그룹 1291" class="cls-3"><g id="그룹_1290" data-name="그룹 1290"><g class="cls-7"><g id="그룹_1289" data-name="그룹 1289"><path id="패스_645" data-name="패스 645" class="cls-5" d="M146,16a2,2,0,0,1-2,2H5.46a4,4,0,1,1,0-4H144a2,2,0,0,1,2,2" transform="translate(1.98)"/></g></g></g></g><g id="그룹_1294" data-name="그룹 1294" class="cls-3"><g id="그룹_1293" data-name="그룹 1293"><g class="cls-8"><g id="그룹_1292" data-name="그룹 1292"><path id="패스_646" data-name="패스 646" class="cls-5" d="M198,14a2,2,0,1,1-2,2,2,2,0,0,1,2-2" transform="translate(1.98)"/></g></g></g></g></g></g></g><path id="패스_647" data-name="패스 647" class="cls-5" d="M5.23,14Z" transform="translate(1.98)"/></g></g></g></svg>