<svg xmlns="http://www.w3.org/2000/svg" width="96" height="96" viewBox="0 0 96 96">
  <g id="그룹_1485" data-name="그룹 1485" transform="translate(-244 -522)">
    <rect id="사각형_323" data-name="사각형 323" width="96" height="96" rx="10" transform="translate(244 522)" fill="#474747"/>
    <g id="그룹_364" transform="translate(216.887 409.281)">
      <path id="패스_217" data-name="패스 217" d="M84.4,178.3a2.389,2.389,0,0,1-1.4-.5l-8.5-6.2L66,177.8a2.411,2.411,0,0,1-3.4-.6,2.19,2.19,0,0,1-.3-2.2l3.3-9.9-8.5-6.2a2.527,2.527,0,0,1-.5-3.5,2.576,2.576,0,0,1,1.9-1H69l3.2-10a2.365,2.365,0,0,1,1.2-1.4,2.126,2.126,0,0,1,1.9-.1,2.541,2.541,0,0,1,1.6,1.6l3.2,10H90.6a2.875,2.875,0,0,1,1.8.7,2.41,2.41,0,0,1,.7,1.8,2.61,2.61,0,0,1-1,2l-8.5,6.2,3.3,10a2.47,2.47,0,0,1-1.6,3.1Zm-10-9.1,9.7,7.1a.6.6,0,0,0,.4.1.446.446,0,0,0,.3-.6l-3.7-11.3,9.7-7a.52.52,0,0,0,.2-.4.438.438,0,0,0-.1-.3.367.367,0,0,0-.3-.1h-12l-3.7-11.4a.451.451,0,0,0-.3-.3c-.2-.1-.3,0-.4,0s-.2.1-.2.3l-3.7,11.4H58.4a.758.758,0,0,0-.4.2.6.6,0,0,0-.1.4c0,.1,0,.2.2.3l9.7,7-3.7,11.3a.6.6,0,0,0,.1.4.377.377,0,0,0,.6.1Z" fill="#fafafa"/>
    </g>
  </g>
</svg>
