<svg xmlns="http://www.w3.org/2000/svg" xmlns:xlink="http://www.w3.org/1999/xlink" width="96" height="96" viewBox="0 0 96 96">
  <defs>
    <clipPath id="clip-path">
      <rect id="사각형_581" data-name="사각형 581" width="5.222" height="5.222" fill="#767676"/>
    </clipPath>
    <clipPath id="clip-path-2">
      <rect id="사각형_576" data-name="사각형 576" width="40.772" height="40.772" fill="#fafafa"/>
    </clipPath>
    <clipPath id="clip-path-3">
      <rect id="사각형_581-2" data-name="사각형 581" width="6.514" height="6.514" fill="#fafafa"/>
    </clipPath>
    <clipPath id="clip-path-4">
      <rect id="사각형_581-3" data-name="사각형 581" width="3.765" height="3.765" fill="#fafafa"/>
    </clipPath>
    <clipPath id="clip-path-5">
      <rect id="사각형_581-4" data-name="사각형 581" width="6.247" height="6.247" fill="#fafafa"/>
    </clipPath>
  </defs>
  <g id="그룹_1482" data-name="그룹 1482" transform="translate(-244 -413)">
    <rect id="사각형_293" data-name="사각형 293" width="96" height="96" rx="10" transform="translate(244 413)" fill="#474747"/>
    <g id="그룹_1351" data-name="그룹 1351" transform="translate(268.646 480.449)">
      <g id="그룹_1349" data-name="그룹 1349" transform="translate(0 0)" clip-path="url(#clip-path)">
        <path id="패스_702" data-name="패스 702" d="M5.222,2.611a2.938,2.938,0,0,0-.824-.55,2.461,2.461,0,0,0-.756-.275L3.435,1.58A2.461,2.461,0,0,0,3.16.824,2.938,2.938,0,0,0,2.611,0a2.938,2.938,0,0,0-.55.824,2.461,2.461,0,0,0-.275.756l-.206.206a2.461,2.461,0,0,0-.756.275A2.938,2.938,0,0,0,0,2.611a2.938,2.938,0,0,0,.824.55,2.461,2.461,0,0,0,.756.275l.206.206a2.461,2.461,0,0,0,.275.756,2.938,2.938,0,0,0,.55.824A2.938,2.938,0,0,0,3.16,4.4a2.461,2.461,0,0,0,.275-.756l.206-.206A2.461,2.461,0,0,0,4.4,3.16a2.938,2.938,0,0,0,.824-.55" transform="translate(0 0)" fill="#767676"/>
      </g>
    </g>
    <g id="그룹_1377" data-name="그룹 1377">
      <g id="그룹_1345" data-name="그룹 1345" transform="translate(275.195 442.247)">
        <g id="그룹_1333" data-name="그룹 1333" clip-path="url(#clip-path-2)">
          <path id="패스_700" data-name="패스 700" d="M39.666,28.27A20.1,20.1,0,0,1,12.5,1.106.753.753,0,0,0,11.485.088a21.6,21.6,0,1,0,29.2,29.2.753.753,0,0,0-1.018-1.018M21.6,39.263A20.093,20.093,0,0,1,10.133,2.673,21.6,21.6,0,0,0,30.257,32.112h0A21.689,21.689,0,0,0,38.1,30.64a20.056,20.056,0,0,1-16.5,8.623" transform="translate(0 0)" fill="#fafafa"/>
        </g>
      </g>
      <g id="그룹_1363" data-name="그룹 1363" transform="translate(268 479.803)">
        <g id="그룹_1349-2" data-name="그룹 1349" transform="translate(0 0)" clip-path="url(#clip-path-3)">
          <path id="패스_702-2" data-name="패스 702" d="M6.514,3.257a3.665,3.665,0,0,0-1.028-.686,3.07,3.07,0,0,0-.943-.343l-.257-.257a3.07,3.07,0,0,0-.343-.943A3.665,3.665,0,0,0,3.257,0a3.665,3.665,0,0,0-.686,1.028,3.07,3.07,0,0,0-.343.943l-.257.257a3.07,3.07,0,0,0-.943.343A3.665,3.665,0,0,0,0,3.257a3.665,3.665,0,0,0,1.028.686,3.07,3.07,0,0,0,.943.343l.257.257a3.07,3.07,0,0,0,.343.943,3.665,3.665,0,0,0,.686,1.028,3.665,3.665,0,0,0,.686-1.028,3.07,3.07,0,0,0,.343-.943l.257-.257a3.07,3.07,0,0,0,.943-.343,3.665,3.665,0,0,0,1.028-.686" transform="translate(0 0)" fill="#fafafa"/>
        </g>
      </g>
      <g id="그룹_1364" data-name="그룹 1364" transform="translate(301.919 443.75)">
        <g id="그룹_1349-3" data-name="그룹 1349" transform="translate(0 0)" clip-path="url(#clip-path-4)">
          <path id="패스_702-3" data-name="패스 702" d="M3.765,1.882a2.119,2.119,0,0,0-.594-.4,1.775,1.775,0,0,0-.545-.2l-.149-.149a1.775,1.775,0,0,0-.2-.545A2.119,2.119,0,0,0,1.882,0a2.119,2.119,0,0,0-.4.594,1.775,1.775,0,0,0-.2.545l-.149.149a1.775,1.775,0,0,0-.545.2,2.119,2.119,0,0,0-.594.4,2.119,2.119,0,0,0,.594.4,1.775,1.775,0,0,0,.545.2l.149.149a1.775,1.775,0,0,0,.2.545,2.119,2.119,0,0,0,.4.594,2.119,2.119,0,0,0,.4-.594,1.775,1.775,0,0,0,.2-.545l.149-.149a1.775,1.775,0,0,0,.545-.2,2.119,2.119,0,0,0,.594-.4" transform="translate(0 0)" fill="#fafafa"/>
        </g>
      </g>
      <g id="그룹_1368" data-name="그룹 1368" transform="translate(294.169 436)">
        <g id="그룹_1349-4" data-name="그룹 1349" transform="translate(0 0)" clip-path="url(#clip-path-5)">
          <path id="패스_702-4" data-name="패스 702" d="M6.247,3.123a3.515,3.515,0,0,0-.986-.658,2.944,2.944,0,0,0-.9-.329L4.11,1.89a2.944,2.944,0,0,0-.329-.9A3.515,3.515,0,0,0,3.123,0a3.515,3.515,0,0,0-.658.986,2.944,2.944,0,0,0-.329.9l-.247.247a2.944,2.944,0,0,0-.9.329A3.515,3.515,0,0,0,0,3.123a3.515,3.515,0,0,0,.986.658,2.944,2.944,0,0,0,.9.329l.247.247a2.944,2.944,0,0,0,.329.9,3.515,3.515,0,0,0,.658.986,3.515,3.515,0,0,0,.658-.986,2.944,2.944,0,0,0,.329-.9l.247-.247a2.944,2.944,0,0,0,.9-.329,3.515,3.515,0,0,0,.986-.658" transform="translate(0 0)" fill="#fafafa"/>
        </g>
      </g>
    </g>
  </g>
</svg>
