<svg xmlns="http://www.w3.org/2000/svg" width="96" height="96" viewBox="0 0 96 96">
  <g id="그룹_1467" data-name="그룹 1467" transform="translate(-244 -297)">
    <rect id="사각형_127" data-name="사각형 127" width="96" height="96" rx="10" transform="translate(244 297)" fill="#fff" opacity="0.5"/>
    <g id="그룹_227" transform="translate(408.3 272.5)" opacity="0.5">
      <path id="패스_146" data-name="패스 146" d="M-124.4,92.5a.908.908,0,0,1-.7-.3.967.967,0,0,1,0-1.4l3.8-3.8h-1.6a.875.875,0,0,1-.9-.6,1.09,1.09,0,0,1,.2-1.1l5.5-5.5h-6.6a.875.875,0,0,1-.9-.6,1.09,1.09,0,0,1,.2-1.1l5.7-5.7a.967.967,0,0,1,1.4,0,.967.967,0,0,1,0,1.4l-4,4h6.6a.875.875,0,0,1,.9.6.913.913,0,0,1-.2,1.1l-5.5,5.5h1.6a.875.875,0,0,1,.9.6,1.09,1.09,0,0,1-.2,1.1l-5.5,5.5A.908.908,0,0,1-124.4,92.5Z"/>
      <path id="패스_147" data-name="패스 147" d="M-113.3,82.6a.908.908,0,0,1-.7-.3.967.967,0,0,1,0-1.4l3.2-3.2h-2.7a.875.875,0,0,1-.9-.6.913.913,0,0,1,.2-1.1l3.6-3.6a.967.967,0,0,1,1.4,0,.967.967,0,0,1,0,1.4l-1.9,1.9h2.7a.875.875,0,0,1,.9.6.913.913,0,0,1-.2,1.1l-4.9,4.9A.908.908,0,0,1-113.3,82.6Z"/>
      <path id="패스_148" data-name="패스 148" d="M-103.2,81a1,1,0,0,1-1-1,.945.945,0,0,1,1-1,8.28,8.28,0,0,0,8.3-8.3,8.344,8.344,0,0,0-8.3-8.3,6.448,6.448,0,0,0-2,.3,1.128,1.128,0,0,1-.8-.1c-.3-.1-.4-.4-.5-.6a9.517,9.517,0,0,0-9.3-7.5h0a9.461,9.461,0,0,0-9.4,8c-.1.3-.2.6-.5.7a.956.956,0,0,1-.9,0,7.973,7.973,0,0,0-3.4-.7,8.344,8.344,0,0,0-8.3,8.3,8.344,8.344,0,0,0,8.3,8.3,1,1,0,0,1,1,1,.945.945,0,0,1-1,1h0a10.35,10.35,0,0,1-10.3-10.3A10.285,10.285,0,0,1-130,60.5a10.588,10.588,0,0,1,3.1.5,11.552,11.552,0,0,1,11.1-8.5h0a11.748,11.748,0,0,1,11,8.1,8.083,8.083,0,0,1,1.6-.1A10.35,10.35,0,0,1-92.9,70.8,10.4,10.4,0,0,1-103.2,81Z"/>
    </g>
  </g>
</svg>
