<svg xmlns="http://www.w3.org/2000/svg" width="96" height="96" viewBox="0 0 96 96">
  <g id="그룹_1463" data-name="그룹 1463" transform="translate(-132 -185)">
    <rect id="사각형_124" data-name="사각형 124" width="96" height="96" rx="10" transform="translate(132 185)" fill="#fff" opacity="0.5"/>
    <g id="그룹_139" transform="translate(141.8 142.4)" opacity="0.5">
      <path id="패스_118" data-name="패스 118" d="M38.4,103.2A12.5,12.5,0,1,1,50.9,90.7,12.5,12.5,0,0,1,38.4,103.2Zm0-23A10.5,10.5,0,1,0,48.9,90.7,10.5,10.5,0,0,0,38.4,80.2Z"/>
      <path id="패스_119" data-name="패스 119" d="M38.4,76a.945.945,0,0,1-1-1V68.6a1,1,0,0,1,2,0V75A1.075,1.075,0,0,1,38.4,76Z"/>
      <path id="패스_120" data-name="패스 120" d="M38.4,113.9a.945.945,0,0,1-1-1v-6.4a1,1,0,0,1,2,0v6.4A1,1,0,0,1,38.4,113.9Z"/>
      <path id="패스_121" data-name="패스 121" d="M60.5,91.7H54.1a1,1,0,0,1,0-2h6.4a1,1,0,0,1,0,2Z"/>
      <path id="패스_122" data-name="패스 122" d="M22.6,91.7H16.2a1,1,0,0,1,0-2h6.4a.945.945,0,0,1,1,1A1,1,0,0,1,22.6,91.7Z"/>
      <path id="패스_123" data-name="패스 123" d="M27.2,80.6a.908.908,0,0,1-.7-.3L22,75.8a.99.99,0,0,1,1.4-1.4l4.5,4.5a.967.967,0,0,1,0,1.4A.908.908,0,0,1,27.2,80.6Z"/>
      <path id="패스_124" data-name="패스 124" d="M54,107.4a.908.908,0,0,1-.7-.3l-4.5-4.5a.99.99,0,1,1,1.4-1.4l4.5,4.5a.967.967,0,0,1,0,1.4A.908.908,0,0,1,54,107.4Z"/>
      <path id="패스_125" data-name="패스 125" d="M49.5,80.6a.908.908,0,0,1-.7-.3.967.967,0,0,1,0-1.4l4.5-4.5a.99.99,0,0,1,1.4,1.4l-4.5,4.5A.908.908,0,0,1,49.5,80.6Z"/>
      <path id="패스_126" data-name="패스 126" d="M22.7,107.4a.908.908,0,0,1-.7-.3.967.967,0,0,1,0-1.4l4.5-4.5a.99.99,0,1,1,1.4,1.4l-4.5,4.5A1.08,1.08,0,0,1,22.7,107.4Z"/>
    </g>
  </g>
</svg>
