<svg xmlns="http://www.w3.org/2000/svg" width="96" height="96" viewBox="0 0 96 96">
  <g id="그룹_1462" data-name="그룹 1462" transform="translate(-20 -185)">
    <rect id="사각형_108" data-name="사각형 108" width="96" height="96" rx="10" transform="translate(20 185)" fill="#fff" opacity="0.5"/>
    <g id="날_ᅵ1" data-name="날씨1" transform="translate(41 206)" opacity="0.5">
      <path id="패스_83" d="M53.2,23.7" fill="none" stroke="#000" stroke-linecap="round" stroke-linejoin="round" stroke-width="2"/>
      <g id="그룹_228" transform="translate(0 -1)">
        <path id="패스_103" data-name="패스 103" d="M33,19.9a6.7,6.7,0,1,1,6.7-6.7A6.7,6.7,0,0,1,33,19.9ZM33,8a5.2,5.2,0,1,0,5.2,5.2A5.228,5.228,0,0,0,33,8Z"/>
        <path id="패스_104" data-name="패스 104" d="M32.8,5.8a.849.849,0,0,1-.8-.7V1.8a.752.752,0,0,1,1.5-.1L33.6,5a.789.789,0,0,1-.8.8Z"/>
        <path id="패스_105" data-name="패스 105" d="M33.2,25.5a.849.849,0,0,1-.8-.7l-.1-3.3a.752.752,0,0,1,1.5-.1l.1,3.3a.773.773,0,0,1-.7.8Z"/>
        <path id="패스_106" data-name="패스 106" d="M44.4,13.8h0l-3.3-.1a.773.773,0,0,1-.7-.8.713.713,0,0,1,.8-.7h0l3.2.1a.773.773,0,0,1,.7.8A.684.684,0,0,1,44.4,13.8Z"/>
        <path id="패스_107" data-name="패스 107" d="M21.5,14.3a.849.849,0,0,1-.8-.7.773.773,0,0,1,.7-.8l3.2-.1h0a.849.849,0,0,1,.8.7.773.773,0,0,1-.7.8l-3.2.1Z"/>
        <path id="패스_108" data-name="패스 108" d="M27,8.4a.764.764,0,0,1-.5-.2L24.1,5.8a.778.778,0,0,1,1.1-1.1l2.4,2.4a.785.785,0,0,1,0,1.1A1.421,1.421,0,0,1,27,8.4Z"/>
        <path id="패스_109" data-name="패스 109" d="M41.2,21.9a.764.764,0,0,1-.5-.2l-2.4-2.2a.781.781,0,0,1,1-1.2l2.4,2.2a.909.909,0,0,1,.1,1.1A.864.864,0,0,1,41.2,21.9Z"/>
        <path id="패스_110" data-name="패스 110" d="M38.6,8.1a.764.764,0,0,1-.5-.2.785.785,0,0,1,0-1.1l2.2-2.3a.778.778,0,1,1,1.1,1.1L39.2,7.9A1.421,1.421,0,0,1,38.6,8.1Z"/>
        <path id="패스_111" data-name="패스 111" d="M25.1,22.3a.764.764,0,0,1-.5-.2.909.909,0,0,1-.1-1.1l2.2-2.4a.781.781,0,1,1,1.2,1L25.7,22A.864.864,0,0,1,25.1,22.3Z"/>
      </g>
      <path id="패스_112" data-name="패스 112" d="M10.3,42.4h0A10.285,10.285,0,0,1,0,32.1a.945.945,0,0,1,1-1,.945.945,0,0,1,1,1,8.28,8.28,0,0,0,8.3,8.3,1,1,0,0,1,0,2Z"/>
      <path id="패스_113" data-name="패스 113" d="M1,33.1H1a1,1,0,0,1-1-1A10.35,10.35,0,0,1,10.3,21.8a16.413,16.413,0,0,1,2.3.2,5.831,5.831,0,0,1,1.5-4.6c1.5-1.6,4.1-2.3,7.4-1.9a1.172,1.172,0,0,1,.9,1.1,1.172,1.172,0,0,1-1.1.9c-2.6-.3-4.6.1-5.6,1.3-.9,1-1.2,2.5-.8,4.5a1.022,1.022,0,0,1-.4,1,.92.92,0,0,1-1,.1,8.149,8.149,0,0,0-3.1-.6,8.28,8.28,0,0,0-8.3,8.3A1.09,1.09,0,0,1,1,33.1Z"/>
      <path id="패스_114" data-name="패스 114" d="M38.1,42.4a1,1,0,0,1-1-1,.945.945,0,0,1,1-1,8.28,8.28,0,0,0,8.3-8.3c0-4.6-2.8-7.4-7.4-7.4a1,1,0,0,1,0-2c5.6,0,9.4,3.8,9.4,9.4A10.285,10.285,0,0,1,38.1,42.4Z"/>
      <path id="패스_115" data-name="패스 115" d="M12,51.9a.908.908,0,0,1-.7-.3.967.967,0,0,1,0-1.4L26.1,35.5a.99.99,0,1,1,1.4,1.4L12.7,51.6A.908.908,0,0,1,12,51.9Z"/>
      <path id="패스_116" data-name="패스 116" d="M20,52.8a.908.908,0,0,1-.7-.3.967.967,0,0,1,0-1.4l7.6-7.6a.99.99,0,1,1,1.4,1.4l-7.6,7.6A.908.908,0,0,1,20,52.8Z"/>
      <path id="패스_117" data-name="패스 117" d="M29.5,43.2a.908.908,0,0,1-.7-.3.967.967,0,0,1,0-1.4l2.4-2.3a.99.99,0,0,1,1.4,1.4l-2.4,2.3A1.08,1.08,0,0,1,29.5,43.2Z"/>
    </g>
  </g>
</svg>
