<svg xmlns="http://www.w3.org/2000/svg" xmlns:xlink="http://www.w3.org/1999/xlink" width="96" height="96" viewBox="0 0 96 96">
  <defs>
    <clipPath id="clip-path">
      <rect id="사각형_624" data-name="사각형 624" width="47.574" height="37.179" transform="translate(0 0)" fill="#fafafa"/>
    </clipPath>
    <clipPath id="clip-path-2">
      <rect id="사각형_625" data-name="사각형 625" width="25.627" height="6.23" transform="translate(11.187 30.949)" fill="#fafafa"/>
    </clipPath>
  </defs>
  <g id="그룹_1480" data-name="그룹 1480" transform="translate(-20 -413)">
    <rect id="사각형_292" data-name="사각형 292" width="96" height="96" rx="10" transform="translate(20 413)" fill="#474747"/>
    <g id="그룹_1459" data-name="그룹 1459" transform="translate(44 442)">
      <g id="그룹_1453" data-name="그룹 1453">
        <g id="그룹_1452" data-name="그룹 1452" clip-path="url(#clip-path)">
          <path id="패스_790" data-name="패스 790" d="M37.474,28.69h0a1,1,0,0,1-1-1,.945.945,0,0,1,.887-1,1.064,1.064,0,0,1,.113,0,8.3,8.3,0,1,0,0-16.6,7.619,7.619,0,0,0-2.1.3,1.121,1.121,0,0,1-.8-.1,1.459,1.459,0,0,1-.5-.6,9.645,9.645,0,0,0-18.9.4c-.1.3-.2.6-.5.7a.954.954,0,0,1-.9,0A8.326,8.326,0,1,0,6.887,25.951l.087.039a7.964,7.964,0,0,0,3.4.7,1,1,0,0,1,0,2,10.587,10.587,0,0,1-4.2-.9,10.316,10.316,0,0,1,7.2-19.3,11.581,11.581,0,0,1,22.2-.4,9.754,9.754,0,0,1,1.7-.1,10.351,10.351,0,0,1,10.3,10.3,10.461,10.461,0,0,1-3,7.3,9.536,9.536,0,0,1-7.1,3.1" fill="#fafafa"/>
        </g>
      </g>
      <g id="그룹_1455" data-name="그룹 1455" transform="translate(0 1)">
        <g id="그룹_1454" data-name="그룹 1454" clip-path="url(#clip-path-2)">
          <path id="패스_791" data-name="패스 791" d="M12.335,30.949A1.149,1.149,0,1,1,11.187,32.1a1.148,1.148,0,0,1,1.148-1.149" fill="#fafafa"/>
          <path id="패스_792" data-name="패스 792" d="M24,30.949A1.149,1.149,0,1,1,22.851,32.1,1.148,1.148,0,0,1,24,30.949" fill="#fafafa"/>
          <path id="패스_793" data-name="패스 793" d="M35.665,30.949a1.149,1.149,0,1,1-1.149,1.15h0a1.149,1.149,0,0,1,1.149-1.149" fill="#fafafa"/>
          <path id="패스_794" data-name="패스 794" d="M29.833,34.881a1.149,1.149,0,1,1-1.149,1.15h0a1.149,1.149,0,0,1,1.149-1.149" fill="#fafafa"/>
          <path id="패스_795" data-name="패스 795" d="M18.167,34.881a1.149,1.149,0,1,1-1.149,1.149,1.148,1.148,0,0,1,1.149-1.149" fill="#fafafa"/>
        </g>
      </g>
      <g id="그룹_1457" data-name="그룹 1457">
        <g id="그룹_1456" data-name="그룹 1456" clip-path="url(#clip-path)">
          <line id="선_155" data-name="선 155" x2="27.742" y2="0.032" transform="translate(9.751 27.667)" fill="#79797a"/>
          <path id="패스_796" data-name="패스 796" d="M0,0,27.742.032" transform="translate(9.751 27.667)" fill="none" stroke="#fafafa" stroke-width="2"/>
        </g>
      </g>
    </g>
  </g>
</svg>
