<svg xmlns="http://www.w3.org/2000/svg" width="96" height="96" viewBox="0 0 96 96">
  <g id="그룹_1472" data-name="그룹 1472" transform="translate(-132 -522)">
    <rect id="사각형_322" data-name="사각형 322" width="96" height="96" rx="10" transform="translate(132 522)" fill="#fff" opacity="0.5"/>
    <g id="그룹_362" transform="translate(43.2 418.9)" opacity="0.5">
      <path id="패스_216" data-name="패스 216" d="M149.9,161.6a1,1,0,0,1,0-2,8.3,8.3,0,0,0,0-16.6,6.448,6.448,0,0,0-2,.3,1.128,1.128,0,0,1-.8-.1,1.47,1.47,0,0,1-.5-.6,9.517,9.517,0,0,0-9.3-7.5h0a9.461,9.461,0,0,0-9.4,8c-.1.3-.2.6-.5.7a.956.956,0,0,1-.9,0,7.973,7.973,0,0,0-3.4-.7,8.3,8.3,0,1,0,0,16.6,1,1,0,1,1,0,2,10.3,10.3,0,1,1,0-20.6,10.588,10.588,0,0,1,3.1.5,11.552,11.552,0,0,1,11.1-8.5h0a11.748,11.748,0,0,1,11,8.1,8.083,8.083,0,0,1,1.6-.1,10.25,10.25,0,1,1,0,20.5Z"/>
      <path id="패스_100" d="M135.7,160.5a2.41,2.41,0,0,1,.7,1.8c0,3.1-3.7,5.6-8.4,5.6H115.3c-.7,0-1.2-.4-1.2-.8s.6-.8,1.2-.8H128c3.2,0,5.9-1.8,5.9-4a1.284,1.284,0,0,0-.4-1,3.745,3.745,0,0,0-3.9-.7l-1.3.5c-.9.4-2-.2-1.8-.9.8-2.8,4.5-4.8,8.8-4.8h.5c4.6,0,8.7,2,10.2,4.9l1.1,2.2c1.2,2.3,4.3,3.8,7.9,3.8.7,0,1.2.4,1.2.8s-.6.8-1.2.8c-4.6,0-8.7-2-10.2-4.9l-1.1-2.2c-1.2-2.3-4.3-3.8-7.9-3.8h-.5a7.5,7.5,0,0,0-5.1,1.7A6.634,6.634,0,0,1,135.7,160.5Z"/>
    </g>
  </g>
</svg>
