<svg xmlns="http://www.w3.org/2000/svg" width="96" height="96" viewBox="0 0 96 96">
  <g id="그룹_1465" data-name="그룹 1465" transform="translate(-20 -297)">
    <rect id="사각형_128" data-name="사각형 128" width="96" height="96" rx="10" transform="translate(20 297)" fill="#fff" opacity="0.5"/>
    <g id="그룹_143" transform="translate(119.9 262.3)" opacity="0.5">
      <path id="패스_133" data-name="패스 133" d="M-68,91.2h-.6A10.285,10.285,0,0,1-78.9,80.9,10.285,10.285,0,0,1-68.6,70.6h0a9.928,9.928,0,0,1,3,.5,11.493,11.493,0,0,1,11.2-8.4h0a11.616,11.616,0,0,1,11.1,8.1,8.6,8.6,0,0,1,1.6-.1A10.285,10.285,0,0,1-31.4,81a.945.945,0,0,1-1,1,.945.945,0,0,1-1-1,8.28,8.28,0,0,0-8.3-8.3,7.612,7.612,0,0,0-2.1.3,1.128,1.128,0,0,1-.8-.1c-.3-.1-.4-.4-.5-.6a9.545,9.545,0,0,0-9.4-7.5h0a9.564,9.564,0,0,0-9.5,8c-.1.3-.2.6-.5.7a.956.956,0,0,1-.9,0,7.973,7.973,0,0,0-3.4-.7h0a8.28,8.28,0,0,0-8.3,8.3,8.28,8.28,0,0,0,8.3,8.3h.6a.945.945,0,0,1,1,1C-67.2,91-67.5,91.2-68,91.2Z"/>
      <path id="패스_134" data-name="패스 134" d="M-39.8,91.2H-68a.945.945,0,0,1-1-1,.945.945,0,0,1,1-1h28.2a4.168,4.168,0,0,0,3.1-1.1,3.9,3.9,0,0,0,1-2.5v-.1a4.742,4.742,0,0,0-.9-3.2,4.168,4.168,0,0,0-3.1-1.1,4.421,4.421,0,0,0-3.2,1.1,4.986,4.986,0,0,0-1,3.2,1.172,1.172,0,0,1-.9,1.1,1.172,1.172,0,0,1-1.1-.9A6.947,6.947,0,0,1-44.4,81a6.1,6.1,0,0,1,4.7-1.8A5.738,5.738,0,0,1-35.1,81a6.2,6.2,0,0,1,1.4,4.7,5.831,5.831,0,0,1-1.6,3.9A5.9,5.9,0,0,1-39.8,91.2Z"/>
      <path id="패스_135" data-name="패스 135" d="M-29.2,94.3H-34a.945.945,0,0,1-1-1,.945.945,0,0,1,1-1h5a1.382,1.382,0,0,0,1.1-.6,1.746,1.746,0,0,0,.4-1.2A2.07,2.07,0,0,0-28,89a3.724,3.724,0,0,0-2.2-.8h0a1,1,0,0,1-1-1,.945.945,0,0,1,1-1,5.818,5.818,0,0,1,3.7,1.3,3.928,3.928,0,0,1,1.1,2.8,3.66,3.66,0,0,1-.8,2.6,3.825,3.825,0,0,1-2.5,1.3A1.087,1.087,0,0,1-29.2,94.3Z"/>
      <path id="패스_136" data-name="패스 136" d="M-41.5,101.7a1,1,0,0,1-1-1,.945.945,0,0,1,1-1h0c.1,0,3.3-.2,3.3-2.4s-3.1-2.2-3.3-2.2H-62a.945.945,0,0,1-1-1,.945.945,0,0,1,1-1h20.5c1.8,0,5.2.9,5.2,4.2.1,3.3-3.4,4.3-5.2,4.4Z"/>
    </g>
  </g>
</svg>
