<svg xmlns="http://www.w3.org/2000/svg" width="96" height="96" viewBox="0 0 96 96">
  <g id="그룹_1466" data-name="그룹 1466" transform="translate(-132 -297)">
    <rect id="사각형_126" data-name="사각형 126" width="96" height="96" rx="10" transform="translate(132 297)" fill="#fff" opacity="0.5"/>
    <g id="그룹_160" transform="translate(43.7 245.8)" opacity="0.5">
      <path id="패스_137" data-name="패스 137" d="M136.5,86.6a.945.945,0,0,1-1-1V79.2a1,1,0,0,1,2,0v6.4A.945.945,0,0,1,136.5,86.6Z"/>
      <path id="패스_138" data-name="패스 138" d="M158.7,102.4h-6.4a1,1,0,0,1,0-2h6.4a1,1,0,0,1,0,2Z"/>
      <path id="패스_139" data-name="패스 139" d="M120.7,102.4h-6.4a1,1,0,1,1,0-2h6.4a1,1,0,0,1,0,2Z"/>
      <path id="패스_140" data-name="패스 140" d="M125.4,91.2a.908.908,0,0,1-.7-.3l-4.5-4.5a.99.99,0,1,1,1.4-1.4l4.5,4.5a.967.967,0,0,1,0,1.4A1.08,1.08,0,0,1,125.4,91.2Z"/>
      <path id="패스_141" data-name="패스 141" d="M147.7,91.2a.908.908,0,0,1-.7-.3.967.967,0,0,1,0-1.4l4.5-4.5a.99.99,0,0,1,1.4,1.4l-4.5,4.5A1.08,1.08,0,0,1,147.7,91.2Z"/>
      <g id="그룹_159">
        <path id="패스_142" data-name="패스 142" d="M126.6,108.2a1.193,1.193,0,0,1-.9-.5,12.485,12.485,0,1,1,21.5,0,1.03,1.03,0,1,1-1.8-1A10.513,10.513,0,0,0,127.3,96a10.755,10.755,0,0,0,0,10.7,1.012,1.012,0,0,1-.4,1.4C127,108.1,126.8,108.2,126.6,108.2Z"/>
      </g>
      <path id="패스_143" data-name="패스 143" d="M158.7,112H114.3a1,1,0,1,1,0-2h44.4a1,1,0,0,1,0,2Z"/>
      <path id="패스_144" data-name="패스 144" d="M157.6,115.9H124.2a1,1,0,0,1,0-2h33.4a.945.945,0,0,1,1,1A1,1,0,0,1,157.6,115.9Z"/>
      <path id="패스_145" data-name="패스 145" d="M141,119.7H119a1,1,0,0,1,0-2h22a1,1,0,0,1,0,2Z"/>
    </g>
  </g>
</svg>
