<svg xmlns="http://www.w3.org/2000/svg" width="96" height="96" viewBox="0 0 96 96">
  <g id="그룹_1476" data-name="그룹 1476" transform="translate(-244 -185)">
    <rect id="사각형_125" data-name="사각형 125" width="96" height="96" rx="10" transform="translate(244 185)" fill="#474747"/>
    <g id="그룹_140" transform="translate(253.191 199.776)">
      <path id="패스_127" data-name="패스 127" d="M25.1,42.9a10.235,10.235,0,0,1-4.2-.9,9.781,9.781,0,0,1-5.4-5.7A10.348,10.348,0,0,1,28.2,22.7a11.58,11.58,0,0,1,22.2-.4,9.7,9.7,0,0,1,1.7-.1A10.35,10.35,0,0,1,62.4,32.5a10.459,10.459,0,0,1-3,7.3,10.282,10.282,0,0,1-7.3,3h0a1,1,0,0,1-1-1,.945.945,0,0,1,1-1h0A8.674,8.674,0,0,0,58,38.4a8.584,8.584,0,0,0,2.5-5.9,8.28,8.28,0,0,0-8.3-8.3h0a7.613,7.613,0,0,0-2.1.3,1.128,1.128,0,0,1-.8-.1,1.47,1.47,0,0,1-.5-.6,9.687,9.687,0,0,0-11.5-7.3A9.5,9.5,0,0,0,30,24.2c-.1.3-.2.6-.5.7a.956.956,0,0,1-.9,0,8.326,8.326,0,1,0-6.8,15.2,7.973,7.973,0,0,0,3.4.7.945.945,0,0,1,1,1A1.182,1.182,0,0,1,25.1,42.9Z" fill="#fafafa"/>
      <path id="패스_128" data-name="패스 128" d="M27.2,45.7a.908.908,0,0,1-.7-.3.967.967,0,0,1,0-1.4l5.7-5.7a.99.99,0,0,1,1.4,1.4l-5.7,5.7A.908.908,0,0,1,27.2,45.7Z" fill="#fafafa"/>
      <path id="패스_129" data-name="패스 129" d="M28.5,52.4a.908.908,0,0,1-.7-.3.967.967,0,0,1,0-1.4L42.5,36a.99.99,0,0,1,1.4,1.4L29.2,52.1A1.08,1.08,0,0,1,28.5,52.4Z" fill="#fafafa"/>
      <path id="패스_130" data-name="패스 130" d="M36.4,53.3a.908.908,0,0,1-.7-.3.967.967,0,0,1,0-1.4L43.3,44a.99.99,0,1,1,1.4,1.4L37.1,53A1.08,1.08,0,0,1,36.4,53.3Z" fill="#fafafa"/>
      <path id="패스_131" data-name="패스 131" d="M45.9,43.8a.908.908,0,0,1-.7-.3.967.967,0,0,1,0-1.4l2.4-2.4A.99.99,0,0,1,49,41.1l-2.4,2.4A.908.908,0,0,1,45.9,43.8Z" fill="#fafafa"/>
      <path id="패스_132" data-name="패스 132" d="M22.7,50.2a.908.908,0,0,1-.7-.3.967.967,0,0,1,0-1.4l2.4-2.4a.99.99,0,0,1,1.4,1.4l-2.4,2.4A1.08,1.08,0,0,1,22.7,50.2Z" fill="#fafafa"/>
    </g>
  </g>
</svg>
