<svg xmlns="http://www.w3.org/2000/svg" width="96" height="96" viewBox="0 0 96 96">
  <g id="그룹_1483" data-name="그룹 1483" transform="translate(-20 -522)">
    <rect id="사각형_321" data-name="사각형 321" width="96" height="96" rx="10" transform="translate(20 522)" fill="#474747"/>
    <g id="그룹_363" transform="translate(-144.6 443)">
      <path id="패스_101" d="M212.8,139.1a2.41,2.41,0,0,1,.7,1.8c0,3.1-3.7,5.6-8.4,5.6H192.4c-.7,0-1.2-.4-1.2-.8s.6-.8,1.2-.8h12.7c3.2,0,5.9-1.8,5.9-4a1.284,1.284,0,0,0-.4-1,3.745,3.745,0,0,0-3.9-.7l-1.3.5c-.9.4-2-.2-1.8-.9.8-2.8,4.5-4.8,8.8-4.8h.5c4.6,0,8.7,2,10.2,4.9l1.1,2.2c1.2,2.3,4.3,3.8,7.9,3.8.7,0,1.2.4,1.2.8s-.6.8-1.2.8c-4.6,0-8.7-2-10.2-4.9l-1.1-2.2c-1.2-2.3-4.3-3.8-7.9-3.8h-.5a7.5,7.5,0,0,0-5.1,1.7A6.431,6.431,0,0,1,212.8,139.1Z" fill="#fafafa"/>
      <path id="패스_210" data-name="패스 210" d="M212.8,114.4a.945.945,0,0,1-1-1V107a1,1,0,0,1,2,0v6.4A1,1,0,0,1,212.8,114.4Z" fill="#fafafa"/>
      <path id="패스_211" data-name="패스 211" d="M234.9,130.2h-6.4a1,1,0,0,1,0-2h6.4a1,1,0,0,1,0,2Z" fill="#fafafa"/>
      <path id="패스_212" data-name="패스 212" d="M197,130.2h-6.4a1,1,0,0,1,0-2H197a.945.945,0,0,1,1,1A1,1,0,0,1,197,130.2Z" fill="#fafafa"/>
      <path id="패스_213" data-name="패스 213" d="M201.6,119a.908.908,0,0,1-.7-.3l-4.5-4.5a.99.99,0,0,1,1.4-1.4l4.5,4.5a.967.967,0,0,1,0,1.4A.908.908,0,0,1,201.6,119Z" fill="#fafafa"/>
      <path id="패스_214" data-name="패스 214" d="M223.9,119a.908.908,0,0,1-.7-.3.967.967,0,0,1,0-1.4l4.5-4.5a.99.99,0,0,1,1.4,1.4l-4.5,4.5A.908.908,0,0,1,223.9,119Z" fill="#fafafa"/>
      <g id="그룹_159">
        <path id="패스_215" data-name="패스 215" d="M202.8,136a1.193,1.193,0,0,1-.9-.5,12.507,12.507,0,1,1,21.5-.1,1.107,1.107,0,0,1-1.4.4,1.075,1.075,0,0,1-.4-1.4,10.49,10.49,0,0,0-11.7-15.5,10.37,10.37,0,0,0-6.4,4.8,10.756,10.756,0,0,0,0,10.7,1.012,1.012,0,0,1-.4,1.4C203.2,136,203,136,202.8,136Z" fill="#fafafa"/>
      </g>
    </g>
  </g>
</svg>
