<?xml version="1.0" encoding="utf-8"?>
<!-- Generator: Adobe Illustrator 25.0.1, SVG Export Plug-In . SVG Version: 6.00 Build 0)  -->
<svg version="1.1" id="Layer_1" xmlns="http://www.w3.org/2000/svg" xmlns:xlink="http://www.w3.org/1999/xlink" x="0px" y="0px"
	 viewBox="0 0 138 138" style="enable-background:new 0 0 138 138;" xml:space="preserve">
<style type="text/css">
	.st0{opacity:0.5;}
	.st1{fill:none;stroke:#000000;stroke-width:2;stroke-linecap:round;stroke-linejoin:round;}
	.st2{fill:#767676;}
	.st3{opacity:0;}
	.st4{fill:#B3B3B3;}
	.st5{fill:#878789;}
	.st6{clip-path:url(#SVGID_2_);}
	.st7{fill-rule:evenodd;clip-rule:evenodd;fill:#ECECEC;}
	.st8{clip-path:url(#SVGID_4_);}
	.st9{fill:#231F20;}
	.st10{clip-path:url(#SVGID_6_);}
	.st11{fill:#79797A;}
	.st12{fill:none;}
	.st13{fill:#FAFAFA;}
	.st14{clip-path:url(#SVGID_8_);}
	.st15{clip-path:url(#SVGID_10_);}
	.st16{clip-path:url(#SVGID_12_);}
	.st17{clip-path:url(#SVGID_14_);}
</style>
<g id="그룹_143" transform="translate(119.9 262.3)">
	<path id="패스_133" class="st13" d="M-67-184.8h-0.6c-5.68,0.01-10.29-4.59-10.3-10.27c0-0.01,0-0.02,0-0.03
		c-0.01-5.68,4.59-10.29,10.27-10.3c0.01,0,0.02,0,0.03,0l0,0c1.02,0.01,2.03,0.18,3,0.5c1.4-5.01,6-8.46,11.2-8.4l0,0
		c5.07-0.01,9.56,3.27,11.1,8.1c0.53-0.08,1.06-0.12,1.6-0.1c5.68-0.01,10.29,4.59,10.3,10.27c0,0.01,0,0.02,0,0.03
		c0.03,0.52-0.37,0.97-0.89,1c-0.04,0-0.08,0-0.11,0c-0.52,0.03-0.97-0.37-1-0.89c0-0.04,0-0.08,0-0.11
		c0.01-4.57-3.69-8.29-8.26-8.3c-0.01,0-0.03,0-0.04,0c-0.71,0-1.42,0.1-2.1,0.3c-0.27,0.07-0.55,0.03-0.8-0.1
		c-0.3-0.1-0.4-0.4-0.5-0.6c-0.97-4.41-4.89-7.54-9.4-7.5l0,0c-4.7-0.03-8.73,3.36-9.5,8c-0.1,0.3-0.2,0.6-0.5,0.7
		c-0.28,0.15-0.62,0.15-0.9,0c-1.07-0.48-2.23-0.72-3.4-0.7l0,0c-4.57-0.01-8.29,3.69-8.3,8.26c0,0.01,0,0.03,0,0.04
		c-0.01,4.57,3.69,8.29,8.26,8.3c0.01,0,0.03,0,0.04,0h0.6c0.52-0.03,0.97,0.37,1,0.89c0,0.04,0,0.08,0,0.11
		C-66.2-185-66.5-184.8-67-184.8z"/>
	<path id="패스_134" class="st13" d="M-38.8-184.8H-67c-0.52,0.03-0.97-0.37-1-0.89c0-0.04,0-0.08,0-0.11
		c-0.03-0.52,0.37-0.97,0.89-1c0.04,0,0.08,0,0.11,0h28.2c1.14,0.07,2.26-0.32,3.1-1.1c0.62-0.69,0.97-1.57,1-2.5v-0.1
		c0.1-1.14-0.22-2.28-0.9-3.2c-0.84-0.78-1.96-1.17-3.1-1.1c-1.17-0.07-2.32,0.32-3.2,1.1c-0.69,0.92-1.05,2.05-1,3.2
		c-0.02,0.53-0.39,0.98-0.9,1.1c-0.53-0.02-0.98-0.39-1.1-0.9c-0.09-1.7,0.44-3.37,1.5-4.7c1.23-1.25,2.95-1.9,4.7-1.8
		c1.73-0.12,3.42,0.54,4.6,1.8c1.09,1.31,1.6,3.01,1.4,4.7c-0.03,1.45-0.6,2.85-1.6,3.9C-35.51-185.26-37.14-184.68-38.8-184.8z"/>
	<path id="패스_135" class="st13" d="M-28.2-181.7H-33c-0.52,0.03-0.97-0.37-1-0.89c0-0.04,0-0.08,0-0.11
		c-0.03-0.52,0.37-0.97,0.89-1c0.04,0,0.08,0,0.11,0h5c0.44-0.01,0.85-0.24,1.1-0.6c0.28-0.34,0.42-0.76,0.4-1.2
		c0.04-0.55-0.14-1.09-0.5-1.5c-0.63-0.5-1.4-0.78-2.2-0.8l0,0c-0.55,0-1-0.45-1-1c-0.03-0.52,0.37-0.97,0.89-1
		c0.04,0,0.08,0,0.11,0c1.35-0.01,2.65,0.45,3.7,1.3c0.72,0.75,1.12,1.76,1.1,2.8c0.08,0.94-0.21,1.87-0.8,2.6
		c-0.64,0.74-1.53,1.2-2.5,1.3C-27.86-181.73-28.03-181.69-28.2-181.7z"/>
	<path id="패스_136" class="st13" d="M-40.5-174.3c-0.55,0-1-0.45-1-1c-0.03-0.52,0.37-0.97,0.89-1c0.04,0,0.08,0,0.11,0l0,0
		c0.1,0,3.3-0.2,3.3-2.4c0-2.2-3.1-2.2-3.3-2.2H-61c-0.52,0.03-0.97-0.37-1-0.89c0-0.04,0-0.08,0-0.11c-0.03-0.52,0.37-0.97,0.89-1
		c0.04,0,0.08,0,0.11,0h20.5c1.8,0,5.2,0.9,5.2,4.2C-35.2-175.4-38.7-174.4-40.5-174.3z"/>
</g>
</svg>
