<?xml version="1.0" encoding="utf-8"?>
<!-- Generator: Adobe Illustrator 25.0.1, SVG Export Plug-In . SVG Version: 6.00 Build 0)  -->
<svg version="1.1" id="Layer_1" xmlns="http://www.w3.org/2000/svg" xmlns:xlink="http://www.w3.org/1999/xlink" x="0px" y="0px"
	 viewBox="0 0 138 138" style="enable-background:new 0 0 138 138;" xml:space="preserve">
<style type="text/css">
	.st0{opacity:0.5;}
	.st1{fill:none;stroke:#000000;stroke-width:2;stroke-linecap:round;stroke-linejoin:round;}
	.st2{fill:#767676;}
	.st3{opacity:0;}
	.st4{fill:#B3B3B3;}
	.st5{fill:#878789;}
	.st6{clip-path:url(#SVGID_2_);}
	.st7{fill-rule:evenodd;clip-rule:evenodd;fill:#ECECEC;}
	.st8{clip-path:url(#SVGID_4_);}
	.st9{fill:#231F20;}
	.st10{clip-path:url(#SVGID_6_);}
	.st11{fill:#79797A;}
	.st12{fill:none;}
	.st13{fill:#FAFAFA;}
	.st14{clip-path:url(#SVGID_8_);}
	.st15{clip-path:url(#SVGID_10_);}
	.st16{clip-path:url(#SVGID_12_);}
	.st17{clip-path:url(#SVGID_14_);}
</style>
<path id="패스_144" class="st13" d="M90.3,85.7H56.9c-0.55,0-1-0.45-1-1s0.45-1,1-1h33.4c0.52-0.03,0.97,0.37,1,0.89
	c0,0.04,0,0.08,0,0.11C91.3,85.25,90.85,85.7,90.3,85.7z"/>
<path id="패스_145" class="st13" d="M73.7,89.5h-22c-0.55,0-1-0.45-1-1s0.45-1,1-1h22c0.55,0,1,0.45,1,1S74.25,89.5,73.7,89.5z"/>
<g id="그룹_1461">
	<path id="패스_137" class="st13" d="M69.2,56.4c-0.52,0.03-0.97-0.37-1-0.89c0-0.04,0-0.08,0-0.11V49c0-0.55,0.45-1,1-1
		s1,0.45,1,1v6.4c0.03,0.52-0.37,0.97-0.89,1C69.28,56.4,69.24,56.4,69.2,56.4z"/>
	<path id="패스_138" class="st13" d="M91.4,72.2H85c-0.55,0-1-0.45-1-1s0.45-1,1-1h6.4c0.55,0,1,0.45,1,1S91.95,72.2,91.4,72.2z"
		/>
	<path id="패스_139" class="st13" d="M53.4,72.2H47c-0.55,0-1-0.45-1-1s0.45-1,1-1h6.4c0.55,0,1,0.45,1,1S53.95,72.2,53.4,72.2z"
		/>
	<path id="패스_140" class="st13" d="M58.1,61c-0.27,0.01-0.52-0.1-0.7-0.3l-4.5-4.5c-0.39-0.38-0.4-1.01-0.01-1.4
		s1.01-0.4,1.4-0.01c0,0,0.01,0.01,0.01,0.01l4.5,4.5c0.39,0.37,0.4,0.98,0.03,1.37c-0.01,0.01-0.02,0.02-0.03,0.03
		C58.61,60.88,58.36,60.99,58.1,61z"/>
	<path id="패스_141" class="st13" d="M80.4,61c-0.27,0.01-0.52-0.1-0.7-0.3c-0.39-0.37-0.4-0.98-0.03-1.37
		c0.01-0.01,0.02-0.02,0.03-0.03l4.5-4.5c0.39-0.38,1.02-0.38,1.4,0.01c0.38,0.38,0.38,1,0,1.39l-4.5,4.5
		C80.91,60.88,80.66,60.99,80.4,61z"/>
	<g id="그룹_159-2" transform="translate(43.7 245.8)">
		<path id="패스_142" class="st13" d="M15.6-167.8c-0.36-0.02-0.69-0.21-0.9-0.5c-3.51-5.94-1.54-13.59,4.4-17.1
			c5.94-3.51,13.59-1.54,17.1,4.4c2.31,3.92,2.31,8.78,0,12.7c-0.26,0.51-0.88,0.7-1.39,0.44c-0.51-0.26-0.7-0.88-0.44-1.39
			c0.01-0.02,0.02-0.04,0.03-0.05c2.95-5,1.3-11.45-3.7-14.4c-5-2.95-11.45-1.3-14.4,3.7c-1.9,3.31-1.9,7.39,0,10.7
			c0.28,0.48,0.11,1.1-0.37,1.38c-0.01,0.01-0.02,0.01-0.03,0.02C16-167.9,15.8-167.8,15.6-167.8z"/>
	</g>
	<path id="패스_143" class="st13" d="M91.4,81.8H47c-0.55,0-1-0.45-1-1s0.45-1,1-1h44.4c0.55,0,1,0.45,1,1S91.95,81.8,91.4,81.8
		L91.4,81.8z"/>
	<path id="패스_664" class="st13" d="M90.3,85.7H56.9c-0.55,0-1-0.45-1-1s0.45-1,1-1h33.4c0.52-0.03,0.97,0.37,1,0.89
		c0,0.04,0,0.08,0,0.11C91.3,85.25,90.85,85.7,90.3,85.7z"/>
	<path id="패스_665" class="st13" d="M73.7,89.5h-22c-0.55,0-1-0.45-1-1s0.45-1,1-1h22c0.55,0,1,0.45,1,1S74.25,89.5,73.7,89.5z"
		/>
</g>
</svg>
