<?xml version="1.0" encoding="utf-8"?>
<!-- Generator: Adobe Illustrator 25.0.1, SVG Export Plug-In . SVG Version: 6.00 Build 0)  -->
<svg version="1.1" id="Layer_1" xmlns="http://www.w3.org/2000/svg" xmlns:xlink="http://www.w3.org/1999/xlink" x="0px" y="0px"
	 viewBox="0 0 138 138" style="enable-background:new 0 0 138 138;" xml:space="preserve">
<style type="text/css">
	.st0{opacity:0.5;}
	.st1{fill:none;stroke:#000000;stroke-width:2;stroke-linecap:round;stroke-linejoin:round;}
	.st2{fill:#767676;}
	.st3{opacity:0;}
	.st4{fill:#B3B3B3;}
	.st5{fill:#878789;}
	.st6{clip-path:url(#SVGID_2_);}
	.st7{fill-rule:evenodd;clip-rule:evenodd;fill:#ECECEC;}
	.st8{clip-path:url(#SVGID_4_);}
	.st9{fill:#231F20;}
	.st10{clip-path:url(#SVGID_6_);}
	.st11{fill:#79797A;}
	.st12{fill:none;}
	.st13{fill:#FAFAFA;}
	.st14{clip-path:url(#SVGID_8_);}
	.st15{clip-path:url(#SVGID_10_);}
	.st16{clip-path:url(#SVGID_12_);}
	.st17{clip-path:url(#SVGID_14_);}
</style>
<g id="그룹_139" transform="translate(141.8 142.4)">
	<path id="패스_118" class="st13" d="M-72.6-60.8c-6.9,0-12.5-5.6-12.5-12.5s5.6-12.5,12.5-12.5c6.9,0,12.5,5.6,12.5,12.5l0,0
		C-60.1-66.4-65.7-60.8-72.6-60.8z M-72.6-83.8c-5.8,0-10.5,4.7-10.5,10.5s4.7,10.5,10.5,10.5s10.5-4.7,10.5-10.5
		S-66.8-83.8-72.6-83.8z"/>
	<path id="패스_119" class="st13" d="M-72.6-88c-0.52,0.03-0.97-0.37-1-0.89c0-0.04,0-0.08,0-0.11v-6.4c0-0.55,0.45-1,1-1
		s1,0.45,1,1v6.4C-71.64-88.46-72.06-88.04-72.6-88z"/>
	<path id="패스_120" class="st13" d="M-72.6-50.1c-0.52,0.03-0.97-0.37-1-0.89c0-0.04,0-0.08,0-0.11v-6.4c0-0.55,0.45-1,1-1
		s1,0.45,1,1v6.4C-71.6-50.55-72.05-50.1-72.6-50.1z"/>
	<path id="패스_121" class="st13" d="M-50.5-72.3h-6.4c-0.55,0-1-0.45-1-1s0.45-1,1-1h6.4c0.55,0,1,0.45,1,1
		S-49.95-72.3-50.5-72.3z"/>
	<path id="패스_122" class="st13" d="M-88.4-72.3h-6.4c-0.55,0-1-0.45-1-1s0.45-1,1-1h6.4c0.52-0.03,0.97,0.37,1,0.89
		c0,0.04,0,0.08,0,0.11C-87.4-72.75-87.85-72.3-88.4-72.3z"/>
	<path id="패스_123" class="st13" d="M-83.8-83.4c-0.27,0.01-0.52-0.1-0.7-0.3l-4.5-4.5c-0.38-0.39-0.38-1.02,0.01-1.4
		c0.38-0.38,1-0.38,1.39,0l4.5,4.5c0.39,0.37,0.4,0.98,0.03,1.37c-0.01,0.01-0.02,0.02-0.03,0.03C-83.28-83.5-83.53-83.39-83.8-83.4
		z"/>
	<path id="패스_124" class="st13" d="M-57-56.6c-0.27,0.01-0.52-0.1-0.7-0.3l-4.5-4.5c-0.39-0.38-0.4-1.01-0.01-1.4
		s1.01-0.4,1.4-0.01c0,0,0.01,0.01,0.01,0.01l4.5,4.5c0.39,0.37,0.4,0.98,0.03,1.37c-0.01,0.01-0.02,0.02-0.03,0.03
		C-56.48-56.7-56.73-56.59-57-56.6z"/>
	<path id="패스_125" class="st13" d="M-61.5-83.4c-0.27,0.01-0.52-0.1-0.7-0.3c-0.39-0.37-0.4-0.98-0.03-1.37
		c0.01-0.01,0.02-0.02,0.03-0.03l4.5-4.5c0.39-0.38,1.02-0.38,1.4,0.01c0.38,0.38,0.38,1,0,1.39l-4.5,4.5
		C-60.98-83.5-61.23-83.39-61.5-83.4z"/>
	<path id="패스_126" class="st13" d="M-88.3-56.6c-0.27,0.01-0.52-0.1-0.7-0.3c-0.39-0.37-0.4-0.98-0.03-1.37
		c0.01-0.01,0.02-0.02,0.03-0.03l4.5-4.5c0.38-0.39,1.01-0.4,1.4-0.01c0.39,0.38,0.4,1.01,0.01,1.4c0,0-0.01,0.01-0.01,0.01
		l-4.5,4.5C-87.79-56.72-88.04-56.61-88.3-56.6z"/>
</g>
</svg>
