<?xml version="1.0" encoding="utf-8"?>
<!-- Generator: Adobe Illustrator 25.0.1, SVG Export Plug-In . SVG Version: 6.00 Build 0)  -->
<svg version="1.1" id="Layer_1" xmlns="http://www.w3.org/2000/svg" xmlns:xlink="http://www.w3.org/1999/xlink" x="0px" y="0px"
	 viewBox="0 0 138 138" style="enable-background:new 0 0 138 138;" xml:space="preserve">
<style type="text/css">
	.st0{opacity:0.5;}
	.st1{fill:none;stroke:#000000;stroke-width:2;stroke-linecap:round;stroke-linejoin:round;}
	.st2{fill:#767676;}
	.st3{opacity:0;}
	.st4{fill:#B3B3B3;}
	.st5{fill:#878789;}
	.st6{clip-path:url(#SVGID_2_);}
	.st7{fill-rule:evenodd;clip-rule:evenodd;fill:#ECECEC;}
	.st8{clip-path:url(#SVGID_4_);}
	.st9{fill:#231F20;}
	.st10{clip-path:url(#SVGID_6_);}
	.st11{fill:#79797A;}
	.st12{fill:none;}
	.st13{fill:#FAFAFA;}
	.st14{clip-path:url(#SVGID_8_);}
	.st15{clip-path:url(#SVGID_10_);}
	.st16{clip-path:url(#SVGID_12_);}
	.st17{clip-path:url(#SVGID_14_);}
</style>
<g id="그룹_363" transform="translate(-144.6 443)">
	<path id="패스_101" class="st13" d="M213.8-361.9c0.47,0.48,0.73,1.13,0.7,1.8c0,3.1-3.7,5.6-8.4,5.6h-12.7
		c-0.7,0-1.2-0.4-1.2-0.8s0.6-0.8,1.2-0.8h12.7c3.2,0,5.9-1.8,5.9-4c0.02-0.38-0.13-0.74-0.4-1c-1.06-0.96-2.57-1.23-3.9-0.7
		l-1.3,0.5c-0.9,0.4-2-0.2-1.8-0.9c0.8-2.8,4.5-4.8,8.8-4.8h0.5c4.6,0,8.7,2,10.2,4.9l1.1,2.2c1.2,2.3,4.3,3.8,7.9,3.8
		c0.7,0,1.2,0.4,1.2,0.8s-0.6,0.8-1.2,0.8c-4.6,0-8.7-2-10.2-4.9l-1.1-2.2c-1.2-2.3-4.3-3.8-7.9-3.8h-0.5
		c-1.85-0.08-3.67,0.52-5.1,1.7C210.31-364.01,212.36-363.34,213.8-361.9z"/>
	<path id="패스_210" class="st13" d="M213.8-386.6c-0.52,0.03-0.97-0.37-1-0.89c0-0.04,0-0.08,0-0.11v-6.4c0-0.55,0.45-1,1-1
		s1,0.45,1,1v6.4C214.8-387.05,214.35-386.6,213.8-386.6z"/>
	<path id="패스_211" class="st13" d="M235.9-370.8h-6.4c-0.55,0-1-0.45-1-1c0-0.55,0.45-1,1-1h6.4c0.55,0,1,0.45,1,1
		C236.9-371.25,236.45-370.8,235.9-370.8z"/>
	<path id="패스_212" class="st13" d="M198-370.8h-6.4c-0.55,0-1-0.45-1-1c0-0.55,0.45-1,1-1h6.4c0.52-0.03,0.97,0.37,1,0.89
		c0,0.04,0,0.08,0,0.11C199-371.25,198.55-370.8,198-370.8z"/>
	<path id="패스_213" class="st13" d="M202.6-382c-0.27,0.01-0.52-0.1-0.7-0.3l-4.5-4.5c-0.38-0.39-0.38-1.02,0.01-1.4
		c0.38-0.38,1-0.38,1.39,0l4.5,4.5c0.39,0.37,0.4,0.98,0.03,1.37c-0.01,0.01-0.02,0.02-0.03,0.03
		C203.12-382.1,202.87-381.99,202.6-382z"/>
	<path id="패스_214" class="st13" d="M224.9-382c-0.27,0.01-0.52-0.1-0.7-0.3c-0.39-0.37-0.4-0.98-0.03-1.37
		c0.01-0.01,0.02-0.02,0.03-0.03l4.5-4.5c0.39-0.38,1.02-0.38,1.4,0.01c0.38,0.38,0.38,1,0,1.39l-4.5,4.5
		C225.42-382.1,225.17-381.99,224.9-382z"/>
	<g id="그룹_159">
		<path id="패스_215" class="st13" d="M203.8-365c-0.36-0.02-0.69-0.21-0.9-0.5c-3.56-5.92-1.64-13.6,4.28-17.16
			s13.6-1.64,17.16,4.28c2.36,3.93,2.38,8.83,0.06,12.78c-0.3,0.46-0.9,0.64-1.4,0.4c-0.48-0.29-0.65-0.9-0.4-1.4
			c2.96-4.98,1.32-11.42-3.66-14.38c-2.42-1.44-5.32-1.84-8.04-1.12c-2.69,0.68-4.99,2.41-6.4,4.8c-1.9,3.31-1.9,7.39,0,10.7
			c0.28,0.48,0.11,1.1-0.37,1.38c-0.01,0.01-0.02,0.01-0.03,0.02C204.2-365,204-365,203.8-365z"/>
	</g>
</g>
</svg>
