<?xml version="1.0" encoding="utf-8"?>
<!-- Generator: Adobe Illustrator 25.0.1, SVG Export Plug-In . SVG Version: 6.00 Build 0)  -->
<svg version="1.1" id="Layer_1" xmlns="http://www.w3.org/2000/svg" xmlns:xlink="http://www.w3.org/1999/xlink" x="0px" y="0px"
	 viewBox="0 0 138 138" style="enable-background:new 0 0 138 138;" xml:space="preserve">
<style type="text/css">
	.st0{opacity:0.5;}
	.st1{fill:none;stroke:#000000;stroke-width:2;stroke-linecap:round;stroke-linejoin:round;}
	.st2{fill:#767676;}
	.st3{opacity:0;}
	.st4{fill:#B3B3B3;}
	.st5{fill:#878789;}
	.st6{clip-path:url(#SVGID_2_);}
	.st7{fill-rule:evenodd;clip-rule:evenodd;fill:#ECECEC;}
	.st8{clip-path:url(#SVGID_4_);}
	.st9{fill:#231F20;}
	.st10{clip-path:url(#SVGID_6_);}
	.st11{fill:#79797A;}
	.st12{fill:none;}
	.st13{fill:#FAFAFA;}
	.st14{clip-path:url(#SVGID_8_);}
	.st15{clip-path:url(#SVGID_10_);}
	.st16{clip-path:url(#SVGID_12_);}
	.st17{clip-path:url(#SVGID_14_);}
</style>
<g id="그룹_1459" transform="translate(44 442)">
	<g id="그룹_1453">
		<g id="그룹_1452">
			<path id="패스_790" class="st13" d="M38.47-363.31L38.47-363.31c-0.55,0-1-0.45-1-1c-0.03-0.52,0.37-0.97,0.89-1c0,0,0,0,0,0
				c0.04,0,0.08,0,0.11,0c4.58,0,8.3-3.72,8.3-8.3c0-4.58-3.72-8.3-8.3-8.3c-0.71,0-1.42,0.1-2.1,0.3c-0.27,0.07-0.55,0.03-0.8-0.1
				c-0.22-0.15-0.39-0.36-0.5-0.6c-1.17-5.2-6.33-8.46-11.53-7.29c-3.78,0.85-6.68,3.88-7.37,7.69c-0.1,0.3-0.2,0.6-0.5,0.7
				c-0.28,0.15-0.62,0.15-0.9,0c-4.18-1.91-9.12-0.08-11.04,4.1s-0.08,9.12,4.1,11.04c0.01,0.01,0.03,0.01,0.04,0.02l0.09,0.04
				c1.07,0.48,2.23,0.72,3.4,0.7c0.55,0,1,0.45,1,1s-0.45,1-1,1c-1.45-0.01-2.88-0.32-4.2-0.9c-5.22-2.29-7.59-8.37-5.3-13.59
				c2.11-4.81,7.49-7.26,12.5-5.71c1.71-6.16,8.09-9.77,14.26-8.06c3.77,1.05,6.76,3.93,7.94,7.66c0.56-0.08,1.13-0.12,1.7-0.1
				c5.68,0.03,10.27,4.62,10.3,10.3c-0.01,2.73-1.09,5.35-3,7.3C43.75-364.42,41.17-363.29,38.47-363.31"/>
		</g>
	</g>
	<g id="그룹_1455" transform="translate(0 1)">
		<g id="그룹_1454">
			<path id="패스_791" class="st13" d="M13.34-361.05c0.63,0,1.15,0.51,1.15,1.15c0,0.63-0.51,1.15-1.15,1.15
				c-0.63,0-1.15-0.51-1.15-1.15C12.19-360.53,12.7-361.05,13.34-361.05C13.33-361.05,13.33-361.05,13.34-361.05"/>
			<path id="패스_792" class="st13" d="M25-361.05c0.63,0,1.15,0.51,1.15,1.15c0,0.63-0.51,1.15-1.15,1.15
				c-0.63,0-1.15-0.51-1.15-1.15C23.85-360.53,24.36-361.05,25-361.05C25-361.05,25-361.05,25-361.05"/>
			<path id="패스_793" class="st13" d="M36.67-361.05c0.63,0,1.15,0.51,1.15,1.15s-0.51,1.15-1.15,1.15
				c-0.63,0-1.15-0.51-1.15-1.15l0,0C35.52-360.54,36.03-361.05,36.67-361.05"/>
			<path id="패스_794" class="st13" d="M30.83-357.12c0.63,0,1.15,0.51,1.15,1.15s-0.51,1.15-1.15,1.15
				c-0.63,0-1.15-0.51-1.15-1.15l0,0C29.68-356.6,30.2-357.12,30.83-357.12"/>
			<path id="패스_795" class="st13" d="M19.17-357.12c0.63,0,1.15,0.51,1.15,1.15s-0.51,1.15-1.15,1.15s-1.15-0.51-1.15-1.15l0,0
				C18.02-356.6,18.53-357.12,19.17-357.12C19.17-357.12,19.17-357.12,19.17-357.12"/>
		</g>
	</g>
	<g id="그룹_1457">
		<g id="그룹_1456">
			<line id="선_155" class="st12" x1="10.75" y1="-364.33" x2="38.49" y2="-364.3"/>
			
				<rect x="23.62" y="-378.19" transform="matrix(1.161644e-03 -1 1 1.161644e-03 388.9104 -339.2719)" class="st13" width="2" height="27.74"/>
		</g>
	</g>
</g>
</svg>
