<?xml version="1.0" encoding="utf-8"?>
<!-- Generator: Adobe Illustrator 25.0.1, SVG Export Plug-In . SVG Version: 6.00 Build 0)  -->
<svg version="1.1" id="Layer_1" xmlns="http://www.w3.org/2000/svg" xmlns:xlink="http://www.w3.org/1999/xlink" x="0px" y="0px"
	 viewBox="0 0 138 138" style="enable-background:new 0 0 138 138;" xml:space="preserve">
<style type="text/css">
	.st0{opacity:0.5;}
	.st1{fill:none;stroke:#000000;stroke-width:2;stroke-linecap:round;stroke-linejoin:round;}
	.st2{fill:#767676;}
	.st3{opacity:0;}
	.st4{fill:#B3B3B3;}
	.st5{fill:#878789;}
	.st6{clip-path:url(#SVGID_2_);}
	.st7{fill-rule:evenodd;clip-rule:evenodd;fill:#ECECEC;}
	.st8{clip-path:url(#SVGID_4_);}
	.st9{fill:#231F20;}
	.st10{clip-path:url(#SVGID_6_);}
	.st11{fill:#79797A;}
	.st12{fill:none;}
	.st13{fill:#FAFAFA;}
	.st14{clip-path:url(#SVGID_8_);}
	.st15{clip-path:url(#SVGID_10_);}
	.st16{clip-path:url(#SVGID_12_);}
	.st17{clip-path:url(#SVGID_14_);}
</style>
<g id="그룹_227" transform="translate(408.3 272.5)">
	<path id="패스_146" class="st13" d="M-347.4-183.5c-0.27,0.01-0.52-0.1-0.7-0.3c-0.39-0.37-0.4-0.98-0.03-1.37
		c0.01-0.01,0.02-0.02,0.03-0.03l3.8-3.8h-1.6c-0.4,0.03-0.77-0.22-0.9-0.6c-0.14-0.38-0.06-0.8,0.2-1.1l5.5-5.5h-6.6
		c-0.4,0.03-0.77-0.22-0.9-0.6c-0.14-0.38-0.06-0.8,0.2-1.1l5.7-5.7c0.37-0.39,0.98-0.4,1.37-0.03c0.01,0.01,0.02,0.02,0.03,0.03
		c0.39,0.37,0.4,0.98,0.03,1.37c-0.01,0.01-0.02,0.02-0.03,0.03l-4,4h6.6c0.4-0.03,0.77,0.22,0.9,0.6c0.19,0.37,0.11,0.82-0.2,1.1
		l-5.5,5.5h1.6c0.4-0.03,0.77,0.22,0.9,0.6c0.14,0.38,0.06,0.8-0.2,1.1l-5.5,5.5C-346.88-183.6-347.13-183.49-347.4-183.5z"/>
	<path id="패스_147" class="st13" d="M-336.3-193.4c-0.27,0.01-0.52-0.1-0.7-0.3c-0.39-0.37-0.4-0.98-0.03-1.37
		c0.01-0.01,0.02-0.02,0.03-0.03l3.2-3.2h-2.7c-0.4,0.03-0.77-0.22-0.9-0.6c-0.19-0.37-0.11-0.82,0.2-1.1l3.6-3.6
		c0.37-0.39,0.98-0.4,1.37-0.03c0.01,0.01,0.02,0.02,0.03,0.03c0.39,0.37,0.4,0.98,0.03,1.37c-0.01,0.01-0.02,0.02-0.03,0.03
		l-1.9,1.9h2.7c0.4-0.03,0.77,0.22,0.9,0.6c0.19,0.37,0.11,0.82-0.2,1.1l-4.9,4.9C-335.78-193.5-336.03-193.39-336.3-193.4z"/>
	<path id="패스_148" class="st13" d="M-326.2-195c-0.55,0-1-0.45-1-1c-0.03-0.52,0.37-0.97,0.89-1c0.04,0,0.08,0,0.11,0
		c4.57,0.01,8.29-3.69,8.3-8.26c0-0.01,0-0.03,0-0.04c-0.02-4.57-3.73-8.28-8.3-8.3c-0.68-0.01-1.35,0.1-2,0.3
		c-0.27,0.07-0.55,0.03-0.8-0.1c-0.3-0.1-0.4-0.4-0.5-0.6c-0.95-4.38-4.82-7.5-9.3-7.5l0,0c-4.68-0.03-8.68,3.38-9.4,8
		c-0.1,0.3-0.2,0.6-0.5,0.7c-0.28,0.15-0.62,0.15-0.9,0c-1.07-0.48-2.23-0.72-3.4-0.7c-4.57,0.02-8.28,3.73-8.3,8.3
		c0.02,4.57,3.73,8.28,8.3,8.3c0.55,0,1,0.45,1,1c0.03,0.52-0.37,0.97-0.89,1c-0.04,0-0.08,0-0.11,0l0,0
		c-5.68-0.03-10.27-4.62-10.3-10.3c-0.01-5.68,4.59-10.29,10.27-10.3c0.01,0,0.02,0,0.03,0c1.05,0.01,2.1,0.18,3.1,0.5
		c1.37-5,5.91-8.48,11.1-8.5l0,0c5.02,0.07,9.44,3.33,11,8.1c0.53-0.09,1.06-0.12,1.6-0.1c5.68,0.03,10.27,4.62,10.3,10.3
		C-316.01-199.57-320.57-195.05-326.2-195z"/>
</g>
</svg>
