<svg id="그룹_1095" data-name="그룹 1095" xmlns="http://www.w3.org/2000/svg" xmlns:xlink="http://www.w3.org/1999/xlink" width="105.109" height="109.339" viewBox="0 0 105.109 109.339">
  <defs>
    <clipPath id="clip-path">
      <rect id="사각형_433" data-name="사각형 433" width="105.109" height="109.339" transform="translate(0 0)" fill="none"/>
    </clipPath>
    <clipPath id="clip-path-2">
      <rect id="사각형_434" data-name="사각형 434" width="8" height="8" transform="translate(97.107 101.339)" fill="none"/>
    </clipPath>
  </defs>
  <g id="그룹_1090" data-name="그룹 1090">
    <g id="그룹_1089" data-name="그룹 1089" clip-path="url(#clip-path)">
      <path id="패스_537" data-name="패스 537" d="M36.661,33.6a2,2,0,1,1-2-2,2,2,0,0,1,2,2" fill="#474747"/>
      <path id="패스_538" data-name="패스 538" d="M56.788,23.146a2,2,0,1,1-2-2,2,2,0,0,1,2,2" fill="#474747"/>
      <path id="패스_539" data-name="패스 539" d="M79.42,33.6a2,2,0,1,1-2-2,2,2,0,0,1,2,2" fill="#474747"/>
      <path id="패스_540" data-name="패스 540" d="M85.516,2a2,2,0,1,1-2-2,2,2,0,0,1,2,2" fill="#474747"/>
      <path id="패스_541" data-name="패스 541" d="M52.788,56.762a2,2,0,1,1-2-2,2,2,0,0,1,2,2" fill="#474747"/>
      <path id="패스_542" data-name="패스 542" d="M30.286,83.422a2,2,0,1,1-2-2,2,2,0,0,1,2,2" fill="#474747"/>
      <path id="패스_543" data-name="패스 543" d="M4,98.217a2,2,0,1,1-2-2,2,2,0,0,1,2,2" fill="#474747"/>
      <path id="패스_544" data-name="패스 544" d="M14.113,61.213a2,2,0,1,1-2-2,2,2,0,0,1,2,2" fill="#474747"/>
      <path id="패스_545" data-name="패스 545" d="M23,50.312a2,2,0,1,1-2-2,2,2,0,0,1,2,2" fill="#474747"/>
      <path id="패스_546" data-name="패스 546" d="M18.114,38.312a2,2,0,1,1-2-2,2,2,0,0,1,2,2" fill="#474747"/>
      <path id="패스_547" data-name="패스 547" d="M4.9,56.762a2,2,0,1,1-2-2,2,2,0,0,1,2,2" fill="#474747"/>
      <path id="패스_548" data-name="패스 548" d="M6.9,64.182a2,2,0,1,1-2-2,2,2,0,0,1,2,2" fill="#474747"/>
      <path id="패스_549" data-name="패스 549" d="M75.42,77.2a2,2,0,1,1-2-2,2,2,0,0,1,2,2" fill="#474747"/>
    </g>
  </g>
  <g id="그룹_1092" data-name="그룹 1092">
    <g id="그룹_1091" data-name="그룹 1091" clip-path="url(#clip-path-2)">
      <path id="패스_550" data-name="패스 550" d="M105.108,104.549a.6.6,0,0,1-.216.45l-1.839,1.394.714,2.246a.558.558,0,0,1-.346.7h-.195a.5.5,0,0,1-.3-.112l-1.84-1.395-1.838,1.395a.505.505,0,0,1-.709-.1h0l-.018-.024-.012-.011a.511.511,0,0,1-.064-.5l.714-2.227-1.835-1.393a.585.585,0,0,1-.109-.787.559.559,0,0,1,.412-.225h2.269l.692-2.249a.533.533,0,0,1,.26-.315.44.44,0,0,1,.411-.022.558.558,0,0,1,.35.36l.692,2.249h2.267a.607.607,0,0,1,.39.157.553.553,0,0,1,.151.4" fill="#474747"/>
    </g>
  </g>
  <rect id="사각형_435" data-name="사각형 435" width="19.137" height="1.5" transform="matrix(0.969, -0.246, 0.246, 0.969, 15.929, 37.584)" fill="#474747"/>
  <rect id="사각형_436" data-name="사각형 436" width="22.681" height="1.5" transform="translate(34.314 32.934) rotate(-27.437)" fill="#474747"/>
  <rect id="사각형_437" data-name="사각형 437" width="35.671" height="1.5" transform="translate(54.347 22.548) rotate(-36.381)" fill="#474747"/>
  <rect id="사각형_438" data-name="사각형 438" width="32.185" height="1.5" transform="matrix(0.189, -0.982, 0.982, 0.189, 76.685, 33.46)" fill="#474747"/>
  <rect id="사각형_439" data-name="사각형 439" width="1.5" height="28.222" transform="matrix(0.821, -0.571, 0.571, 0.821, 34.045, 34.031)" fill="#474747"/>
  <rect id="사각형_440" data-name="사각형 440" width="35.294" height="1.5" transform="matrix(0.755, -0.656, 0.656, 0.755, 50.289, 56.187)" fill="#474747"/>
  <rect id="사각형_441" data-name="사각형 441" width="21.583" height="1.5" transform="translate(20.421 49.838) rotate(-50.738)" fill="#474747"/>
  <rect id="사각형_442" data-name="사각형 442" width="14.066" height="1.499" transform="translate(11.533 60.741) rotate(-50.821)" fill="#474747"/>
  <rect id="사각형_443" data-name="사각형 443" width="1.501" height="10.234" transform="matrix(0.435, -0.9, 0.9, 0.435, 2.572, 57.438)" fill="#474747"/>
  <rect id="사각형_444" data-name="사각형 444" width="1.5" height="7.685" transform="translate(2.174 56.957) rotate(-15.085)" fill="#474747"/>
  <rect id="사각형_445" data-name="사각형 445" width="38.361" height="1.5" transform="translate(1.282 98.021) rotate(-74.731)" fill="#474747"/>
  <rect id="사각형_446" data-name="사각형 446" width="30.163" height="1.5" transform="translate(1.63 97.558) rotate(-29.352)" fill="#474747"/>
  <rect id="사각형_447" data-name="사각형 447" width="34.887" height="1.5" transform="translate(27.715 82.94) rotate(-49.842)" fill="#474747"/>
  <rect id="사각형_448" data-name="사각형 448" width="1.501" height="30.497" transform="matrix(0.67, -0.742, 0.742, 0.67, 50.285, 57.319)" fill="#474747"/>
  <g id="그룹_1094" data-name="그룹 1094">
    <g id="그룹_1093" data-name="그룹 1093" clip-path="url(#clip-path)">
      <path id="패스_551" data-name="패스 551" d="M97.109,102.089a.745.745,0,0,1-.535-.225L72.886,77.725a.75.75,0,1,1,1.07-1.051l23.688,24.14a.75.75,0,0,1-.535,1.275" fill="#474747"/>
    </g>
  </g>
</svg>
