<svg id="그룹_1101" data-name="그룹 1101" xmlns="http://www.w3.org/2000/svg" xmlns:xlink="http://www.w3.org/1999/xlink" width="92.764" height="112.782" viewBox="0 0 92.764 112.782">
  <defs>
    <clipPath id="clip-path">
      <rect id="사각형_450" data-name="사각형 450" width="92.764" height="112.782" fill="none"/>
    </clipPath>
    <clipPath id="clip-path-2">
      <rect id="사각형_451" data-name="사각형 451" width="8" height="8" transform="translate(12.114 15.499)" fill="none"/>
    </clipPath>
  </defs>
  <g id="그룹_1098" data-name="그룹 1098">
    <g id="그룹_1097" data-name="그룹 1097" clip-path="url(#clip-path)">
      <path id="패스_552" data-name="패스 552" d="M26.828,21.5a2,2,0,1,1-2-2,2,2,0,0,1,2,2" fill="#474747"/>
      <path id="패스_553" data-name="패스 553" d="M34.94,2a2,2,0,1,1-2-2,2,2,0,0,1,2,2" fill="#474747"/>
      <path id="패스_554" data-name="패스 554" d="M58.94,11.551a2,2,0,1,1-2-2,2,2,0,0,1,2,2" fill="#474747"/>
      <path id="패스_555" data-name="패스 555" d="M78.792,33.207a2,2,0,1,1-2-2,2,2,0,0,1,2,2" fill="#474747"/>
      <path id="패스_556" data-name="패스 556" d="M22.114,27.341a2,2,0,1,1-2-2,2,2,0,0,1,2,2" fill="#474747"/>
      <path id="패스_557" data-name="패스 557" d="M14.114,29.341a2,2,0,1,1-2-2,2,2,0,0,1,2,2" fill="#474747"/>
      <path id="패스_558" data-name="패스 558" d="M4,60.89a2,2,0,1,1-2-2,2,2,0,0,1,2,2" fill="#474747"/>
      <path id="패스_559" data-name="패스 559" d="M42.94,79.129a2,2,0,1,1-2-2,2,2,0,0,1,2,2" fill="#474747"/>
      <path id="패스_560" data-name="패스 560" d="M32.94,96.663a2,2,0,1,1-2-2,2,2,0,0,1,2,2" fill="#474747"/>
      <path id="패스_561" data-name="패스 561" d="M30.94,110.782a2,2,0,1,1-2-2,2,2,0,0,1,2,2" fill="#474747"/>
      <path id="패스_562" data-name="패스 562" d="M24.828,106.782a2,2,0,1,1-2-2,2,2,0,0,1,2,2" fill="#474747"/>
      <path id="패스_563" data-name="패스 563" d="M67.94,67.292a2,2,0,1,1-2-2,2,2,0,0,1,2,2" fill="#474747"/>
      <path id="패스_564" data-name="패스 564" d="M69.94,84.47a2,2,0,1,1-2-2,2,2,0,0,1,2,2" fill="#474747"/>
      <path id="패스_565" data-name="패스 565" d="M86.329,60.89a2,2,0,1,1-2-2,2,2,0,0,1,2,2" fill="#474747"/>
      <path id="패스_566" data-name="패스 566" d="M92.763,56.89a2,2,0,1,1-2-2,2,2,0,0,1,2,2" fill="#474747"/>
    </g>
  </g>
  <g id="그룹_1100" data-name="그룹 1100">
    <g id="그룹_1099" data-name="그룹 1099" clip-path="url(#clip-path-2)">
      <path id="패스_567" data-name="패스 567" d="M20.114,18.709a.6.6,0,0,1-.216.45l-1.839,1.394.714,2.246a.558.558,0,0,1-.346.7h-.195a.5.5,0,0,1-.3-.112l-1.84-1.395-1.839,1.395a.507.507,0,0,1-.709-.1v0l-.017-.024-.012-.011a.511.511,0,0,1-.065-.5l.714-2.226-1.835-1.394a.585.585,0,0,1-.108-.787.556.556,0,0,1,.412-.225H14.9l.692-2.249a.538.538,0,0,1,.26-.315.44.44,0,0,1,.411-.022.558.558,0,0,1,.35.36l.692,2.248h2.267a.622.622,0,0,1,.389.158.544.544,0,0,1,.152.4" fill="#474747"/>
    </g>
  </g>
  <rect id="사각형_452" data-name="사각형 452" width="1.5" height="25.831" transform="translate(32.663 2.696) rotate(-68.297)" fill="#474747"/>
  <rect id="사각형_453" data-name="사각형 453" width="21.12" height="1.5" transform="matrix(0.384, -0.923, 0.923, 0.384, 24.137, 21.212)" fill="#474747"/>
  <rect id="사각형_454" data-name="사각형 454" width="7.507" height="1.499" transform="matrix(0.628, -0.778, 0.778, 0.628, 19.531, 26.872)" fill="#474747"/>
  <rect id="사각형_455" data-name="사각형 455" width="8.246" height="1.5" transform="matrix(0.97, -0.243, 0.243, 0.97, 11.932, 28.615)" fill="#474747"/>
  <rect id="사각형_456" data-name="사각형 456" width="33.131" height="1.5" transform="translate(1.297 60.665) rotate(-72.266)" fill="#474747"/>
  <rect id="사각형_457" data-name="사각형 457" width="1.5" height="59.84" transform="translate(24.106 21.701) rotate(-15.62)" fill="#474747"/>
  <rect id="사각형_458" data-name="사각형 458" width="27.661" height="1.499" transform="translate(40.62 78.455) rotate(-25.352)" fill="#474747"/>
  <rect id="사각형_459" data-name="사각형 459" width="1.5" height="17.294" transform="translate(65.195 67.379) rotate(-6.641)" fill="#474747"/>
  <rect id="사각형_460" data-name="사각형 460" width="19.472" height="1.499" transform="translate(65.694 66.585) rotate(-19.196)" fill="#474747"/>
  <rect id="사각형_461" data-name="사각형 461" width="7.577" height="1.499" transform="matrix(0.849, -0.528, 0.528, 0.849, 83.933, 60.255)" fill="#474747"/>
  <rect id="사각형_462" data-name="사각형 462" width="1.5" height="28.691" transform="translate(76.068 33.404) rotate(-15.23)" fill="#474747"/>
  <rect id="사각형_463" data-name="사각형 463" width="1.499" height="29.378" transform="matrix(0.737, -0.676, 0.676, 0.737, 56.387, 12.057)" fill="#474747"/>
  <rect id="사각형_464" data-name="사각형 464" width="20.184" height="1.499" transform="translate(30.294 96.295) rotate(-60.34)" fill="#474747"/>
  <rect id="사각형_465" data-name="사각형 465" width="14.26" height="1.5" transform="translate(28.195 110.676) rotate(-81.913)" fill="#474747"/>
  <rect id="사각형_466" data-name="사각형 466" width="1.501" height="7.305" transform="translate(22.417 107.409) rotate(-56.797)" fill="#474747"/>
</svg>
