<svg id="그룹_1067" data-name="그룹 1067" xmlns="http://www.w3.org/2000/svg" xmlns:xlink="http://www.w3.org/1999/xlink" width="130.999" height="114" viewBox="0 0 130.999 114">
  <defs>
    <clipPath id="clip-path">
      <rect id="사각형_359" data-name="사각형 359" width="8" height="7.999" transform="translate(37 101.001)" fill="none"/>
    </clipPath>
    <clipPath id="clip-path-2">
      <rect id="사각형_360" data-name="사각형 360" width="130.999" height="114" fill="none"/>
    </clipPath>
    <clipPath id="clip-path-3">
      <rect id="사각형_361" data-name="사각형 361" width="8" height="7.998" transform="translate(37 101.002)" fill="none"/>
    </clipPath>
  </defs>
  <g id="그룹_1062" data-name="그룹 1062">
    <g id="그룹_1061" data-name="그룹 1061" clip-path="url(#clip-path)">
      <path id="패스_462" data-name="패스 462" d="M45,104.21a.6.6,0,0,1-.216.45l-1.839,1.394.714,2.246a.559.559,0,0,1-.346.7h-.195a.506.506,0,0,1-.3-.112l-1.841-1.4-1.838,1.4a.506.506,0,0,1-.71-.1l-.017-.024a.032.032,0,0,1-.012-.011.509.509,0,0,1-.065-.495l.714-2.226-1.835-1.394a.585.585,0,0,1-.108-.787.557.557,0,0,1,.411-.225h2.27l.692-2.249a.538.538,0,0,1,.26-.315.443.443,0,0,1,.411-.022.558.558,0,0,1,.35.36l.692,2.249h2.267a.616.616,0,0,1,.389.157.547.547,0,0,1,.152.4" fill="#474747"/>
    </g>
  </g>
  <g id="그룹_1064" data-name="그룹 1064">
    <g id="그룹_1063" data-name="그룹 1063" clip-path="url(#clip-path-2)">
      <path id="패스_463" data-name="패스 463" d="M33,3a2,2,0,1,0,2,2,2,2,0,0,0-2-2" fill="#474747"/>
      <path id="패스_464" data-name="패스 464" d="M68,0a2,2,0,1,0,2,2,2,2,0,0,0-2-2" fill="#474747"/>
      <path id="패스_465" data-name="패스 465" d="M60,12a2,2,0,1,0,2,2,2,2,0,0,0-2-2" fill="#474747"/>
      <path id="패스_466" data-name="패스 466" d="M50,23a2,2,0,1,0-2,2,2,2,0,0,0,2-2" fill="#474747"/>
      <path id="패스_467" data-name="패스 467" d="M46,27a2,2,0,1,0,2-2,2,2,0,0,0-2,2" fill="#474747"/>
      <path id="패스_468" data-name="패스 468" d="M18,29a2,2,0,1,0,2,2,2,2,0,0,0-2-2" fill="#474747"/>
      <path id="패스_469" data-name="패스 469" d="M2,35a2,2,0,1,0,2,2,2,2,0,0,0-2-2" fill="#474747"/>
      <path id="패스_470" data-name="패스 470" d="M49,45a2,2,0,1,0-2,2,2,2,0,0,0,2-2" fill="#474747"/>
      <path id="패스_471" data-name="패스 471" d="M46,35a2,2,0,1,0-2,2,2,2,0,0,0,2-2" fill="#474747"/>
      <path id="패스_472" data-name="패스 472" d="M92,49a2,2,0,1,0,2,2,2,2,0,0,0-2-2" fill="#474747"/>
      <path id="패스_473" data-name="패스 473" d="M58,65a2,2,0,1,0,2,2,2,2,0,0,0-2-2" fill="#474747"/>
      <path id="패스_474" data-name="패스 474" d="M49,92a2,2,0,1,0,2,2,2,2,0,0,0-2-2" fill="#474747"/>
      <path id="패스_475" data-name="패스 475" d="M33,98a2,2,0,1,0,2,2,2,2,0,0,0-2-2" fill="#474747"/>
      <path id="패스_476" data-name="패스 476" d="M100,54a2,2,0,1,0,2,2,2,2,0,0,0-2-2" fill="#474747"/>
      <path id="패스_477" data-name="패스 477" d="M112,59a2,2,0,1,0,2,2,2,2,0,0,0-2-2" fill="#474747"/>
      <path id="패스_478" data-name="패스 478" d="M109,65a2,2,0,1,0,2,2,2,2,0,0,0-2-2" fill="#474747"/>
      <path id="패스_479" data-name="패스 479" d="M129,79a2,2,0,1,0,2,2,2,2,0,0,0-2-2" fill="#474747"/>
      <path id="패스_480" data-name="패스 480" d="M116,110a2,2,0,1,0,2,2,2,2,0,0,0-2-2" fill="#474747"/>
    </g>
  </g>
  <g id="그룹_1066" data-name="그룹 1066">
    <g id="그룹_1065" data-name="그룹 1065" clip-path="url(#clip-path-3)">
      <path id="패스_481" data-name="패스 481" d="M45,104.21a.6.6,0,0,1-.216.45l-1.839,1.394.714,2.246a.559.559,0,0,1-.346.7h-.195a.506.506,0,0,1-.3-.112l-1.841-1.4-1.838,1.4a.506.506,0,0,1-.709-.1v0l-.017-.024-.012-.011a.509.509,0,0,1-.065-.495l.714-2.226-1.835-1.394a.585.585,0,0,1-.108-.787.559.559,0,0,1,.411-.225h2.27l.692-2.249a.538.538,0,0,1,.26-.315.446.446,0,0,1,.411-.022.558.558,0,0,1,.35.36l.692,2.249h2.267a.616.616,0,0,1,.389.157.546.546,0,0,1,.152.4" fill="#474747"/>
    </g>
  </g>
  <rect id="사각형_362" data-name="사각형 362" width="1.5" height="23.431" transform="translate(32.424 5.48) rotate(-39.806)" fill="#474747"/>
  <rect id="사각형_363" data-name="사각형 363" width="15" height="1.5" transform="matrix(0.8, -0.6, 0.6, 0.8, 47.55, 22.4)" fill="#474747"/>
  <rect id="사각형_364" data-name="사각형 364" width="14.422" height="1.5" transform="matrix(0.555, -0.832, 0.832, 0.555, 59.376, 13.584)" fill="#474747"/>
  <rect id="사각형_365" data-name="사각형 365" width="1.5" height="4" transform="translate(47.25 23)" fill="#474747"/>
  <rect id="사각형_366" data-name="사각형 366" width="30.265" height="1.5" transform="translate(17.901 30.254) rotate(-7.585)" fill="#474747"/>
  <rect id="사각형_367" data-name="사각형 367" width="17.088" height="1.499" transform="matrix(0.936, -0.351, 0.351, 0.936, 1.736, 36.296)" fill="#474747"/>
  <rect id="사각형_368" data-name="사각형 368" width="8.944" height="1.5" transform="matrix(0.447, -0.894, 0.894, 0.447, 43.329, 34.664)" fill="#474747"/>
  <rect id="사각형_369" data-name="사각형 369" width="1.5" height="10.44" transform="translate(43.282 35.215) rotate(-16.699)" fill="#474747"/>
  <rect id="사각형_370" data-name="사각형 370" width="1.5" height="24.597" transform="translate(46.329 45.335) rotate(-26.565)" fill="#474747"/>
  <rect id="사각형_371" data-name="사각형 371" width="1.5" height="45.398" transform="matrix(0.132, -0.991, 0.991, 0.132, 46.901, 45.744)" fill="#474747"/>
  <rect id="사각형_372" data-name="사각형 372" width="1.5" height="9.434" transform="matrix(0.53, -0.848, 0.848, 0.53, 91.602, 51.636)" fill="#474747"/>
  <rect id="사각형_373" data-name="사각형 373" width="37.577" height="1.5" transform="translate(57.682 66.326) rotate(-25.216)" fill="#474747"/>
  <rect id="사각형_374" data-name="사각형 374" width="1.5" height="13" transform="translate(99.711 56.692) rotate(-67.38)" fill="#474747"/>
  <rect id="사각형_375" data-name="사각형 375" width="28.46" height="1.5" transform="matrix(0.317, -0.949, 0.949, 0.317, 48.283, 93.76)" fill="#474747"/>
  <rect id="사각형_376" data-name="사각형 376" width="17.088" height="1.499" transform="translate(32.736 99.296) rotate(-20.538)" fill="#474747"/>
  <rect id="사각형_377" data-name="사각형 377" width="6.708" height="1.5" transform="translate(108.331 66.666) rotate(-63.469)" fill="#474747"/>
  <rect id="사각형_378" data-name="사각형 378" width="1.5" height="24.413" transform="translate(108.57 67.614) rotate(-55.008)" fill="#474747"/>
  <rect id="사각형_379" data-name="사각형 379" width="33.615" height="1.5" transform="matrix(0.387, -0.922, 0.922, 0.387, 115.308, 111.71)" fill="#474747"/>
</svg>
