<svg xmlns="http://www.w3.org/2000/svg" xmlns:xlink="http://www.w3.org/1999/xlink" width="89.271" height="130.036" viewBox="0 0 89.271 130.036">
  <defs>
    <clipPath id="clip-path">
      <rect id="사각형_414" data-name="사각형 414" width="89.271" height="130.036" transform="translate(0 0.001)" fill="none"/>
    </clipPath>
    <clipPath id="clip-path-2">
      <rect id="사각형_415" data-name="사각형 415" width="8" height="7.999" transform="translate(15.249 51.389)" fill="none"/>
    </clipPath>
  </defs>
  <g id="그룹_1087" data-name="그룹 1087" transform="translate(0 -0.001)">
    <g id="그룹_1082" data-name="그룹 1082">
      <g id="그룹_1081" data-name="그룹 1081" clip-path="url(#clip-path)">
        <path id="패스_516" data-name="패스 516" d="M13.735,2a2,2,0,1,1-2-2,2,2,0,0,1,2,2" fill="#474747"/>
        <path id="패스_517" data-name="패스 517" d="M23.2,2a2,2,0,1,1-2-2,2,2,0,0,1,2,2" fill="#474747"/>
        <path id="패스_518" data-name="패스 518" d="M9.735,24.714a2,2,0,1,1-2-2,2,2,0,0,1,2,2" fill="#474747"/>
        <path id="패스_519" data-name="패스 519" d="M4,26.714a2,2,0,1,1-2-2,2,2,0,0,1,2,2" fill="#474747"/>
        <path id="패스_520" data-name="패스 520" d="M13.735,46.246a2,2,0,1,1-2-2,2,2,0,0,1,2,2" fill="#474747"/>
        <path id="패스_521" data-name="패스 521" d="M41.686,47.184a2,2,0,1,1-2-2,2,2,0,0,1,2,2" fill="#474747"/>
        <path id="패스_522" data-name="패스 522" d="M52.728,60.808a2,2,0,1,1-2-2,2,2,0,0,1,2,2" fill="#474747"/>
        <path id="패스_523" data-name="패스 523" d="M34.839,95.316a2,2,0,1,1-2-2,2,2,0,0,1,2,2" fill="#474747"/>
        <path id="패스_524" data-name="패스 524" d="M45.686,87.124a2,2,0,1,1-2-2,2,2,0,0,1,2,2" fill="#474747"/>
        <path id="패스_525" data-name="패스 525" d="M41.262,92.278a2,2,0,1,1-2-2,2,2,0,0,1,2,2" fill="#474747"/>
        <path id="패스_526" data-name="패스 526" d="M29.121,128.037a2,2,0,1,1-2-2,2,2,0,0,1,2,2" fill="#474747"/>
        <path id="패스_527" data-name="패스 527" d="M64.215,121.165a2,2,0,1,1-2-2,2,2,0,0,1,2,2" fill="#474747"/>
        <path id="패스_528" data-name="패스 528" d="M80.228,78.678a2,2,0,1,1-2-2,2,2,0,0,1,2,2" fill="#474747"/>
        <path id="패스_529" data-name="패스 529" d="M84.228,75.709a2,2,0,1,1-2-2,2,2,0,0,1,2,2" fill="#474747"/>
        <path id="패스_530" data-name="패스 530" d="M87.271,62.808a2,2,0,1,1-2-2,2,2,0,0,1,2,2" fill="#474747"/>
        <path id="패스_531" data-name="패스 531" d="M89.271,56.808a2,2,0,1,1-2-2,2,2,0,0,1,2,2" fill="#474747"/>
        <path id="패스_532" data-name="패스 532" d="M85.271,26.714a2,2,0,1,1-2-2,2,2,0,0,1,2,2" fill="#474747"/>
      </g>
    </g>
    <g id="그룹_1084" data-name="그룹 1084">
      <g id="그룹_1083" data-name="그룹 1083" clip-path="url(#clip-path-2)">
        <path id="패스_533" data-name="패스 533" d="M23.249,54.6a.6.6,0,0,1-.216.45l-1.839,1.4.714,2.246a.558.558,0,0,1-.346.7h-.195a.5.5,0,0,1-.3-.111l-1.841-1.4-1.838,1.4a.506.506,0,0,1-.71-.1l-.017-.023a.034.034,0,0,1-.012-.012.507.507,0,0,1-.065-.494l.716-2.237-1.835-1.392a.586.586,0,0,1-.109-.787.56.56,0,0,1,.412-.226h2.27l.692-2.249a.527.527,0,0,1,.26-.314.443.443,0,0,1,.411-.023.561.561,0,0,1,.35.359l.692,2.25H22.71a.611.611,0,0,1,.389.158.546.546,0,0,1,.152.4" fill="#474747"/>
      </g>
    </g>
    <rect id="사각형_416" data-name="사각형 416" width="26.562" height="1.5" transform="translate(1.301 26.439) rotate(-68.497)" fill="#474747"/>
    <rect id="사각형_417" data-name="사각형 417" width="26.407" height="1.5" transform="matrix(0.51, -0.86, 0.86, 0.51, 7.089, 24.331)" fill="#474747"/>
    <rect id="사각형_418" data-name="사각형 418" width="1.501" height="21.823" transform="translate(1.329 27.049) rotate(-26.492)" fill="#474747"/>
    <rect id="사각형_419" data-name="사각형 419" width="1.5" height="21.9" transform="translate(6.998 24.851) rotate(-10.524)" fill="#474747"/>
    <g id="그룹_1086" data-name="그룹 1086">
      <g id="그룹_1085" data-name="그룹 1085" clip-path="url(#clip-path)">
        <path id="패스_534" data-name="패스 534" d="M25.1,54.036a.75.75,0,0,1-.29-1.442l14.586-6.1a.751.751,0,0,1,.579,1.385l-14.586,6.1a.761.761,0,0,1-.289.058" fill="#474747"/>
        <path id="패스_535" data-name="패스 535" d="M15.962,52.138a.755.755,0,0,1-.581-.273l-4.226-5.143a.75.75,0,0,1,1.159-.953l4.226,5.142a.75.75,0,0,1-.578,1.227" fill="#474747"/>
        <path id="패스_536" data-name="패스 536" d="M32.839,96.066a.75.75,0,0,1-.71-.509L20.66,61.861a.75.75,0,0,1,1.42-.483l11.469,33.7a.75.75,0,0,1-.71.991" fill="#474747"/>
        <rect id="사각형_420" data-name="사각형 420" width="1.5" height="17.537" transform="matrix(0.777, -0.63, 0.63, 0.777, 39.103, 47.657)" fill="#474747"/>
        <rect id="사각형_421" data-name="사각형 421" width="27.241" height="1.5" transform="translate(42.951 86.926) rotate(-74.973)" fill="#474747"/>
        <rect id="사각형_422" data-name="사각형 422" width="1.5" height="38.756" transform="translate(43.028 87.482) rotate(-28.559)" fill="#474747"/>
        <rect id="사각형_423" data-name="사각형 423" width="33.217" height="1.5" transform="matrix(0.172, -0.985, 0.985, 0.172, 26.385, 127.908)" fill="#474747"/>
        <rect id="사각형_424" data-name="사각형 424" width="35.76" height="1.501" transform="matrix(0.981, -0.192, 0.192, 0.981, 26.975, 127.295)" fill="#474747"/>
        <rect id="사각형_425" data-name="사각형 425" width="1.5" height="32.796" transform="matrix(0.545, -0.839, 0.839, 0.545, 50.319, 61.437)" fill="#474747"/>
        <rect id="사각형_426" data-name="사각형 426" width="4.982" height="1.501" transform="matrix(0.803, -0.596, 0.596, 0.803, 77.781, 78.076)" fill="#474747"/>
        <rect id="사각형_427" data-name="사각형 427" width="13.254" height="1.5" transform="matrix(0.229, -0.973, 0.973, 0.229, 81.5, 75.537)" fill="#474747"/>
        <rect id="사각형_428" data-name="사각형 428" width="6.325" height="1.5" transform="translate(84.558 62.57) rotate(-71.541)" fill="#474747"/>
        <rect id="사각형_429" data-name="사각형 429" width="1.5" height="30.359" transform="translate(82.527 26.813) rotate(-7.571)" fill="#474747"/>
        <rect id="사각형_430" data-name="사각형 430" width="7.107" height="1.5" transform="translate(32.519 94.641) rotate(-25.352)" fill="#474747"/>
        <rect id="사각형_431" data-name="사각형 431" width="6.792" height="1.5" transform="translate(38.693 91.788) rotate(-49.353)" fill="#474747"/>
      </g>
    </g>
  </g>
</svg>
