<?xml version="1.0" encoding="utf-8"?>
<!-- Generator: Adobe Illustrator 25.0.1, SVG Export Plug-In . SVG Version: 6.00 Build 0)  -->
<svg version="1.1" id="Layer_1" xmlns="http://www.w3.org/2000/svg" xmlns:xlink="http://www.w3.org/1999/xlink" x="0px" y="0px"
	 viewBox="0 0 138 138" style="enable-background:new 0 0 138 138;" xml:space="preserve">
<style type="text/css">
	.st0{opacity:0.5;}
	.st1{fill:none;stroke:#000000;stroke-width:2;stroke-linecap:round;stroke-linejoin:round;}
	.st2{fill:#767676;}
	.st3{opacity:0;}
	.st4{fill:#B3B3B3;}
	.st5{fill:#878789;}
	.st6{clip-path:url(#SVGID_2_);}
	.st7{fill-rule:evenodd;clip-rule:evenodd;fill:#ECECEC;}
	.st8{clip-path:url(#SVGID_4_);}
	.st9{fill:#231F20;}
	.st10{clip-path:url(#SVGID_6_);}
	.st11{fill:#79797A;}
	.st12{fill:none;}
	.st13{fill:#FAFAFA;}
	.st14{clip-path:url(#SVGID_8_);}
	.st15{clip-path:url(#SVGID_10_);}
	.st16{clip-path:url(#SVGID_12_);}
	.st17{clip-path:url(#SVGID_14_);}
</style>
<g id="그룹_364" transform="translate(216.887 409.281)">
	<path id="패스_217" class="st13" d="M-138.6-322.7c-0.51-0.01-1-0.19-1.4-0.5l-8.5-6.2l-8.5,6.2c-1.08,0.78-2.59,0.53-3.37-0.55
		c-0.01-0.02-0.02-0.03-0.03-0.05c-0.49-0.62-0.61-1.47-0.3-2.2l3.3-9.9l-8.5-6.2c-1.09-0.84-1.31-2.39-0.5-3.5
		c0.46-0.59,1.15-0.96,1.9-1h10.5l3.2-10c0.19-0.61,0.63-1.11,1.2-1.4c0.58-0.33,1.29-0.37,1.9-0.1c0.75,0.25,1.35,0.85,1.6,1.6
		l3.2,10h10.5c0.66,0.02,1.3,0.27,1.8,0.7c0.47,0.48,0.73,1.13,0.7,1.8c-0.02,0.78-0.38,1.52-1,2l-8.5,6.2l3.3,10
		c0.41,1.3-0.3,2.68-1.6,3.1L-138.6-322.7z M-148.6-331.8l9.7,7.1c0.12,0.08,0.26,0.11,0.4,0.1c0.24-0.06,0.38-0.31,0.32-0.54
		c0-0.02-0.01-0.04-0.02-0.06l-3.7-11.3l9.7-7c0.12-0.1,0.2-0.24,0.2-0.4c0.01-0.11-0.03-0.22-0.1-0.3c-0.08-0.08-0.19-0.11-0.3-0.1
		h-12l-3.7-11.4c-0.04-0.14-0.16-0.26-0.3-0.3c-0.2-0.1-0.3,0-0.4,0c-0.1,0-0.2,0.1-0.2,0.3l-3.7,11.4h-11.9
		c-0.15,0.02-0.29,0.09-0.4,0.2c-0.08,0.12-0.11,0.26-0.1,0.4c0,0.1,0,0.2,0.2,0.3l9.7,7l-3.7,11.3c-0.01,0.14,0.02,0.28,0.1,0.4
		c0.09,0.19,0.32,0.26,0.51,0.17c0.03-0.02,0.07-0.04,0.09-0.07L-148.6-331.8z"/>
</g>
</svg>
