<?xml version="1.0" encoding="utf-8"?>
<!-- Generator: Adobe Illustrator 25.0.1, SVG Export Plug-In . SVG Version: 6.00 Build 0)  -->
<svg version="1.1" id="Layer_1" xmlns="http://www.w3.org/2000/svg" xmlns:xlink="http://www.w3.org/1999/xlink" x="0px" y="0px"
	 viewBox="0 0 138 138" style="enable-background:new 0 0 138 138;" xml:space="preserve">
<style type="text/css">
	.st0{opacity:0.5;}
	.st1{fill:none;stroke:#000000;stroke-width:2;stroke-linecap:round;stroke-linejoin:round;}
	.st2{fill:#767676;}
	.st3{opacity:0;}
	.st4{fill:#B3B3B3;}
	.st5{fill:#878789;}
	.st6{clip-path:url(#SVGID_2_);}
	.st7{fill-rule:evenodd;clip-rule:evenodd;fill:#ECECEC;}
	.st8{clip-path:url(#SVGID_4_);}
	.st9{fill:#231F20;}
	.st10{clip-path:url(#SVGID_6_);}
	.st11{fill:#79797A;}
	.st12{fill:none;}
	.st13{fill:#FAFAFA;}
	.st14{clip-path:url(#SVGID_8_);}
	.st15{clip-path:url(#SVGID_10_);}
	.st16{clip-path:url(#SVGID_12_);}
	.st17{clip-path:url(#SVGID_14_);}
</style>
<g id="그룹_1451" transform="translate(-3334 -3856)">
	<g id="그룹_1446" transform="translate(3488 4286)">
		<g id="그룹_1445">
			<g id="그룹_1444" transform="translate(0 0)">
				<g id="그룹_1443">
					<path class="st13" d="M-85.46-331.09c-9.57,0-17.36-7.45-17.36-16.62c0.02-6.25,3.66-12.06,9.29-14.8
						c0.37-0.18,0.82-0.02,1,0.35c0.18,0.37,0.03,0.82-0.35,1c-5.11,2.49-8.43,7.77-8.44,13.45c0,8.33,7.11,15.12,15.86,15.12
						c8.74,0,15.85-6.78,15.85-15.12c-0.02-5.69-3.21-10.79-8.31-13.31c-0.37-0.18-0.52-0.63-0.34-1c0.18-0.37,0.63-0.53,1-0.34
						c5.62,2.78,9.12,8.39,9.14,14.66C-68.11-338.54-75.89-331.09-85.46-331.09z"/>
					<path class="st13" d="M-93.52-366.05c-0.2,0-0.4-0.08-0.54-0.23c-1.79-1.89-2.79-4.36-2.84-6.96c0-3.1,1.48-6.04,3.96-7.88
						c0.13-0.1,0.29-0.15,0.45-0.15h13.44c0.16,0,0.32,0.05,0.45,0.15c2.48,1.88,3.91,4.74,3.95,7.85
						c-0.04,2.59-1.05,5.01-2.84,6.85c-0.29,0.3-0.76,0.3-1.06,0.01c-0.3-0.29-0.3-0.76-0.01-1.06c1.52-1.56,2.38-3.63,2.42-5.81
						c-0.03-2.54-1.18-4.9-3.16-6.5h-12.93c-1.98,1.56-3.16,3.98-3.16,6.51c0.04,2.21,0.9,4.33,2.43,5.94
						c0.28,0.3,0.27,0.78-0.03,1.06C-93.15-366.12-93.33-366.05-93.52-366.05z"/>
					<g id="그룹_1436" transform="translate(16.312 7.309)" class="st3">
						<g id="그룹_1435">
							<g>
								<defs>
									<rect id="SVGID_9_" x="-111" y="-392" width="18.11" height="4.17"/>
								</defs>
								<clipPath id="SVGID_2_">
									<use xlink:href="#SVGID_9_"  style="overflow:visible;"/>
								</clipPath>
								<g id="그룹_1434" class="st6">
									<g>
										<path id="패스_772_1_" class="st7" d="M-109.68-392h15.48c0.71-0.02,1.3,0.55,1.32,1.26c0,0.03,0,0.06,0,0.09v1.48
											c-0.01,0.73-0.59,1.31-1.32,1.35h-15.48c-0.71,0.02-1.3-0.55-1.32-1.26c0-0.03,0-0.06,0-0.09v-1.48
											c-0.03-0.71,0.52-1.31,1.23-1.34C-109.74-392-109.71-392-109.68-392"/>
										<path class="st13" d="M-109.72-387.33c-0.45,0-0.89-0.17-1.23-0.5c-0.34-0.33-0.54-0.78-0.55-1.25v-1.58
											c-0.04-0.96,0.72-1.8,1.71-1.84l15.59,0c0.99,0.01,1.79,0.76,1.82,1.75l0,1.58c-0.02,1-0.81,1.8-1.79,1.84h-15.51
											C-109.7-387.33-109.71-387.33-109.72-387.33z M-109.69-392l-0.05,0.5c-0.45,0.02-0.78,0.39-0.76,0.82v1.5
											c0,0.28,0.09,0.48,0.24,0.63s0.36,0.21,0.56,0.22h15.5c0.44-0.02,0.81-0.4,0.81-0.85v-1.47c-0.01-0.51-0.34-0.83-0.8-0.84
											h-15.51L-109.69-392z"/>
									</g>
								</g>
							</g>
						</g>
					</g>
					<path class="st13" d="M-93.42-379.77c-0.51,0-1.01-0.2-1.39-0.57c-0.39-0.38-0.62-0.88-0.63-1.43l0-0.03l0-0.12l0-1.43
						c-0.02-0.51,0.17-1.03,0.53-1.43c0.37-0.4,0.87-0.64,1.41-0.66l0.12,0h15.48c0.01,0,0.03,0,0.04,0c1.09,0,2,0.88,2.02,1.99
						l0,0.03l0,0.12l0,1.43c-0.02,1.13-0.92,2.05-2.03,2.09l-15.52,0C-93.39-379.77-93.4-379.77-93.42-379.77z M-93.37-384.69
						l-0.04,0.75c-0.16,0.01-0.29,0.07-0.39,0.17c-0.1,0.11-0.15,0.24-0.14,0.39l0,1.51c0.01,0.37,0.26,0.62,0.55,0.59h15.5
						c0.3-0.01,0.56-0.28,0.56-0.61v-1.46c0-0.21-0.06-0.35-0.16-0.45c-0.1-0.1-0.23-0.15-0.38-0.15H-93.4L-93.37-384.69z"/>
					<g id="그룹_1439" transform="translate(16.312 25.732)" class="st3">
						<g id="그룹_1438">
							<g>
								<defs>
									<rect id="SVGID_11_" x="-111" y="-392" width="18.11" height="4.17"/>
								</defs>
								<clipPath id="SVGID_4_">
									<use xlink:href="#SVGID_11_"  style="overflow:visible;"/>
								</clipPath>
								<g id="그룹_1437" class="st8">
									<g>
										<path id="패스_774_1_" class="st7" d="M-109.68-392h15.48c0.71-0.02,1.3,0.55,1.32,1.26c0,0.03,0,0.06,0,0.09v1.48
											c-0.01,0.73-0.59,1.32-1.31,1.35h-15.48c-0.71,0.02-1.3-0.55-1.32-1.26c0-0.03,0-0.06,0-0.09v-1.48
											c-0.03-0.71,0.52-1.31,1.23-1.34C-109.74-392-109.71-392-109.68-392"/>
										<path class="st13" d="M-109.72-387.33c-0.45,0-0.89-0.17-1.23-0.5c-0.34-0.33-0.54-0.78-0.55-1.25v-1.58
											c-0.04-0.96,0.72-1.8,1.71-1.84l15.59,0c0.46-0.01,0.92,0.17,1.26,0.5c0.34,0.33,0.54,0.78,0.55,1.25l0,1.58
											c-0.02,1-0.8,1.8-1.79,1.85h-15.51C-109.7-387.33-109.71-387.33-109.72-387.33z M-109.69-392l-0.07,0.5
											c-0.43,0.02-0.77,0.39-0.75,0.82v1.5c0,0.29,0.09,0.48,0.24,0.63c0.15,0.15,0.36,0.23,0.56,0.22h15.5
											c0.44-0.02,0.81-0.4,0.81-0.86v-1.47c0-0.29-0.09-0.48-0.24-0.63c-0.15-0.14-0.35-0.22-0.56-0.22h-15.51L-109.69-392z"/>
									</g>
								</g>
							</g>
						</g>
					</g>
					<path class="st13" d="M-93.42-361.35c-0.51,0-1.01-0.2-1.39-0.57c-0.39-0.38-0.62-0.88-0.63-1.43l0-0.03l0-0.12l0-1.43
						c-0.02-0.51,0.17-1.03,0.53-1.43c0.37-0.4,0.87-0.64,1.41-0.66l0.12,0h15.48c0.53,0.01,1.04,0.19,1.44,0.57
						c0.39,0.38,0.62,0.88,0.63,1.43l0,0.03l0,0.12l0,1.43c-0.02,1.13-0.91,2.05-2.03,2.1l-15.52,0
						C-93.39-361.35-93.4-361.35-93.42-361.35z M-93.4-365.52c-0.17,0.01-0.3,0.07-0.4,0.17c-0.1,0.11-0.15,0.24-0.14,0.39l0,1.52
						c0,0.21,0.06,0.35,0.17,0.45c0.1,0.1,0.25,0.16,0.38,0.15h15.5c0.3-0.01,0.56-0.28,0.56-0.61v-1.47c0-0.21-0.06-0.35-0.17-0.45
						c-0.1-0.1-0.23-0.16-0.38-0.15H-93.4z"/>
					<path class="st13" d="M-77.61-384.07l-0.85-1.24c0.01-0.01,0.01-0.01,0.01-0.01c0.06-0.12-0.07-0.6-0.12-0.78l-0.04-0.15
						c-0.3-1.74,0.27-2.5,0.79-2.85c0.69-0.45,1.65-0.43,2.85,0.06c-0.72-0.99-1.41-1.01-4.31-1.08l-0.53-0.01c0,0-0.01,0-0.01,0
						c-0.69,0-1.45-0.02-2.23-0.05c-4.45-0.13-9.5-0.29-10.28,3.3c-0.01,0.13-0.05,0.29-0.11,0.51c-0.06,0.25-0.25,1.02-0.19,1.25
						c0-0.02-0.03-0.07-0.09-0.13l-1.02,1.1c-0.65-0.6-0.37-1.74-0.17-2.58c0.03-0.13,0.06-0.24,0.07-0.31l0.01-0.1
						c1-4.87,7-4.69,11.81-4.54c0.78,0.02,1.53,0.05,2.22,0.05l0.55,0.01c4.32,0.11,4.67,0.12,6.33,3.1l0.98,1.75h-1.1
						c-0.11,0.07-0.27,0.13-0.48,0.13h-0.22l-0.19-0.12c-1.86-1.22-2.81-1.26-3.08-1.08c-0.21,0.13-0.26,0.62-0.15,1.27l0.02,0.06
						C-76.97-385.93-76.63-384.74-77.61-384.07z"/>
					<g>
						<path id="패스_777_1_" class="st9" d="M-88.99-376.62c0.3,0.02,0.52,0.29,0.49,0.58c-0.02,0.3-0.29,0.52-0.58,0.49
							c-0.28-0.02-0.5-0.26-0.5-0.54C-89.56-376.39-89.3-376.63-88.99-376.62"/>
						<path class="st13" d="M-89.03-375.04c-0.03,0-0.06,0-0.09,0c-0.54-0.04-0.95-0.49-0.95-1.04c0.01-0.3,0.13-0.57,0.34-0.76
							c0.21-0.19,0.49-0.28,0.76-0.28l0.02,0c0.28,0.02,0.53,0.15,0.71,0.37c0.18,0.21,0.26,0.48,0.24,0.76
							c-0.02,0.28-0.15,0.53-0.36,0.71C-88.55-375.13-88.79-375.04-89.03-375.04z M-89.08-376.07
							C-89.08-376.07-89.08-376.07-89.08-376.07L-89.08-376.07z"/>
					</g>
					<path class="st13" d="M-89.03-375.04c-0.03,0-0.06,0-0.09,0c-0.54-0.04-0.95-0.49-0.95-1.04c0.01-0.3,0.13-0.57,0.34-0.76
						c0.21-0.19,0.49-0.28,0.76-0.28c0.01,0,0.01,0,0.02,0c0.28,0.02,0.53,0.15,0.71,0.37c0.18,0.21,0.26,0.48,0.24,0.76
						c-0.02,0.28-0.15,0.53-0.36,0.71C-88.55-375.13-88.79-375.04-89.03-375.04z M-89.08-376.07
						C-89.08-376.07-89.08-376.07-89.08-376.07L-89.08-376.07z"/>
					<g>
						<path id="패스_779_1_" class="st9" d="M-82.42-376.62c0.3,0.02,0.52,0.29,0.49,0.58c-0.02,0.3-0.29,0.52-0.58,0.49
							c-0.28-0.02-0.5-0.26-0.5-0.54C-82.99-376.39-82.73-376.63-82.42-376.62"/>
						<path class="st13" d="M-82.46-375.04c-0.03,0-0.06,0-0.09,0c-0.54-0.04-0.95-0.49-0.95-1.04c0.03-0.6,0.54-1.05,1.1-1.04
							l0.02,0c0.57,0.05,1,0.55,0.95,1.12c-0.02,0.28-0.15,0.53-0.36,0.71C-81.98-375.13-82.21-375.04-82.46-375.04z M-82.5-376.08
							c0,0,0,0.01,0,0.01L-82.5-376.08z"/>
					</g>
					<path class="st13" d="M-82.46-375.04c-0.03,0-0.06,0-0.09,0c-0.54-0.04-0.95-0.49-0.95-1.04c0.03-0.6,0.54-1.05,1.1-1.04
						c0.01,0,0.02,0,0.02,0c0.57,0.05,1,0.55,0.95,1.12c-0.02,0.28-0.15,0.53-0.36,0.71C-81.98-375.13-82.21-375.04-82.46-375.04z
						 M-82.5-376.08c0,0,0,0.01,0,0.01L-82.5-376.08z"/>
					<path class="st13" d="M-85.7-368.75c-1.79,0-3.58-0.75-5.36-2.24c-0.21-0.18-0.24-0.49-0.06-0.7c0.18-0.21,0.49-0.24,0.7-0.06
						c3.17,2.67,6.26,2.67,9.44,0c0.21-0.18,0.53-0.15,0.7,0.06c0.18,0.21,0.15,0.53-0.06,0.7
						C-82.12-369.5-83.91-368.75-85.7-368.75z"/>
					<path class="st13" d="M-71.71-383.1c-1.24,0-2.25-1.01-2.25-2.25s1.01-2.25,2.25-2.25s2.25,1.01,2.25,2.25
						S-70.47-383.1-71.71-383.1z M-71.71-386.1c-0.41,0-0.75,0.34-0.75,0.75s0.34,0.75,0.75,0.75s0.75-0.34,0.75-0.75
						S-71.3-386.1-71.71-386.1z"/>
					<g id="그룹_1442" transform="translate(30.19 30.552)" class="st3">
						<g id="그룹_1441">
							<g>
								<defs>
									<rect id="SVGID_13_" x="-111" y="-392" width="3.65" height="13.47"/>
								</defs>
								<clipPath id="SVGID_6_">
									<use xlink:href="#SVGID_13_"  style="overflow:visible;"/>
								</clipPath>
								<g id="그룹_1440" class="st10">
									<g>
										<path id="패스_783_1_" class="st7" d="M-107.35-391.04v11.57c-0.08,0.57-0.59,0.98-1.17,0.94h-1.31
											c-0.58,0.04-1.09-0.37-1.17-0.94v-11.57c0.08-0.57,0.59-0.98,1.17-0.94h1.32c0.55-0.09,1.07,0.29,1.16,0.84
											C-107.35-391.11-107.35-391.07-107.35-391.04"/>
										<path class="st13" d="M-109.94-378.03c-0.76,0-1.44-0.58-1.56-1.37l0-11.64c0.12-0.9,0.87-1.5,1.71-1.44l1.28,0
											c0.75-0.12,1.52,0.43,1.65,1.26c0.01,0.06,0.01,0.11,0.02,0.16l-0.5,0.03h0.5v11.56c-0.12,0.9-0.88,1.51-1.71,1.44
											l-1.28,0C-109.87-378.03-109.9-378.03-109.94-378.03z M-109.88-391.48c-0.33,0-0.58,0.22-0.62,0.51l0,11.49
											c0.04,0.24,0.32,0.46,0.63,0.44l1.35,0c0.35,0.01,0.63-0.2,0.67-0.51l0-11.48c-0.03-0.18-0.1-0.3-0.21-0.37
											c-0.11-0.08-0.24-0.11-0.38-0.09l-1.39,0.01C-109.85-391.48-109.86-391.48-109.88-391.48z"/>
									</g>
								</g>
							</g>
						</g>
					</g>
					<path class="st13" d="M-79.77-347.22c-0.86,0-1.66-0.67-1.79-1.59l-0.01-0.11l0.01-11.67c0.13-0.96,1.01-1.65,1.97-1.58l1.21,0
						c0.93-0.11,1.8,0.53,1.95,1.47c0.01,0.07,0.02,0.12,0.02,0.18l0,0.04l-0.01,11.67c-0.14,0.96-1.01,1.65-1.97,1.58l-1.26,0
						C-79.68-347.23-79.72-347.22-79.77-347.22z M-80.06-348.99c0.04,0.16,0.2,0.28,0.36,0.26l1.37,0c0.23,0.01,0.38-0.1,0.42-0.26
						l0-11.49c-0.02-0.13-0.16-0.22-0.3-0.2l-0.12,0.01h-1.31c-0.21-0.01-0.38,0.1-0.42,0.26V-348.99z"/>
					<path class="st13" d="M-73.62-358.23c-0.23,0-0.46-0.11-0.61-0.31c-0.24-0.34-0.17-0.8,0.17-1.05l7.92-5.7
						c0.34-0.24,0.81-0.16,1.05,0.17c0.24,0.34,0.17,0.8-0.17,1.05l-7.92,5.7C-73.31-358.28-73.47-358.23-73.62-358.23z"/>
					<path class="st13" d="M-99.82-356.25c-0.19,0-0.38-0.07-0.53-0.22l-8.49-8.49c-0.29-0.29-0.29-0.77,0-1.06s0.77-0.29,1.06,0
						l8.49,8.49c0.29,0.29,0.29,0.77,0,1.06C-99.44-356.32-99.63-356.25-99.82-356.25z"/>
					<path class="st13" d="M-104.84-360.7h-4c-0.41,0-0.75-0.34-0.75-0.75s0.34-0.75,0.75-0.75h4c0.41,0,0.75,0.34,0.75,0.75
						S-104.42-360.7-104.84-360.7z"/>
					<path class="st13" d="M-105.76-362.44c-0.11,0-0.21-0.02-0.32-0.07c-0.38-0.18-0.54-0.62-0.36-1l1.69-3.62
						c0.18-0.37,0.62-0.54,1-0.36c0.38,0.18,0.54,0.62,0.36,1l-1.69,3.62C-105.21-362.6-105.48-362.44-105.76-362.44z"/>
					<path class="st13" d="M-69.44-361.57c-0.07,0-0.15-0.01-0.22-0.03c-0.4-0.12-0.62-0.54-0.5-0.94l1.17-3.82
						c0.12-0.39,0.53-0.62,0.94-0.5c0.4,0.12,0.62,0.54,0.5,0.94l-1.17,3.82C-68.82-361.78-69.12-361.57-69.44-361.57z"/>
					<path class="st13" d="M-60.86-331.09h-49.11c-0.41,0-0.75-0.34-0.75-0.75s0.34-0.75,0.75-0.75h49.11
						c0.41,0,0.75,0.34,0.75,0.75S-60.45-331.09-60.86-331.09z"/>
				</g>
			</g>
		</g>
	</g>
</g>
</svg>
