<?xml version="1.0" encoding="utf-8"?>
<!-- Generator: Adobe Illustrator 25.0.1, SVG Export Plug-In . SVG Version: 6.00 Build 0)  -->
<svg version="1.1" id="Layer_1" xmlns="http://www.w3.org/2000/svg" xmlns:xlink="http://www.w3.org/1999/xlink" x="0px" y="0px"
	 viewBox="0 0 138 138" style="enable-background:new 0 0 138 138;" xml:space="preserve">
<style type="text/css">
	.st0{opacity:0.5;}
	.st1{fill:none;stroke:#000000;stroke-width:2;stroke-linecap:round;stroke-linejoin:round;}
	.st2{fill:#767676;}
	.st3{opacity:0;}
	.st4{fill:#B3B3B3;}
	.st5{fill:#878789;}
	.st6{clip-path:url(#SVGID_2_);}
	.st7{fill-rule:evenodd;clip-rule:evenodd;fill:#ECECEC;}
	.st8{clip-path:url(#SVGID_4_);}
	.st9{fill:#231F20;}
	.st10{clip-path:url(#SVGID_6_);}
	.st11{fill:#79797A;}
	.st12{fill:none;}
	.st13{fill:#FAFAFA;}
	.st14{clip-path:url(#SVGID_8_);}
	.st15{clip-path:url(#SVGID_10_);}
	.st16{clip-path:url(#SVGID_12_);}
	.st17{clip-path:url(#SVGID_14_);}
</style>
<g id="날_ᅵ1" transform="translate(41 206)">
	<g id="그룹_228" transform="translate(0 -1)">
		<path id="패스_103" class="st13" d="M34-144.1c-3.7,0-6.7-3-6.7-6.7s3-6.7,6.7-6.7c3.7,0,6.7,3,6.7,6.7S37.7-144.1,34-144.1
			L34-144.1z M34-156c-2.87,0-5.2,2.33-5.2,5.2c0,2.87,2.33,5.2,5.2,5.2s5.2-2.33,5.2-5.2C39.18-153.67,36.87-155.98,34-156z"/>
		<path id="패스_104" class="st13" d="M33.8-158.2c-0.4-0.02-0.73-0.31-0.8-0.7v-3.3c-0.02-0.42,0.31-0.76,0.72-0.78
			c0.4-0.01,0.74,0.28,0.78,0.68l0.1,3.3c0.01,0.44-0.34,0.79-0.78,0.8C33.81-158.2,33.81-158.2,33.8-158.2z"/>
		<path id="패스_105" class="st13" d="M34.2-138.5c-0.4-0.02-0.73-0.31-0.8-0.7l-0.1-3.3c-0.02-0.42,0.31-0.76,0.72-0.78
			c0.4-0.01,0.74,0.28,0.78,0.68l0.1,3.3C34.92-138.89,34.61-138.54,34.2-138.5z"/>
		<path id="패스_106" class="st13" d="M45.4-150.2L45.4-150.2l-3.3-0.1c-0.41-0.04-0.72-0.39-0.7-0.8c0-0.39,0.33-0.71,0.72-0.71
			c0.03,0,0.05,0,0.08,0.01l0,0l3.2,0.1c0.41,0.04,0.72,0.39,0.7,0.8c0.01,0.38-0.29,0.69-0.67,0.7
			C45.42-150.2,45.41-150.2,45.4-150.2z"/>
		<path id="패스_107" class="st13" d="M22.5-149.7c-0.4-0.02-0.73-0.31-0.8-0.7c-0.02-0.41,0.29-0.76,0.7-0.8l3.2-0.1l0,0
			c0.4,0.02,0.73,0.31,0.8,0.7c0.02,0.41-0.29,0.76-0.7,0.8L22.5-149.7z"/>
		<path id="패스_108" class="st13" d="M28-155.6c-0.19,0-0.36-0.07-0.5-0.2l-2.4-2.4c-0.3-0.31-0.29-0.8,0.02-1.1
			c0.3-0.29,0.78-0.29,1.08,0l2.4,2.4c0.3,0.31,0.3,0.79,0,1.1C28.42-155.69,28.21-155.62,28-155.6z"/>
		<path id="패스_109" class="st13" d="M42.2-142.1c-0.19,0-0.36-0.07-0.5-0.2l-2.4-2.2c-0.33-0.28-0.38-0.77-0.1-1.1
			c0.28-0.33,0.77-0.38,1.1-0.1l2.4,2.2c0.28,0.3,0.32,0.75,0.1,1.1C42.65-142.22,42.43-142.12,42.2-142.1z"/>
		<path id="패스_110" class="st13" d="M39.6-155.9c-0.19,0-0.36-0.07-0.5-0.2c-0.3-0.31-0.3-0.79,0-1.1l2.2-2.3
			c0.3-0.31,0.79-0.32,1.1-0.02s0.32,0.79,0.02,1.1c-0.01,0.01-0.02,0.02-0.02,0.02l-2.2,2.3C40.02-155.99,39.81-155.92,39.6-155.9z
			"/>
		<path id="패스_111" class="st13" d="M26.1-141.7c-0.19,0-0.36-0.07-0.5-0.2c-0.28-0.3-0.32-0.75-0.1-1.1l2.2-2.4
			c0.28-0.33,0.77-0.38,1.1-0.1s0.38,0.77,0.1,1.1l-2.2,2.4C26.55-141.82,26.33-141.72,26.1-141.7z"/>
	</g>
	<path id="패스_112" class="st13" d="M11.3-121.6L11.3-121.6c-5.68,0.01-10.29-4.59-10.3-10.27c0-0.01,0-0.02,0-0.03
		c-0.03-0.52,0.37-0.97,0.89-1c0.04,0,0.08,0,0.11,0c0.52-0.03,0.97,0.37,1,0.89c0,0.04,0,0.08,0,0.11
		c-0.01,4.57,3.69,8.29,8.26,8.3c0.01,0,0.03,0,0.04,0c0.55,0,1,0.45,1,1C12.3-122.05,11.85-121.6,11.3-121.6z"/>
	<path id="패스_113" class="st13" d="M2-130.9L2-130.9c-0.55,0-1-0.45-1-1c0.03-5.68,4.62-10.27,10.3-10.3
		c0.77,0.01,1.54,0.08,2.3,0.2c-0.19-1.68,0.36-3.36,1.5-4.6c1.5-1.6,4.1-2.3,7.4-1.9c0.51,0.12,0.88,0.57,0.9,1.1
		c-0.12,0.51-0.57,0.88-1.1,0.9c-2.6-0.3-4.6,0.1-5.6,1.3c-0.9,1-1.2,2.5-0.8,4.5c0.07,0.38-0.09,0.77-0.4,1
		c-0.28,0.23-0.68,0.27-1,0.1c-0.98-0.4-2.04-0.6-3.1-0.6c-4.57-0.01-8.29,3.69-8.3,8.26c0,0.01,0,0.03,0,0.04
		C3.05-131.33,2.57-130.89,2-130.9z"/>
	<path id="패스_114" class="st13" d="M39.1-121.6c-0.55,0-1-0.45-1-1c-0.03-0.52,0.37-0.97,0.89-1c0.04,0,0.08,0,0.11,0
		c4.57,0.01,8.29-3.69,8.3-8.26c0-0.01,0-0.03,0-0.04c0-4.6-2.8-7.4-7.4-7.4c-0.55,0-1-0.45-1-1c0-0.55,0.45-1,1-1
		c5.6,0,9.4,3.8,9.4,9.4c0.01,5.68-4.59,10.29-10.27,10.3C39.12-121.6,39.11-121.6,39.1-121.6z"/>
	<path id="패스_115" class="st13" d="M13-112.1c-0.27,0.01-0.52-0.1-0.7-0.3c-0.39-0.37-0.4-0.98-0.03-1.37
		c0.01-0.01,0.02-0.02,0.03-0.03l14.8-14.7c0.38-0.39,1.01-0.4,1.4-0.01c0.39,0.38,0.4,1.01,0.01,1.4c0,0-0.01,0.01-0.01,0.01
		l-14.8,14.7C13.52-112.2,13.27-112.09,13-112.1z"/>
	<path id="패스_116" class="st13" d="M21-111.2c-0.27,0.01-0.52-0.1-0.7-0.3c-0.39-0.37-0.4-0.98-0.03-1.37
		c0.01-0.01,0.02-0.02,0.03-0.03l7.6-7.6c0.38-0.39,1.01-0.4,1.4-0.01c0.39,0.38,0.4,1.01,0.01,1.4c0,0-0.01,0.01-0.01,0.01
		l-7.6,7.6C21.52-111.3,21.27-111.19,21-111.2z"/>
	<path id="패스_117" class="st13" d="M30.5-120.8c-0.27,0.01-0.52-0.1-0.7-0.3c-0.39-0.37-0.4-0.98-0.03-1.37
		c0.01-0.01,0.02-0.02,0.03-0.03l2.4-2.3c0.39-0.38,1.02-0.38,1.4,0.01c0.38,0.38,0.38,1,0,1.39l-2.4,2.3
		C31.01-120.92,30.76-120.81,30.5-120.8z"/>
</g>
</svg>
