<?xml version="1.0" encoding="utf-8"?>
<!-- Generator: Adobe Illustrator 25.0.1, SVG Export Plug-In . SVG Version: 6.00 Build 0)  -->
<svg version="1.1" id="Layer_1" xmlns="http://www.w3.org/2000/svg" xmlns:xlink="http://www.w3.org/1999/xlink" x="0px" y="0px"
	 viewBox="0 0 138 138" style="enable-background:new 0 0 138 138;" xml:space="preserve">
<style type="text/css">
	.st0{opacity:0.5;}
	.st1{fill:none;stroke:#000000;stroke-width:2;stroke-linecap:round;stroke-linejoin:round;}
	.st2{fill:#767676;}
	.st3{opacity:0;}
	.st4{fill:#B3B3B3;}
	.st5{fill:#878789;}
	.st6{clip-path:url(#SVGID_2_);}
	.st7{fill-rule:evenodd;clip-rule:evenodd;fill:#ECECEC;}
	.st8{clip-path:url(#SVGID_4_);}
	.st9{fill:#231F20;}
	.st10{clip-path:url(#SVGID_6_);}
	.st11{fill:#79797A;}
	.st12{fill:none;}
	.st13{fill:#FAFAFA;}
	.st14{clip-path:url(#SVGID_8_);}
	.st15{clip-path:url(#SVGID_10_);}
	.st16{clip-path:url(#SVGID_12_);}
	.st17{clip-path:url(#SVGID_14_);}
</style>
<g id="그룹_140" transform="translate(253.191 199.776)">
	<path id="패스_127" class="st13" d="M-197.9-121.1c-1.45,0-2.88-0.31-4.2-0.9c-2.52-1.06-4.48-3.13-5.4-5.7
		c-2.05-5.34,0.62-11.32,5.95-13.37c2.16-0.83,4.54-0.91,6.75-0.23c1.71-6.16,8.09-9.77,14.25-8.07c3.78,1.05,6.77,3.93,7.95,7.67
		c0.56-0.08,1.13-0.12,1.7-0.1c5.68,0.03,10.27,4.62,10.3,10.3c-0.01,2.73-1.09,5.35-3,7.3c-1.94,1.93-4.56,3.01-7.3,3l0,0
		c-0.55,0-1-0.45-1-1c-0.03-0.52,0.37-0.97,0.89-1c0.04,0,0.08,0,0.11,0l0,0c2.2-0.02,4.31-0.88,5.9-2.4
		c1.56-1.57,2.46-3.68,2.5-5.9c0.01-4.57-3.69-8.29-8.26-8.3c-0.01,0-0.03,0-0.04,0l0,0c-0.71,0-1.42,0.1-2.1,0.3
		c-0.27,0.07-0.55,0.03-0.8-0.1c-0.22-0.15-0.39-0.36-0.5-0.6c-1.19-5.17-6.31-8.43-11.5-7.3c-3.77,0.84-6.66,3.89-7.3,7.7
		c-0.1,0.3-0.2,0.6-0.5,0.7c-0.28,0.15-0.62,0.15-0.9,0c-4.19-1.9-9.12-0.05-11.02,4.14s-0.05,9.12,4.14,11.02
		c0.03,0.01,0.06,0.03,0.09,0.04c1.07,0.48,2.23,0.72,3.4,0.7c0.52-0.03,0.97,0.37,1,0.89c0,0.04,0,0.08,0,0.11
		C-196.84-121.61-197.31-121.14-197.9-121.1z"/>
	<path id="패스_128" class="st13" d="M-195.8-118.3c-0.27,0.01-0.52-0.1-0.7-0.3c-0.39-0.37-0.4-0.98-0.03-1.37
		c0.01-0.01,0.02-0.02,0.03-0.03l5.7-5.7c0.39-0.38,1.02-0.38,1.4,0.01c0.38,0.38,0.38,1,0,1.39l-5.7,5.7
		C-195.28-118.4-195.53-118.29-195.8-118.3z"/>
	<path id="패스_129" class="st13" d="M-194.5-111.6c-0.27,0.01-0.52-0.1-0.7-0.3c-0.39-0.37-0.4-0.98-0.03-1.37
		c0.01-0.01,0.02-0.02,0.03-0.03l14.7-14.7c0.39-0.38,1.02-0.38,1.4,0.01c0.38,0.38,0.38,1,0,1.39l-14.7,14.7
		C-193.99-111.72-194.24-111.61-194.5-111.6z"/>
	<path id="패스_130" class="st13" d="M-186.6-110.7c-0.27,0.01-0.52-0.1-0.7-0.3c-0.39-0.37-0.4-0.98-0.03-1.37
		c0.01-0.01,0.02-0.02,0.03-0.03l7.6-7.6c0.38-0.39,1.01-0.4,1.4-0.01c0.39,0.38,0.4,1.01,0.01,1.4c0,0-0.01,0.01-0.01,0.01
		l-7.6,7.6C-186.09-110.82-186.34-110.71-186.6-110.7z"/>
	<path id="패스_131" class="st13" d="M-177.1-120.2c-0.27,0.01-0.52-0.1-0.7-0.3c-0.39-0.37-0.4-0.98-0.03-1.37
		c0.01-0.01,0.02-0.02,0.03-0.03l2.4-2.4c0.39-0.38,1.02-0.38,1.4,0.01c0.38,0.38,0.38,1,0,1.39l-2.4,2.4
		C-176.58-120.3-176.83-120.19-177.1-120.2z"/>
	<path id="패스_132" class="st13" d="M-200.3-113.8c-0.27,0.01-0.52-0.1-0.7-0.3c-0.39-0.37-0.4-0.98-0.03-1.37
		c0.01-0.01,0.02-0.02,0.03-0.03l2.4-2.4c0.39-0.38,1.02-0.38,1.4,0.01c0.38,0.38,0.38,1,0,1.39l-2.4,2.4
		C-199.79-113.92-200.04-113.81-200.3-113.8z"/>
</g>
</svg>
