<svg xmlns="http://www.w3.org/2000/svg" viewBox="0 0 268 1"><defs><style>.cls-1{fill:#79e6d1;opacity:0.5;isolation:isolate;}</style></defs><g id="레이어_2" data-name="레이어 2"><g id="Layer_1" data-name="Layer 1"><path id="선" class="cls-1" d="M268,1h-4V0h4ZM256,1h-4V0h4ZM244,1h-4V0h4ZM232,1h-4V0h4ZM220,1h-4V0h4ZM208,1h-4V0h4ZM196,1h-4V0h4ZM184,1h-4V0h4ZM172,1h-4V0h4ZM160,1h-4V0h4ZM148,1h-4V0h4ZM136,1h-4V0h4ZM124,1h-4V0h4ZM112,1h-4V0h4ZM100,1H96V0h4ZM88,1H84V0h4ZM76,1H72V0h4ZM64,1H60V0h4ZM52,1H48V0h4ZM40,1H36V0h4ZM28,1H24V0h4ZM16,1H12V0h4ZM4,1H0V0H4Z"/></g></g></svg>