<svg xmlns="http://www.w3.org/2000/svg" viewBox="0 0 306.58 128.3"><defs><style>.cls-1{fill-rule:evenodd;opacity:0.04;isolation:isolate;}</style></defs><g id="레이어_2" data-name="레이어 2"><g id="레이어_1-2" data-name="레이어 1"><path class="cls-1" d="M130.34,4.6c.38,0,.74.46,1.1.71a4.26,4.26,0,0,1-.67.85c-1,.74-2.06,1.36-3,2.18s-1.62,1.36-.86,2.87-.45,2.83-2.08,3.23c-1,.23-1.23.65-1,1.62.1.42-.19.94-.3,1.42-.35-.25-.71-.48-1.09-.7a11.66,11.66,0,0,0-1.17-.43,4.28,4.28,0,0,1,.33,1.09c0,.31,0,.8-.24.91a6.57,6.57,0,0,1-1.61.57c-2.86.79-5.71,1.64-8.6,2.31-1.93.45-2.44,2.18-3.24,3.48s-1.15,1.62-2.78,1.06C101.78,24.61,99.5,23,99,19.17c-.16-1.1-1.6-2,.42-2.65.11,0,.15-.28.22-.43-.25-.08-.61-.32-.75-.23-1.38.9-1.65.25-1.92-1.07a2.64,2.64,0,0,0-1.58-1.74c-2.47-.54-5.09-1.41-7.45-1-1.7.3-2.09-1-3.19-1.1.1-.2.16-.48.32-.59,2.41-1.54,4.76-3,7.23-4.47a30.62,30.62,0,0,1,3.42-1.51c1.25.26,2,.48,2.74.56a5.87,5.87,0,0,0,1.87-.06c.3-2.3,2.57-1.77,3.82-2.5,4.22-2.46,8.75-3.27,13.48-1.2a3.94,3.94,0,0,0,2.07.11C121.57,1,123,1,123.74,3.45c.94,3,1.77,3,4.76,1.51A4,4,0,0,1,130.34,4.6ZM250.25,82.28a14.1,14.1,0,0,0,1.89-4,8.59,8.59,0,0,0-.47-3.76c-.2-.75-.48-1.23-1.48-.2-1.4,1.42-3.39,2.25-5.06,3.43a2.13,2.13,0,0,0-.85,1.57c.29,2,2.08,3.2,5,3.24C249.43,82.57,250.1,82.57,250.25,82.28Zm-60,8.91c-1,.82-2,1.65-3,2.54a2.5,2.5,0,0,0-.88,1.28c-.08,1.2-.09,2.41-.05,3.61l-.51.23c.63,1,1.11,2.69,1.95,2.9,1.69.43,1.91-1.38,2.34-2.61.52-1.53,1.08-3,1.51-4.6a10.93,10.93,0,0,0,.34-2.79c0-.4-.4-.79-.62-1.19a7.56,7.56,0,0,0-1.11.63Zm-75.5-7.71c-3.28-1.28-6.71-2.17-10-3.52a2.08,2.08,0,0,0-2.25,0c-.24.15-.68,0-1,0,.21-.25.37-.61.64-.72,1.46-.61,1.59-1.12.42-2.42-1.33-1.49-2.47-2.86-4.71-2.59a1.82,1.82,0,0,1-1.21-.61c-2.38-2.19-4.81-4.21-8.38-3.75a1.88,1.88,0,0,1-1.33-.24c-1-.93-1.47-.25-2,.56a3.58,3.58,0,0,1-.77.68c-.08-.35-.3-.74-.21-1,.32-1.15.06-1.47-1-.84-1.83,1-3,2.74-6,2.17s-3.5-.2-3.23-3.38c.18-2.17,0-2.4-2.23-2.31-1.81.07-2.18-.39-1.67-2.19A12.56,12.56,0,0,1,70.44,62c.4-.94.07-1.52-1-1.5s-1.86-.06-2.45,1.33-2.2,1.64-3.64.9c-2-1-2.83-4.26-2-7.18.36-1.22,3-2.36,4.82-2.29A7.34,7.34,0,0,0,69,52.82a4.47,4.47,0,0,1,5.37,1.83,15.6,15.6,0,0,0,2,2.14c-.07-1-.1-2.11-.21-3.16,0-.27-.36-.53-.33-.77.06-.59,0-1.41.42-1.71,1.87-1.5,4-2.55,4.7-5.28.63-2.5,4.14-2.53,5.09-5.09.18-.49,2-1,2.24-.74,1.84,1.94,3.45-.13,5.14-.13.36,0,.73-.62,1.1-1-.38-.12-.77-.21-1.15-.35-1-.37-2.4-.17-2.67-1.81,0-.27-1-.48-1.61-.54a9.27,9.27,0,0,0-1.82.17c.56-.46,1.07-1.16,1.71-1.33a2.87,2.87,0,0,1,2.31.23c.77.74,1.24.51,2,.11a27.44,27.44,0,0,1,2.59-1.18,5.68,5.68,0,0,1,1-.27c-.08.39-.14.8-.24,1.18-.18.65-.38,1.3-.58,2,1.31,0,2.61.1,3.92.08,0,0,.22-1,.09-1-1.46-.75-3.13-1.32-1.83-3.53a6.41,6.41,0,0,0-.78-.69c-1.81-1.46-3.7-2.85-5.4-4.42-1-.91-1.59-1.86-3-.43a2.52,2.52,0,0,1-2.36-.31c-1.09-2.54-3.53-2.2-5.47-2.6A2,2,0,0,0,78.79,27c.49,1.51,2.38,3.06-1,3.37a7.09,7.09,0,0,1,.15,1.29,17,17,0,0,1-.32,1.73c-.51-.28-1.2-.43-1.49-.86A5.89,5.89,0,0,0,71.78,30a33.38,33.38,0,0,1-6.59-2.14c-1.48-.6-1.5-1.77-.27-2.6,1.46-1,3.29-1.45,4.64-2.54,1.72-1.4,3,1.43,4.69.13.37-.29,1.33.14,2,.24-.7-.44-1.4-.91-2.12-1.31a19.21,19.21,0,0,0-1.88-.92,7.79,7.79,0,0,0,1.86-.25c.6-.23,1.62-.87,1.57-1.06-.24-.8-.65-1.56.62-1.55s3.52.12,3.58.5c.3,1.68.67,1.92,2,.81.18-.15.66.07,1,.11-.14.3-.21.76-.45.88-.9.45-1.86.78-2.77,1.18a6,6,0,0,0-.86.56c.28.19.53.49.83.55,2.12.42,4.24.86,6.38,1.17a36.88,36.88,0,0,0,3.79.22,3.37,3.37,0,0,0,.78-.15,4.64,4.64,0,0,0-.43-1c-.4-.52-.87-1-1.32-1.48.71.13,1.41.28,2.12.38a2,2,0,0,0,1.09,0,5,5,0,0,0,1-.83,7,7,0,0,1-.85-.57c-1.54-1.23-4.06-.94-5-3.21-.08-.21-.7-.2-1.06-.32-2.07-.68-4.11-1.48-6.21-2-2.47-.65-5-1-7.25.71-.83.62-1.11.5-1.35-.39-.34-1.32-1.27-1-2-.57a6.83,6.83,0,0,0-1.45,1.39,14.43,14.43,0,0,0,1.64,1.38c.28.18.76,0,1.12.15a12.64,12.64,0,0,1,1.41.63c-.27.34-.5.85-.85,1a2.77,2.77,0,0,1-1.48-.1,8.58,8.58,0,0,1-4.6-2.7s-.82.42-.84.67c0,.55.4,1.19.24,1.66a3,3,0,0,1-1.17,1.17c-.73-.57-1.28-1.69-2-1.83s.1,2.07-1.62,1.85c-1.41-.18-2.86-.07-4.29-.13-.22,0-.43-.3-.65-.46.18-.19.33-.5.54-.56.54-.16,1.13-.17,1.68-.32a3.9,3.9,0,0,0,.91-.52A5.64,5.64,0,0,0,57,17a5.11,5.11,0,0,1-2.79-4.14c0-.29-.31-.76-.5-.77-1.06-.1-2.14-.11-3.21-.13a15.76,15.76,0,0,1-2.38,0,51.48,51.48,0,0,0-5.52-1c-.84-.05-1.72.87-2.58,1.34.83,0,1.67.06,2.51.07.18,0,.38-.14.56-.1.34.09.67.19,1,.31-.27.29-.5.79-.81.84a22.34,22.34,0,0,1-4,.33c-1.21,0-2,.6-1.92,1.56,0,.47,1.25,1,2,1.23A2.14,2.14,0,0,0,41,16.3c1.22-.8,1.93-.23,2.58.74.25.37.49.75.73,1.12a11,11,0,0,1-1.52.1c-3.46-.31-6.93-1-10.36-.87-3.1.14-6.14.9-9.34.44-3.66-.52-7.5-.1-11-1C9,16,6.4,17,3.66,17.74A11.07,11.07,0,0,0,1.3,19l2.37.85a1.38,1.38,0,0,1,.51.23,4,4,0,0,1,.48.66c-.29.13-.59.38-.88.38s-.7-.34-1-.34a24.5,24.5,0,0,0-2.7.44c-.06,0-.1.46-.07.47a14.71,14.71,0,0,0,2.58.85,13.58,13.58,0,0,0,2.55,0,16.07,16.07,0,0,0-2.48,1A7.87,7.87,0,0,0,1.17,25c.61.52,1.25,1.52,1.8,1.47,1.89-.15,3.34,1,5,1.34L4,30.16a4,4,0,0,0-.51.24A4.53,4.53,0,0,0,3,31a2.35,2.35,0,0,0,.79.14c2.71-.48,5-2.61,8.06-1.84.18,0,.63-.43.74-.75a2.93,2.93,0,0,1,2.25-2,1.42,1.42,0,0,0,.53-.2c2-1.46,4.12-.91,6.22-.35,2.32.61,4.8.65,6.47,3.06.61.89,1.83,1.34,2,2.73,0,.39.81.7,1.24,1a5.11,5.11,0,0,1,.21-1.22.85.85,0,0,1,.77-.12c1,1.18,1.71,2.88,3,3.53,2.56,1.33,2.9,3.28,2.64,5.56-.63,3.93,1.9,6,4.25,8.29a14.37,14.37,0,0,1,2.44,2.61,29.88,29.88,0,0,0,4.77,6.66,5.28,5.28,0,0,0,1.46.69,8.94,8.94,0,0,0-.59-1.3c-.63-.94-1.34-1.83-1.95-2.79-.16-.23-.07-.63-.09-1,.26.08.6.09.76.27,1.71,1.77,4.23,3.31,4.89,5.43,1,3.14,3.54,3.8,5.68,5.09a7,7,0,0,0,4.52.72c1.36-.18,2.87,1.6,4.44,2.1s2.52.86,3.19,2.42c.74,1.74,3.9,3.5,4.76,2.82,1.85-1.45,2.13.2,2.57,1.16a3.44,3.44,0,0,1-1.38,4.52c-2.31,1.53-.43,4.12-1.75,5.82,0,.06.34.41.49.65.82,1.25,1.73,2.46,2.43,3.78C80,90.77,81,93.06,83.66,94.14c1.85.76,2.27,2.35,2,4.26-.54,4.28-1,8.58-2.66,12.62a7.58,7.58,0,0,0-.3,2.22c-.14,1.59-.17,3.18-.44,4.74-.23,1.32-1.11,2.6-1,3.87.29,4.64,3.19,7.18,7.38,6.26a4.37,4.37,0,0,0,.78-.31c-.2-.17-.38-.35-.58-.5-2.87-2.16-2.85-2.13-.24-4.76a3.08,3.08,0,0,0,.51-1.69c-1.25-.55-.53-1-.11-1.69.56-1,3-1.28,1.3-3.2,0,0,.28-.5.46-.53,1.74-.28,2.84-2.28,4.88-1.79a1.11,1.11,0,0,0,.88-.59c.33-1,.21-2.28.83-2.85s2-.51,3-.87c.4-.14.66-.66,1-1,.78-.91,1.57-1.82,2.33-2.76.42-.51,1.15-1.11,1.1-1.61-.34-3.11,2.06-3.67,4.08-4a4.22,4.22,0,0,0,3.65-3.5,18.79,18.79,0,0,1,3.74-8.84c1.56-2,1-3.2-1.43-4.14ZM306,23.74,305,24c-1.65.45-3.27,1-4.94,1.34a29.11,29.11,0,0,1-4.74.59c-2.67.07-2.87.22-3.65,2.86s-3.64,3.7-5.48,5.52c-.07.06-.53-.1-.54-.19-.17-1.44-.76-3.08-.28-4.28s2-1.75,3.16-2.59c.15-.12.37-.14.51-.26.49-.45,1-.91,1.42-1.37-1.18.32-1.55-2.21-3.09-.83a12.65,12.65,0,0,1-2.85,1.9,5.8,5.8,0,0,1-2.38.55,14.85,14.85,0,0,1-3.88-.22c-3.82-.9-6.46,1.47-9.36,3.16a3.56,3.56,0,0,0-.7.8,4.73,4.73,0,0,0,.94.44c1,.17,2,.25,3,.41a3.18,3.18,0,0,1,2.66,4.34c-.2.74-.52,1.45-.79,2.18-.22-.85-.47-1.69-.67-2.55-.12-.53-.16-1.09-.23-1.63a10,10,0,0,0-1,1.41c-1.75,2.83-3.55,5.46-7.38,5.74-.93.07-1.73,1.37-2.68,2-1.51,1-.48,1.83-.16,2.87a3.6,3.6,0,0,1-.44,2.34c-.18.35-1,.38-1.48.56-.11-.45-.45-1-.29-1.34.79-1.65-1.3-1.41-1.41-2.21-.2-1.49-.64-1.47-2-1.24-.82.14-1.87-1.33-3,0-.28.33-.88.82-.81,1a2.94,2.94,0,0,0,1.13,1.11c.29.17.75,0,1.12.08a3.81,3.81,0,0,1,.89.42c-.13.23-.2.61-.38.68-1.84.67-1.22,1.56-.44,2.74,1.54,2.32,1.18,3.77-.82,5.74s-4.06,4.29-7.43,4.26c-.37,0-.75,1.18-1.13,1.8l-1,1.65a12.24,12.24,0,0,1-.45-1.68,17.81,17.81,0,0,1,0-1.79c-.49.24-1.14.36-1.42.75s-.86,1.44-.64,1.87c.44.91,1.49,1.52,1.93,2.43s1.16,2.57.74,3.33c-.66,1.2-2.15,2-3.35,2.81-.16.11-.83-.34-1.14-.65-.59-.61-1-1.36-1.64-2s-1.6-1.66-2.25.16a.7.7,0,0,1-.15.19c-.13,2.57-.09,7.41,1.93,8.82,2.79,2-1.17,5.58-2,1.82s-2.12-10.37-1.4-13c-.09-1.63-.12-3.28-2.3-1.31a1.81,1.81,0,0,1-1-.74,18.49,18.49,0,0,0-.89-2.63c-.58-.92-1.55-2.39-2.2-2.31a11.64,11.64,0,0,0-4.57,1.78,18,18,0,0,0-3.68,3.11,7.89,7.89,0,0,0-1.28,2.64c-.58,1.59-1,3.23-1.64,4.81a1.45,1.45,0,0,1-1.12,0c-1-2-2.06-4-3-6.13a15.64,15.64,0,0,1-1-3.27c-.2-1,.61-2.85-1.76-1.87a4.57,4.57,0,0,1-.91-1.23,4.39,4.39,0,0,0-4.67-2.36c-2.12.22-4.4.71-6.11-1.32a1.19,1.19,0,0,0-1-.34c-2.27.84-3.48-.76-4.92-2a5.51,5.51,0,0,0-1.72-.65,5.53,5.53,0,0,0,.34,1.71A27.09,27.09,0,0,0,192.82,57c.86,1.17,1.68,2,3.2.73,1.71-1.42,2.72.5,3.86,1.19s.18,1.79-.38,2.36a19.47,19.47,0,0,1-4.2,3.64,47.84,47.84,0,0,1-6.59,2.72c-2.18.8-2.56.46-3.33-1.64a35.2,35.2,0,0,0-2.3-4.44q-1.41-2.62-2.84-5.23a5.5,5.5,0,0,0-.86-1.46,1.82,1.82,0,0,0-1.25-.21,1.26,1.26,0,0,0-.15,1q3.06,5.6,6.21,11.17c.37.65,1.21,1.16,1.32,1.81.38,2.41,1.78,1.9,3.35,1.45,1.21-.34,2.49-.47,3.73-.7a23.43,23.43,0,0,1-1.28,3.93,12.65,12.65,0,0,1-4.43,5,13.16,13.16,0,0,0-4.28,4.88c-.56,1.08.19,2.85.33,4.3.16,1.66.61,3.39.32,5-.19,1-1.39,2-2.36,2.62-1.54,1-2.79,2-1.91,4.15.17.39.15,1.25,0,1.33-2.44,1-2.47,3.8-4,5.56-2.6,3.12-6,3.39-9.44,3.79-.56.07-1.44-1-1.86-1.68-.73-1.41-1.38-2.86-2-4.34-.22-.52-.45-1-.63-1.56a38.72,38.72,0,0,0-1.8-5.32c-1.2-2.38-1.66-4.37.1-6.87,1.11-1.57-.28-3.7-.84-5.5a4.57,4.57,0,0,0-1.41-2.12c-1.86-1.49-1.54-3.2-.89-5.09s.12-2.6-1.66-2.14c-1.13.3-1.78.22-2.38-.78-.79-1.34-1.9-1.17-3.23-.77a44.32,44.32,0,0,1-5.22,1.07c-.37.07-.84-.12-1.13,0-3.2,1.82-4.41-1-6.12-2.6-.82-.78-1.43-1.78-2.3-2.49A3.6,3.6,0,0,1,133,65.12a5.29,5.29,0,0,0,.64-2.92c-1-3.49,1-5.61,3.27-7.52,1-.88,2-1.5,2.29-3,.36-1.89,2.06-2.66,3.71-3.19,1.88-.6,3.82-1.07,5.75-1.49,1.48-.32,3-.47,4.49-.7v.19a6.18,6.18,0,0,1,2.53-.13,3.4,3.4,0,0,1,1.47,1.78c-1.12,1.4.16,1.67.9,2a42.49,42.49,0,0,0,4.45,1.9c.58.21,1.57.39,1.88.08,2.67-2.61,5.49-.72,8.25-.43a26.15,26.15,0,0,0,4.15.27c1.36-.07,3-3.25,2.37-4.35-.17-.28-.78-.4-1.19-.41-1.13,0-2.27.1-3.4,0-1.89-.14-3.62-.53-3.78-3,0-.33-.7-.61-1.07-.91-.37.51-1.15,1.35-1,1.5.89,1.16,0,1.54-.74,2-1.2.65-1.48-.38-1.83-1.13-1.28-2.83-3.74-4.5-6.15-6.21-.26-.18-.69-.13-1-.2.09.4.06.94.3,1.17a16.31,16.31,0,0,0,2.93,2.23c.9.5,1,1,.51,1.74-.83,1.21-.91-.16-1.29-.39-1.73-1.1-3.41-2.29-5.19-3.32-.38-.23-1.07,0-1.6.1s-1.08.56-1.59.5c-2.89-.3-4.29,1.74-5.59,3.67-1.47,2.18-5.73,3-7.66,1.14-1.47-1.41.26-3,0-4.55a5.14,5.14,0,0,1,2.1-.81c.73-.11,1.55.25,2.26.1a3.68,3.68,0,0,0,2.23-1.12c.6-1.07-.06-2-1.21-2.45a5,5,0,0,1-.87-.57c.32-.19.63-.52,1-.54,3.67-.18,5.8-3.72,9.32-4.27.18,0,.13-.93.36-1.33a10.71,10.71,0,0,1,1.14-1.38,4.74,4.74,0,0,1,1,1c1,2,2.76,1.23,4.24,1.34a17.62,17.62,0,0,0,3.32-.32,1.55,1.55,0,0,0,.76-.18c.09-2.33,2.43-2.31,3.68-3.38.72-.62,2.13-.4,3.22-.62a3.17,3.17,0,0,0,.9-.54c-.31-.27-.61-.77-.93-.79a10.48,10.48,0,0,0-3.11.2c-1.11.3-2,.23-2.23-.93-.1-.58.58-1.3,1-1.94.08-.14.34-.16.48-.29.44-.43.87-.88,1.31-1.33-.13-.11-.28-.35-.38-.33a8.18,8.18,0,0,0-2.28.66c-.85.5-1.47,1.45-2.34,1.85-1.18.56-2.35.7-.72,2.21.62.58-1.34,3.48-2.6,3.83s-3,1.24-3.41-1.31c-.19-1.2-.89-1.19-1.84-.48a1.79,1.79,0,0,1-3-.81c-.57-1.28-.63-2.43,1-3.35,2.52-1.46,4.67-3.7,7.32-4.75a35.45,35.45,0,0,1,9.76-2.09c2-.19,4.07.76,6.1,1.2s3.9.8,5.9,1.3c.27.07.47.44.71.66-.21.18-.39.47-.62.5-1.21.17-2.44.24-3.65.41-.28,0-.76.39-.74.55a2,2,0,0,0,.53.87c1.24-.6,2.77,1,3.93-.6a2.9,2.9,0,0,1,1.93-1c1-.06,2,.32,1.42-1.34a8.47,8.47,0,0,1,1.42-.77c.65,2.67,2.45.6,3.62.72a20.56,20.56,0,0,0,5.3-.57,36.82,36.82,0,0,1,4.9-.81,30.33,30.33,0,0,1,4.74.73,10.29,10.29,0,0,0,1.36,0,8.41,8.41,0,0,1-.5-1.1c-.14-.44-.43-1.18-.27-1.31a11.46,11.46,0,0,1,3-1.85c.38-.13,1.7,1,1.63,1.21-.58,1.45,1.13,3.34-.86,4.48-.19.1-.15.58-.22.88.28,0,.61.07.8-.06a13.07,13.07,0,0,1,1.55-1.23,10.23,10.23,0,0,1,2.19-.5c.51-.09,1-.13,1.52-.26,0,0,.06-.68-.06-.74-.47-.24-1.1-.63-1.48-.48-1.72.72-2.27.1-2-1.58,0-.21.32-.37.49-.56,1.43,2,2-.57,2.85-.51,1.22.08,2.37,1,3.56,1.53.48.22,1,.39,1.47.58a14.85,14.85,0,0,0-.93-1.53c-.16-.2-.53-.22-.74-.4a2.79,2.79,0,0,1-.45-.63,3.6,3.6,0,0,1,.69-.32c3.57-.8,7.13-1.61,10.72-2.37a10,10,0,0,1,2.19-.1c.75,0,1.65.33,2.23,0,3.68-1.94,7.42-.17,11.11-.33,1,0,2.38,0,1.43,1.8,0,.07.69.79,1,.78,3.08-.06,6.11,1.2,9.26,0,1.42-.54,3.31-.76,3.72,1.7a1.34,1.34,0,0,0,1.05.74c2.24-.2,4.47-.51,6.7-.8a1.27,1.27,0,0,0,.8-.25c.35-.42.91-1,.81-1.39s-.83-.76-1.29-1.12l-.9-.75a3.16,3.16,0,0,1,1-.32,27.2,27.2,0,0,1,3.12.18,9,9,0,0,1,1.62.45,7.87,7.87,0,0,0-1,1,1.1,1.1,0,0,0,0,.8c0,.13.3.25.47.28,3.29.63,6.58,1.26,9.88,1.87,1.55.29,3.11.54,4.67.81.82.14,1.65.31,2.48.39,2,.18,3.92.32,5.89.47.18,0,.46.18.53.1,1.94-1.88,4.15-.1,6.21-.46,1.81-.32,2.31.71,2.53,2.48.19,1.36-1.86,2.15-.54,3.5ZM184.39,42.48a15.62,15.62,0,0,0-1.51-1.83c-.62-.57-1.68-.85-2-1.52-.56-1.2-1-1.23-1.75-.31-1.06,1.32-1.88,1.22-2.81-.2-.65-1-1.44-.61-2.07.16a14.4,14.4,0,0,0-1.57,2,2.39,2.39,0,0,0-.27,1.79c.13.32,1.1.51,1.6.39a13,13,0,0,1,7.72.15,5.47,5.47,0,0,0,.81,0Zm8.29-2.86a14.3,14.3,0,0,0,1.59-.17,9.83,9.83,0,0,0,1.4-.53c-.3-.45-.52-1.13-.95-1.29a4.66,4.66,0,0,0-2.1-.12c-.72.1-1.41.48-2.13.61-2,.39-2.45,1.22-1.28,2.86a5.33,5.33,0,0,0,1.88,1.65c1,.53,1,.79.15,1.53-1.43,1.25-1.29,1.85.41,2.49a13.14,13.14,0,0,0,1.75.43c2,0,2.46-.5,1.88-2.22a33,33,0,0,0-1.75-3.65c-.28-.53-.56-1.06-.85-1.59ZM276.9,95c-.78-1-1.28-2.28-2-3.37a21.42,21.42,0,0,0-1.68-2,15,15,0,0,1-.08,2.68c-.2,1-.09,2.63-1.68,2.42A6,6,0,0,1,268.53,93c-.38-.36-.13-1.35-.25-2,0-.31-.3-.82-.48-.82-1.47-.06-3.22-.5-4.33.13-1.38.8-2.15,2.73-4.23,1.37a5.29,5.29,0,0,0-.79.73c-2.18,2.19-4,4.73-7.62,5-2.3.18-2.67,1.85-2.68,4.25,0,2,1.06,3.36,1.62,5a2.92,2.92,0,0,1,.1,1.89c-.6,1.47-.13,2.49,1.38,2.23,1.85-.32,4.12-.47,5.32-1.62,1.58-1.52,3.36-1.5,5.1-2,2.17-.6,3.6.14,5,2.24a1.35,1.35,0,0,0,.79.41c2-2.3,3,.24,3.48,1.09,1.14,2.22,2.45,3.39,4.51,2.67,3.55.43,4.68-1.66,5.89-3.92,2-3.82,2-6.89-.72-10.28-1.19-1.52-2.56-2.91-3.73-4.45ZM264.38,79.64c-.15,0-.39.27-.59.42a12.24,12.24,0,0,0,2.12,2.63c1.6,1.12,4.39.47,4.77,3.55.07.61,2.7,1.57,2.81,1.42,1.74-2.47,3.11-1.76,4.54.24a2.21,2.21,0,0,0,1.24.65c.23.07.55-.18.81-.29-.11-.41-.1-.65-.21-.76-1.9-1.81-3.55-4.18-5.8-5.25C271.07,80.82,267.64,80.43,264.38,79.64ZM273.25,40a3.73,3.73,0,0,0-1.89,2.47c-.91,4.29-1.65,5-5.83,5.45a7.47,7.47,0,0,0-3,1.41c-.27.17-.32,1.08-.1,1.45a1.46,1.46,0,0,0,1.34.34c1.29-.41,2.5-1.07,3.79-1.49,4.17-1.34,4.92-2.35,4.81-6.51a1.5,1.5,0,0,1,.87-1,21.46,21.46,0,0,1,2.51-.51,2.64,2.64,0,0,0,.66-.36c-.1-.24-.14-.5-.25-.54-1-.29-2.16-1-2.94-.67Zm-26,44.33c-4.74.7-6-3-6-3a4,4,0,0,0-3.48,2.34c-.17.39.27,1.74,4.32,2.16a28.79,28.79,0,0,0,6.69,0S252,83.63,247.25,84.33Zm-10.78,1.72c-1.3-.51-1.35-.32-1.07-1.72s-1.21-3-1.21-3c-4.16.65.65,5.47,2.28,6.73s4.51-.84,3.39-.84-2.09-.69-3.39-1.21Zm24.45,0a15,15,0,0,0-3.35-5.48c-2.37-2.37-2.93,4.37-2.93,4.37C255.25,87.94,260.92,86.05,260.92,86.05Z"/></g></g></svg>