<?xml version="1.0" encoding="utf-8"?>
<!-- Generator: Adobe Illustrator 25.0.1, SVG Export Plug-In . SVG Version: 6.00 Build 0)  -->
<svg version="1.1" id="Layer_1" xmlns="http://www.w3.org/2000/svg" xmlns:xlink="http://www.w3.org/1999/xlink" x="0px" y="0px"
	 viewBox="0 0 138 138" style="enable-background:new 0 0 138 138;" xml:space="preserve">
<style type="text/css">
	.st0{opacity:0.5;}
	.st1{fill:none;stroke:#000000;stroke-width:2;stroke-linecap:round;stroke-linejoin:round;}
	.st2{fill:#767676;}
	.st3{opacity:0;}
	.st4{fill:#B3B3B3;}
	.st5{fill:#878789;}
	.st6{clip-path:url(#SVGID_2_);}
	.st7{fill-rule:evenodd;clip-rule:evenodd;fill:#ECECEC;}
	.st8{clip-path:url(#SVGID_4_);}
	.st9{fill:#231F20;}
	.st10{clip-path:url(#SVGID_6_);}
	.st11{fill:#79797A;}
	.st12{fill:none;}
	.st13{fill:#FAFAFA;}
	.st14{clip-path:url(#SVGID_8_);}
	.st15{clip-path:url(#SVGID_10_);}
	.st16{clip-path:url(#SVGID_12_);}
	.st17{clip-path:url(#SVGID_14_);}
</style>
<g id="그룹_1351" transform="translate(268.646 480.449)">
	<g>
		<defs>
			<rect id="SVGID_7_" x="-223" y="-392" width="5.22" height="5.22"/>
		</defs>
		<clipPath id="SVGID_2_">
			<use xlink:href="#SVGID_7_"  style="overflow:visible;"/>
		</clipPath>
		<g id="그룹_1349-4" transform="translate(0 0)" class="st6">
			<path id="패스_702-4" class="st2" d="M-217.78-389.39c-0.24-0.23-0.52-0.41-0.82-0.55c-0.24-0.13-0.49-0.23-0.76-0.27
				l-0.21-0.21c-0.05-0.27-0.14-0.52-0.27-0.76c-0.14-0.3-0.32-0.58-0.55-0.82c-0.23,0.24-0.41,0.52-0.55,0.82
				c-0.13,0.24-0.23,0.49-0.28,0.76l-0.21,0.21c-0.27,0.05-0.52,0.14-0.76,0.27c-0.3,0.14-0.58,0.32-0.82,0.55
				c0.24,0.23,0.52,0.41,0.82,0.55c0.24,0.13,0.49,0.23,0.76,0.27l0.21,0.21c0.05,0.27,0.14,0.52,0.28,0.76
				c0.14,0.3,0.32,0.58,0.55,0.82c0.23-0.24,0.41-0.52,0.55-0.82c0.13-0.24,0.23-0.49,0.27-0.76l0.21-0.21
				c0.27-0.05,0.52-0.14,0.76-0.28C-218.3-388.98-218.02-389.16-217.78-389.39"/>
		</g>
	</g>
</g>
<g id="그룹_1377">
	<g id="그룹_1345" transform="translate(275.195 442.247)">
		<g id="그룹_1333">
			<path id="패스_700" class="st13" d="M-183.33-363.73c-9.81,5.19-21.98,1.44-27.17-8.37c-3.11-5.88-3.11-12.91,0-18.79
				c0.19-0.37,0.05-0.82-0.32-1.02c-0.22-0.12-0.48-0.12-0.7,0c-10.54,5.59-14.56,18.66-8.97,29.2c5.59,10.54,18.66,14.56,29.2,8.97
				c3.82-2.02,6.95-5.15,8.97-8.97c0.19-0.37,0.05-0.82-0.31-1.02C-182.85-363.85-183.11-363.85-183.33-363.73 M-201.4-352.74
				c-11.1,0-20.09-9-20.09-20.1c0-6.58,3.22-12.74,8.62-16.49c-4.33,11.12,1.17,23.64,12.29,27.97c2.5,0.97,5.16,1.47,7.84,1.47l0,0
				c2.68,0,5.34-0.5,7.84-1.47C-188.65-355.95-194.82-352.73-201.4-352.74"/>
		</g>
	</g>
	<g id="그룹_1363" transform="translate(268 479.803)">
		<g id="그룹_1349-5" transform="translate(0 0)">
			<path id="패스_702-5" class="st13" d="M-216.49-388.74c-0.3-0.29-0.65-0.52-1.03-0.69c-0.29-0.17-0.61-0.28-0.94-0.34
				l-0.26-0.26c-0.06-0.33-0.18-0.65-0.34-0.94c-0.17-0.38-0.4-0.73-0.69-1.03c-0.29,0.3-0.52,0.65-0.69,1.03
				c-0.17,0.29-0.28,0.61-0.34,0.94l-0.26,0.26c-0.33,0.06-0.65,0.18-0.94,0.34c-0.38,0.17-0.73,0.4-1.03,0.69
				c0.3,0.29,0.65,0.52,1.03,0.69c0.29,0.17,0.61,0.28,0.94,0.34l0.26,0.26c0.06,0.33,0.18,0.65,0.34,0.94
				c0.17,0.38,0.4,0.73,0.69,1.03c0.29-0.3,0.52-0.65,0.69-1.03c0.17-0.29,0.28-0.61,0.34-0.94l0.26-0.26
				c0.33-0.06,0.65-0.18,0.94-0.34C-217.13-388.23-216.79-388.46-216.49-388.74"/>
		</g>
	</g>
	<g id="그룹_1364" transform="translate(301.919 443.75)">
		<g id="그룹_1349-6" transform="translate(0 0)">
			<path id="패스_702-6" class="st13" d="M-219.24-390.12c-0.17-0.17-0.37-0.3-0.59-0.4c-0.17-0.1-0.35-0.16-0.54-0.2l-0.15-0.15
				c-0.04-0.19-0.1-0.38-0.2-0.54c-0.1-0.22-0.23-0.42-0.39-0.59c-0.17,0.17-0.3,0.37-0.4,0.59c-0.1,0.17-0.16,0.35-0.2,0.55
				l-0.15,0.15c-0.19,0.04-0.38,0.1-0.54,0.2c-0.22,0.1-0.42,0.23-0.59,0.4c0.17,0.17,0.37,0.3,0.59,0.4
				c0.17,0.1,0.35,0.16,0.54,0.2l0.15,0.15c0.04,0.19,0.1,0.38,0.2,0.55c0.1,0.22,0.23,0.42,0.4,0.59c0.17-0.17,0.3-0.37,0.4-0.59
				c0.1-0.17,0.16-0.35,0.2-0.55l0.15-0.15c0.19-0.04,0.38-0.1,0.54-0.2C-219.6-389.81-219.4-389.95-219.24-390.12"/>
		</g>
	</g>
	<g id="그룹_1368" transform="translate(294.169 436)">
		<g id="그룹_1349-7" transform="translate(0 0)">
			<path id="패스_702-7" class="st13" d="M-216.75-388.88c-0.29-0.27-0.62-0.5-0.99-0.66c-0.28-0.16-0.58-0.27-0.9-0.33
				l-0.25-0.25c-0.06-0.32-0.17-0.62-0.33-0.9c-0.16-0.36-0.38-0.7-0.66-0.99c-0.27,0.29-0.5,0.62-0.66,0.99
				c-0.16,0.28-0.27,0.58-0.33,0.9l-0.25,0.25c-0.32,0.06-0.62,0.17-0.9,0.33c-0.36,0.16-0.7,0.39-0.99,0.66
				c0.29,0.27,0.62,0.5,0.99,0.66c0.28,0.16,0.58,0.27,0.9,0.33l0.25,0.25c0.06,0.32,0.17,0.62,0.33,0.9
				c0.16,0.36,0.38,0.7,0.66,0.99c0.27-0.29,0.5-0.62,0.66-0.99c0.16-0.28,0.27-0.58,0.33-0.9l0.25-0.25
				c0.32-0.06,0.62-0.17,0.9-0.33C-217.38-388.38-217.05-388.6-216.75-388.88"/>
		</g>
	</g>
</g>
</svg>
