<?xml version="1.0" encoding="utf-8"?>
<!-- Generator: Adobe Illustrator 25.0.1, SVG Export Plug-In . SVG Version: 6.00 Build 0)  -->
<svg version="1.1" id="Layer_1" xmlns="http://www.w3.org/2000/svg" xmlns:xlink="http://www.w3.org/1999/xlink" x="0px" y="0px"
	 viewBox="0 0 138 138" style="enable-background:new 0 0 138 138;" xml:space="preserve">
<style type="text/css">
	.st0{opacity:0.5;}
	.st1{fill:none;stroke:#000000;stroke-width:2;stroke-linecap:round;stroke-linejoin:round;}
	.st2{fill:#767676;}
	.st3{opacity:0;}
	.st4{fill:#B3B3B3;}
	.st5{fill:#878789;}
	.st6{clip-path:url(#SVGID_2_);}
	.st7{fill-rule:evenodd;clip-rule:evenodd;fill:#ECECEC;}
	.st8{clip-path:url(#SVGID_4_);}
	.st9{fill:#231F20;}
	.st10{clip-path:url(#SVGID_6_);}
	.st11{fill:#79797A;}
	.st12{fill:none;}
	.st13{fill:#FAFAFA;}
	.st14{clip-path:url(#SVGID_8_);}
	.st15{clip-path:url(#SVGID_10_);}
	.st16{clip-path:url(#SVGID_12_);}
	.st17{clip-path:url(#SVGID_14_);}
</style>
<g id="그룹_362" transform="translate(43.2 418.9)">
	<path id="패스_216" class="st13" d="M38.9-339.4c-0.55,0-1-0.45-1-1c0-0.55,0.45-1,1-1c4.58,0,8.3-3.72,8.3-8.3
		c0-4.58-3.72-8.3-8.3-8.3c-0.68-0.01-1.35,0.1-2,0.3c-0.27,0.07-0.55,0.03-0.8-0.1c-0.22-0.15-0.39-0.36-0.5-0.6
		c-0.95-4.38-4.82-7.5-9.3-7.5l0,0c-4.68-0.03-8.68,3.38-9.4,8c-0.1,0.3-0.2,0.6-0.5,0.7c-0.28,0.15-0.62,0.15-0.9,0
		c-1.07-0.48-2.23-0.72-3.4-0.7c-4.58,0-8.3,3.72-8.3,8.3c0,4.58,3.72,8.3,8.3,8.3c0.55,0,1,0.45,1,1c0,0.55-0.45,1-1,1
		c-5.69,0-10.3-4.61-10.3-10.3s4.61-10.3,10.3-10.3l0,0c1.05,0.01,2.1,0.18,3.1,0.5c1.37-5,5.91-8.48,11.1-8.5l0,0
		c5.02,0.07,9.44,3.33,11,8.1c0.53-0.09,1.06-0.12,1.6-0.1c5.66,0,10.25,4.59,10.25,10.25S44.56-339.4,38.9-339.4L38.9-339.4z"/>
	<path id="패스_100" class="st13" d="M24.7-340.5c0.47,0.48,0.73,1.13,0.7,1.8c0,3.1-3.7,5.6-8.4,5.6H4.3c-0.7,0-1.2-0.4-1.2-0.8
		c0-0.4,0.6-0.8,1.2-0.8H17c3.2,0,5.9-1.8,5.9-4c0.02-0.38-0.13-0.74-0.4-1c-1.06-0.96-2.57-1.23-3.9-0.7l-1.3,0.5
		c-0.9,0.4-2-0.2-1.8-0.9c0.8-2.8,4.5-4.8,8.8-4.8h0.5c4.6,0,8.7,2,10.2,4.9l1.1,2.2c1.2,2.3,4.3,3.8,7.9,3.8c0.7,0,1.2,0.4,1.2,0.8
		c0,0.4-0.6,0.8-1.2,0.8c-4.6,0-8.7-2-10.2-4.9l-1.1-2.2c-1.2-2.3-4.3-3.8-7.9-3.8h-0.5c-1.85-0.08-3.67,0.52-5.1,1.7
		C21.21-342.57,23.24-341.91,24.7-340.5z"/>
</g>
</svg>
